<svg width="226" height="226" viewBox="0 0 226 226" fill="none" xmlns="http://www.w3.org/2000/svg">
<rect x="3" y="3" width="220" height="220" rx="110" stroke="white" stroke-width="6"/>
<circle cx="113" cy="113" r="107" fill="#181818"/>
<path d="M159.546 89.5745H164.082V85.6537H150.794V89.5745H155.348V142.773H159.539V89.5745H159.546ZM133.417 114.858H137.113V142.767H141.305V85.6478H137.113V110.931H133.417V85.6478H129.207V142.767H133.417V114.858ZM118.879 101.736V91.3679C118.879 87.4646 116.535 85.0031 112.821 85.0031C109.209 85.0031 106.775 87.4646 106.775 91.3679V97.4163C106.775 111.922 114.584 112.584 114.584 127.67V134.035C114.584 138.606 114.343 139.503 112.736 139.503C111.142 139.503 110.906 138.606 110.906 134.035V124.247H106.696V137.059C106.696 140.98 109.215 143.424 112.742 143.424C116.288 143.424 118.716 140.98 118.8 137.059V127.342C118.8 112.59 110.979 112.174 110.979 96.8419V94.398C110.979 89.8266 111.238 88.9298 112.827 88.9298C114.433 88.9298 114.675 89.8266 114.675 94.398V101.742H118.879V101.736ZM88.4738 95.2068C88.4738 90.6353 88.2865 88.9298 90.3039 88.9298C92.3212 88.9298 92.1521 90.6412 92.1521 95.2068V133.22C92.1521 137.791 92.3212 139.497 90.3039 139.497C88.2865 139.497 88.4738 137.786 88.4738 133.22V95.2068ZM96.368 91.3679C96.368 87.4646 94.0063 85.0031 90.3099 85.0031C86.698 85.0031 84.264 87.4646 84.264 91.3679V137.053C84.264 140.974 86.6074 143.418 90.3099 143.418C93.9218 143.418 96.368 140.974 96.368 137.053V91.3679ZM84.264 77.1613H96.368V81.3284H84.264V77.1613ZM197.277 116.188C197.621 116.353 198.527 116.423 198.974 115.69C199.367 114.993 198.871 114.26 198.527 114.043C198.062 113.78 198.183 113.926 197.053 113.709L195.459 113.328L194.722 112.947L195.459 112.567L197.053 112.232C198.237 111.998 198.062 112.115 198.575 111.851C198.865 111.617 199.361 110.902 198.968 110.193C198.521 109.478 197.615 109.542 197.271 109.759C196.757 109.976 196.999 109.976 196.244 110.791L195.115 111.951L194.378 112.402V111.57L194.891 110.023C195.284 108.927 195.284 109.144 195.284 108.593C195.284 108.212 194.891 107.444 194.033 107.444C193.176 107.444 192.783 108.206 192.783 108.593C192.783 109.144 192.783 108.927 193.176 110.023L193.689 111.57V112.402L192.952 111.951L191.871 110.791C191.086 109.859 191.255 109.976 190.79 109.712C190.446 109.548 189.54 109.478 189.093 110.193C188.7 110.908 189.214 111.623 189.54 111.851C190.005 112.115 189.83 112.004 191.014 112.168L192.608 112.567L193.291 112.947L192.608 113.328L191.014 113.662C189.83 113.879 190.005 113.78 189.491 114.043C189.22 114.26 188.706 114.993 189.099 115.69C189.546 116.423 190.452 116.353 190.796 116.142C191.309 115.925 191.086 116.024 191.823 115.093L192.952 113.932L193.689 113.551V114.331L193.176 115.86C192.783 116.974 192.783 116.739 192.783 117.29C192.783 117.689 193.176 118.451 194.033 118.451C194.891 118.451 195.284 117.689 195.284 117.29C195.284 116.739 195.229 116.909 194.891 115.86L194.378 114.331V113.551L195.115 113.932L196.196 115.093C197.005 116.024 196.83 115.925 197.277 116.188ZM35.3285 116.188C35.6547 116.353 36.5788 116.423 37.0257 115.69C37.4183 114.993 36.9049 114.26 36.5788 114.043C36.1137 113.78 36.2345 113.926 35.0869 113.709L33.4924 113.328L32.7736 112.947L33.4924 112.567L35.0869 112.232C36.2828 111.998 36.1137 112.115 36.6271 111.851C36.8989 111.617 37.4123 110.902 37.0197 110.193C36.5727 109.478 35.6486 109.542 35.3225 109.759C34.8091 109.976 35.0326 109.976 34.2957 110.791L33.1662 111.951L32.4112 112.402V111.57L32.9246 110.023C33.3353 108.927 33.3353 109.144 33.3353 108.593C33.3353 108.212 32.9246 107.444 32.0851 107.444C31.2274 107.444 30.8348 108.206 30.8348 108.593C30.8348 109.144 30.8348 108.927 31.2274 110.023L31.7408 111.57V112.402L31.0039 111.951L29.9228 110.791C29.1195 109.859 29.2886 109.976 28.8416 109.712C28.4974 109.548 27.5914 109.478 27.1444 110.193C26.7518 110.908 27.2471 111.623 27.5914 111.851C28.0383 112.115 27.8632 112.004 29.0651 112.168L30.6597 112.567L31.3422 112.947L30.6597 113.328L29.0651 113.662C27.8692 113.879 28.0383 113.78 27.5431 114.043C27.2531 114.26 26.7579 114.993 27.1505 115.69C27.5974 116.423 28.5034 116.353 28.8477 116.142C29.3611 115.925 29.1195 116.024 29.8745 115.093L31.0039 113.932L31.7408 113.551V114.331L31.2274 115.86C30.8348 116.974 30.8348 116.739 30.8348 117.29C30.8348 117.689 31.2274 118.451 32.0851 118.451C32.9246 118.451 33.3353 117.689 33.3353 117.29C33.3353 116.739 33.2689 116.909 32.9246 115.86L32.4112 114.331V113.551L33.1662 113.932L34.2474 115.093C35.0386 116.024 34.8695 115.925 35.3285 116.188ZM67.7085 114.858H69.7259V134.029C69.7259 138.6 69.4661 139.497 67.8776 139.497C66.271 139.497 66.0294 138.6 66.0294 134.029V94.3921C66.0294 89.8207 66.271 88.924 67.8776 88.924C69.4722 88.924 69.7259 89.8207 69.7259 94.3921V104.18H73.9176V91.3679C73.9176 87.4646 71.5741 85.0031 67.8716 85.0031C64.2416 85.0031 61.8136 87.4646 61.8136 91.3679V137.053C61.8136 140.974 64.1752 143.418 67.8716 143.418C71.4835 143.418 73.9176 140.974 73.9176 137.053V110.937H67.7025V114.858H67.7085Z" fill="white"/>
<path d="M45.7425 166.512C45.072 165.732 44.8002 165 44.8848 164.302C44.9875 163.605 45.4344 162.942 46.2015 162.327L51.0817 158.471C51.4441 158.172 51.8186 157.937 52.2112 157.773C52.6038 157.591 52.9964 157.509 53.4071 157.509C53.7997 157.492 54.1923 157.574 54.5728 157.761C54.9654 157.943 55.3278 158.242 55.6842 158.658C56.3365 159.438 56.6083 160.153 56.5056 160.85C56.4029 161.53 56.0103 162.128 55.358 162.661L55.2372 162.743L53.7333 161.547C54.0957 161.266 54.3312 160.967 54.4339 160.651C54.5547 160.352 54.4883 160.053 54.2467 159.772C54.1077 159.608 53.9567 159.49 53.7816 159.438C53.6246 159.385 53.4554 159.385 53.2863 159.42C53.1293 159.455 52.9602 159.52 52.8092 159.602C52.6521 159.684 52.5192 159.766 52.3984 159.865L47.4336 163.804C47.331 163.886 47.2464 163.968 47.1739 164.068C47.0169 164.232 46.9142 164.419 46.8659 164.63C46.8176 164.841 46.9021 165.082 47.1075 165.345C47.331 165.609 47.5846 165.761 47.8443 165.808C48.1161 165.843 48.3759 165.773 48.6295 165.574L50.5442 164.062L49.8254 163.2L51.1421 162.151L53.093 164.478L49.9764 166.951C49.2033 167.549 48.4544 167.801 47.6994 167.701C46.9746 167.59 46.3042 167.191 45.7425 166.512Z" fill="white"/>
<path d="M61.39 176.996C60.6894 177.811 59.9526 178.256 59.2157 178.373C58.4788 178.473 57.7117 178.192 56.8843 177.524C56.081 176.861 55.6702 176.176 55.6521 175.478C55.634 174.781 55.942 174.048 56.6125 173.304L60.7015 168.621C61.0277 168.24 61.3538 167.941 61.7102 167.707C62.0665 167.472 62.4289 167.326 62.8034 167.256C63.1779 167.191 63.5584 167.22 63.9691 167.338C64.3798 167.472 64.7905 167.701 65.2012 168.035C65.6301 168.398 65.9562 168.768 66.1616 169.113C66.3669 169.477 66.4515 169.846 66.4515 170.192C66.4334 170.555 66.3488 170.924 66.1616 171.288C65.9744 171.669 65.6965 172.038 65.3764 172.419L61.39 176.996ZM63.9751 171.094C64.1986 170.831 64.3496 170.543 64.4221 170.245C64.4764 169.946 64.3557 169.664 64.0295 169.395C63.8604 169.26 63.6671 169.178 63.498 169.16C63.3289 169.143 63.1537 169.178 63.0027 169.225C62.8457 169.289 62.6947 169.389 62.5376 169.506C62.3987 169.623 62.2779 169.741 62.1752 169.858L58.0681 174.558C57.8627 174.793 57.7419 175.056 57.6936 175.355C57.6574 175.654 57.7782 175.918 58.0862 176.17C58.3942 176.422 58.6842 176.504 58.9922 176.404C59.3002 176.305 59.572 176.123 59.8318 175.842L63.9751 171.094ZM64.0235 166.031L65.0684 164.835L68.4749 167.625L67.43 168.82L64.0235 166.031Z" fill="white"/>
<path d="M74.5225 184.836C74.2507 185.316 73.9427 185.715 73.6347 186.049C73.3085 186.383 72.9642 186.629 72.6079 186.782C72.2334 186.934 71.8348 186.981 71.3939 186.934C70.9469 186.881 70.4697 186.717 69.9563 186.436C69.4913 186.172 69.1168 185.873 68.8631 185.557C68.5913 185.24 68.4162 184.906 68.3316 184.543C68.247 184.191 68.247 183.828 68.3316 183.464C68.4162 183.101 68.5732 182.732 68.7786 182.368L70.6811 183.001C70.4577 183.418 70.3369 183.781 70.3369 184.097C70.3187 184.431 70.506 184.695 70.9046 184.912C71.1462 185.047 71.3516 185.094 71.5388 185.094C71.726 185.076 71.8831 185.029 72.0341 184.912C72.1911 184.812 72.324 184.66 72.4629 184.496C72.5837 184.314 72.7045 184.133 72.8253 183.933C72.9823 183.681 73.085 183.453 73.1515 183.271C73.2179 183.072 73.2541 182.89 73.236 182.72C73.2179 182.556 73.1515 182.368 73.0488 182.187C72.9461 182.005 72.7891 181.788 72.5837 181.524C72.1911 181.026 71.9012 180.575 71.7079 180.165C71.5207 179.766 71.418 179.403 71.3999 179.051C71.3818 178.7 71.4361 178.389 71.5388 178.072C71.6596 177.774 71.8106 177.439 72.016 177.111C72.2576 176.678 72.5475 176.314 72.8555 176.015C73.1817 175.716 73.5259 175.5 73.9004 175.365C74.2749 175.23 74.6735 175.183 75.0963 175.23C75.5251 175.283 75.9721 175.429 76.4493 175.693C76.9627 175.974 77.3371 176.291 77.5787 176.642C77.8203 176.994 77.9713 177.34 78.0257 177.692C78.08 178.055 78.0619 178.407 77.9713 178.741C77.8868 179.092 77.766 179.391 77.5968 179.672L75.6822 179.11C75.9057 178.729 76.0265 178.36 76.0446 178.049C76.0446 177.733 75.8573 177.469 75.4648 177.252C75.2594 177.135 75.0722 177.088 74.897 177.088C74.7279 177.105 74.5708 177.17 74.4198 177.252C74.2628 177.352 74.1299 177.469 74.0273 177.604C73.9246 177.756 73.8219 177.885 73.7192 178.055C73.6165 178.237 73.532 178.407 73.4776 178.553C73.4112 178.688 73.3931 178.852 73.4233 179.034C73.4414 179.215 73.5259 179.415 73.6467 179.649C73.7857 179.883 73.9729 180.165 74.2447 180.481C74.6192 180.944 74.8789 181.343 75.048 181.712C75.2171 182.093 75.2896 182.445 75.2896 182.773C75.2896 183.101 75.2232 183.435 75.0842 183.769C74.9514 184.068 74.7581 184.437 74.5225 184.836Z" fill="white"/>
<path d="M85.6295 193.141L87.4476 188.089L85.3215 187.374L83.5095 192.426L81.6613 191.793L85.8228 180.247L87.671 180.88L85.9255 185.697L88.0455 186.43L89.791 181.595L91.6393 182.21L87.4838 193.774L85.6295 193.141Z" fill="white"/>
<path d="M102.07 186.23L100.372 196.563L98.4397 196.264L100.131 185.931L98.1317 185.615L98.4216 183.868L104.365 184.782L104.069 186.547L102.07 186.23Z" fill="white"/>
<path d="M126.193 196.662C125.166 196.796 124.363 196.662 123.795 196.228C123.228 195.777 122.871 195.079 122.732 194.101L121.808 188.07C121.742 187.618 121.724 187.191 121.772 186.774C121.826 186.358 121.941 185.977 122.146 185.643C122.334 185.309 122.611 185.028 122.968 184.794C123.324 184.559 123.771 184.413 124.339 184.331C125.348 184.178 126.139 184.331 126.682 184.764C127.25 185.216 127.57 185.843 127.709 186.657L127.727 186.792L125.879 187.443C125.813 186.991 125.674 186.646 125.468 186.394C125.245 186.142 124.955 186.042 124.58 186.095C124.357 186.13 124.188 186.194 124.049 186.311C123.928 186.429 123.844 186.563 123.789 186.71C123.723 186.874 123.705 187.044 123.687 187.208C123.687 187.39 123.705 187.542 123.723 187.689L124.665 193.854C124.683 193.972 124.719 194.106 124.768 194.206C124.834 194.423 124.955 194.587 125.112 194.757C125.281 194.909 125.523 194.956 125.867 194.909C126.211 194.857 126.465 194.745 126.652 194.528C126.821 194.329 126.894 194.077 126.839 193.778L126.477 191.387L125.348 191.551L125.106 189.922L128.168 189.47L128.748 193.339C128.905 194.288 128.73 195.05 128.253 195.613C127.776 196.175 127.081 196.527 126.193 196.662Z" fill="white"/>
<path d="M137.493 181.333C138.472 180.998 139.305 181.016 140.042 181.368C140.779 181.702 141.359 182.464 141.787 183.659C142.047 184.392 142.162 185.037 142.132 185.605C142.096 186.185 141.86 186.701 141.431 187.182L145.025 191.753L143.14 192.386L139.903 188.113L139.027 188.412L140.724 193.195L138.876 193.81L134.769 182.247L137.493 181.333ZM137.215 183.308L138.411 186.695L139.166 186.431C139.643 186.279 139.951 186.033 140.09 185.681C140.211 185.33 140.175 184.849 139.969 184.251C139.782 183.718 139.523 183.355 139.184 183.12C138.858 182.903 138.447 182.886 137.934 183.056L137.215 183.308Z" fill="white"/>
<path d="M157.372 182.246C157.922 183.178 158.127 183.993 157.97 184.708C157.813 185.423 157.287 186.038 156.363 186.536C155.439 187.052 154.636 187.198 153.947 186.97C153.265 186.753 152.679 186.22 152.166 185.358L149.031 180.007C148.789 179.591 148.602 179.193 148.499 178.777C148.397 178.378 148.379 177.997 148.445 177.628C148.499 177.264 148.668 176.913 148.922 176.596C149.182 176.262 149.538 175.981 150.015 175.717C150.511 175.436 150.976 175.266 151.386 175.201C151.797 175.149 152.19 175.184 152.534 175.319C152.878 175.453 153.204 175.67 153.494 175.952C153.784 176.25 154.062 176.614 154.316 177.065L157.372 182.246ZM152.558 177.874C152.389 177.575 152.166 177.341 151.888 177.194C151.616 177.03 151.308 177.042 150.927 177.247C150.74 177.364 150.601 177.499 150.517 177.663C150.45 177.815 150.414 177.979 150.414 178.144C150.432 178.308 150.468 178.478 150.535 178.642C150.589 178.806 150.674 178.976 150.74 179.105L153.893 184.438C154.05 184.719 154.267 184.919 154.545 185.071C154.805 185.206 155.113 185.188 155.469 184.989C155.814 184.807 155.983 184.555 156.001 184.239C156.019 183.922 155.916 183.606 155.729 183.278L152.558 177.874Z" fill="white"/>
<path d="M163.702 166.248L169.76 173.176C170.461 173.99 170.805 174.752 170.805 175.485C170.787 176.2 170.394 176.897 169.573 177.56C168.769 178.222 167.996 178.509 167.278 178.421C166.559 178.322 165.876 177.906 165.224 177.161L159.045 170.07L160.537 168.839L166.734 175.948C166.957 176.2 167.199 176.364 167.507 176.446C167.797 176.546 168.087 176.464 168.395 176.212C168.703 175.96 168.824 175.678 168.769 175.362C168.733 175.063 168.582 174.764 168.322 174.483L162.21 167.473L163.702 166.248Z" fill="white"/>
<path d="M170.913 158.719C171.65 157.84 172.417 157.389 173.227 157.36C174.03 157.324 174.954 157.723 175.999 158.555C176.464 158.919 176.838 159.288 177.146 159.669C177.436 160.05 177.642 160.431 177.744 160.847C177.847 161.263 177.829 161.697 177.708 162.124C177.587 162.576 177.316 163.039 176.905 163.519L176.391 164.117L180.142 167.089L178.91 168.565L169.15 160.806L170.913 158.719ZM171.801 160.46L174.954 162.968L175.401 162.453C175.775 162.001 175.914 161.574 175.794 161.193C175.673 160.794 175.347 160.396 174.803 159.962C174.326 159.581 173.879 159.364 173.468 159.311C173.039 159.259 172.647 159.464 172.272 159.909L171.801 160.46Z" fill="white"/>
<path d="M61.3714 57.5443C61.764 57.9428 62.0901 58.3237 62.3317 58.7223C62.5733 59.1032 62.7062 59.4842 62.7606 59.871C62.8149 60.2578 62.7425 60.6505 62.5915 61.049C62.4223 61.4476 62.1143 61.8461 61.6855 62.2446C61.311 62.608 60.9124 62.8776 60.5198 63.0241C60.1272 63.1882 59.7467 63.2586 59.3722 63.241C58.9977 63.2234 58.6353 63.1237 58.291 62.9421C57.9468 62.7604 57.6387 62.5084 57.3307 62.227L58.4783 60.6329C58.8225 60.9494 59.1487 61.1487 59.4688 61.2483C59.795 61.3479 60.103 61.2483 60.4292 60.9494C60.6345 60.7677 60.7372 60.586 60.7916 60.4161C60.8278 60.2344 60.8097 60.0644 60.7553 59.8827C60.6889 59.7186 60.5862 59.5487 60.4473 59.3846C60.3084 59.2205 60.1574 59.0505 59.9822 58.8864C59.7769 58.6695 59.5896 58.5054 59.4145 58.3882C59.2393 58.271 59.0702 58.2065 58.9011 58.1714C58.7319 58.1362 58.5266 58.1362 58.3212 58.1889C58.1159 58.2534 57.8562 58.3237 57.5481 58.441C56.932 58.6754 56.4005 58.8219 55.9536 58.8922C55.4885 58.9567 55.0959 58.945 54.7577 58.8747C54.4134 58.7926 54.1054 58.6578 53.8336 58.4761C53.5618 58.2769 53.2658 58.0424 52.994 57.7611C52.6497 57.4095 52.3598 57.0461 52.1545 56.6651C51.9491 56.2842 51.8283 55.915 51.7921 55.5164C51.7558 55.1355 51.8283 54.7545 51.9974 54.3677C52.1545 53.9867 52.4263 53.6058 52.8189 53.2366C53.2477 52.838 53.6584 52.5743 54.0691 52.4395C54.4798 52.3047 54.8724 52.2578 55.2348 52.3047C55.6093 52.3574 55.9536 52.4571 56.2616 52.6388C56.5697 52.8204 56.8415 53.0197 57.0649 53.2541L55.9838 54.8834C55.6576 54.567 55.3496 54.3677 55.0234 54.2681C54.7154 54.1684 54.3892 54.2681 54.0631 54.5845C53.894 54.7487 53.7913 54.901 53.755 55.0651C53.7188 55.2292 53.7369 55.3816 53.7913 55.5457C53.8457 55.7098 53.9121 55.8798 54.0329 56.0087C54.1356 56.1611 54.2564 56.29 54.3772 56.4248C54.5342 56.5772 54.6671 56.6886 54.806 56.7882C54.9449 56.8878 55.0959 56.9523 55.2831 56.9699C55.4523 56.9875 55.6757 56.9699 55.9536 56.9171C56.2133 56.8644 56.5515 56.7531 56.9441 56.6007C57.4938 56.3662 57.9709 56.2373 58.3816 56.1845C58.7923 56.1318 59.1668 56.1494 59.493 56.2373C59.8191 56.3369 60.1272 56.4893 60.4171 56.7179C60.7372 56.9465 61.0452 57.2102 61.3714 57.5443Z" fill="white"/>
<path d="M69.6782 55.5797L62.4363 45.5811L64.0248 44.4852L71.2848 54.5013L69.6782 55.5797Z" fill="white"/>
<path d="M76.4362 43.2886L79.6193 49.7179L77.8556 50.5326L72.3955 39.5026L73.99 38.7699L76.9859 41.4132C77.2274 41.63 77.463 41.8645 77.7046 42.0637C77.9462 42.2806 78.1818 42.4974 78.4415 42.7143L79.7763 43.9743C79.7944 43.9568 79.8125 43.9568 79.8125 43.9392C79.8125 43.9392 79.8307 43.9216 79.8488 43.9216L76.6839 37.5099L78.4113 36.7128L83.8714 47.7428L82.3312 48.4579L79.3354 45.8322C78.8582 45.3985 78.375 44.9707 77.916 44.5546C77.4509 44.1209 76.9919 43.7047 76.5147 43.2769L76.4362 43.2886Z" fill="white"/>
<path d="M90.6118 32.5754C91.1071 32.4406 91.5722 32.4112 91.9648 32.4406C92.3574 32.4933 92.7198 32.5929 93.0278 32.7746C93.3358 32.9563 93.5774 33.1907 93.7828 33.5072C93.9881 33.8061 94.1452 34.1578 94.2479 34.5563L92.5386 35.4882C92.4178 35.0545 92.2486 34.7263 92.007 34.4918C91.7655 34.275 91.4574 34.2105 91.0829 34.2926C90.8595 34.357 90.6904 34.445 90.5877 34.5739C90.4669 34.7087 90.4004 34.8376 90.3642 35.0076C90.3098 35.1717 90.3098 35.3417 90.328 35.5058C90.3461 35.6699 90.3642 35.8398 90.4125 35.9863L92.0373 41.9995C92.0735 42.1168 92.1218 42.234 92.1762 42.3629C92.2426 42.4977 92.3332 42.6149 92.4359 42.7146C92.5386 42.8142 92.6775 42.8787 92.8285 42.9314C92.9855 42.9666 93.1728 42.9666 93.3781 42.9138C94.0787 42.7321 94.2841 42.1519 94.0485 41.1849C94.3747 41.1497 94.7009 41.1204 95.027 41.0853C95.3532 41.0325 95.6793 41.0032 96.0055 40.968C96.229 41.8647 96.1746 42.6266 95.8364 43.2772C95.4921 43.9277 94.8458 44.3732 93.9036 44.6252C92.8949 44.8772 92.0916 44.8245 91.4695 44.4435C90.8534 44.0801 90.4246 43.412 90.1709 42.4684L88.5643 36.5724C88.4435 36.1387 88.3771 35.7109 88.3771 35.2948C88.3589 34.8787 88.4314 34.4801 88.5824 34.1343C88.7395 33.7827 88.975 33.4721 89.3193 33.2025C89.6213 32.927 90.0682 32.7102 90.6118 32.5754Z" fill="white"/>
<path d="M103.9 42.6418L102.873 30.4454L108.454 30L108.611 31.7758L104.981 32.0571L105.253 35.3802L108.418 35.1341L108.575 36.9451L105.404 37.1912L105.7 40.7136L109.33 40.4322L109.481 42.1905L103.9 42.6418Z" fill="white"/>
<path d="M131.28 33.7267C131.008 33.674 130.767 33.7443 130.543 33.9612C130.32 34.1604 130.133 34.5765 129.976 35.1919L128.164 34.559C128.405 33.545 128.846 32.8124 129.48 32.3846C130.115 31.9333 130.87 31.8044 131.709 32.0037C132.688 32.2205 133.334 32.6366 133.624 33.2344C133.932 33.8322 133.986 34.5648 133.781 35.4264C133.66 35.9597 133.509 36.4051 133.285 36.8037C133.062 37.1846 132.772 37.5832 132.41 37.9993L128.78 42.1839L131.878 42.8813L131.467 44.6103L126.177 43.4322L126.551 41.8205C127.306 40.959 128.055 40.1092 128.81 39.2593C129.547 38.3978 130.284 37.548 131.039 36.6864C131.28 36.4344 131.449 36.1531 131.552 35.8718C131.673 35.5905 131.757 35.2916 131.842 34.9751C131.86 34.8755 131.878 34.7582 131.896 34.6234C131.914 34.4886 131.896 34.3714 131.86 34.2601C131.824 34.1487 131.757 34.0256 131.673 33.926C131.588 33.8264 131.449 33.756 131.28 33.7267Z" fill="white"/>
<path d="M144.851 46.7797C144.694 47.1607 144.476 47.4596 144.217 47.7116C143.945 47.9461 143.649 48.1277 143.329 48.2274C143.021 48.3446 142.676 48.3798 142.338 48.3622C141.976 48.327 141.638 48.2449 141.293 48.0984C140.931 47.946 140.623 47.7644 140.369 47.5358C140.097 47.3014 139.904 47.0376 139.771 46.7387C139.632 46.4398 139.566 46.1233 139.566 45.76C139.548 45.4083 139.632 45.0449 139.807 44.6816L142.767 38.0178C142.936 37.6545 143.16 37.338 143.419 37.086C143.691 36.834 143.987 36.6698 144.307 36.5526C144.615 36.453 144.96 36.4003 145.316 36.4178C145.66 36.4354 146.017 36.535 146.379 36.6816C147.116 36.9805 147.629 37.4435 147.919 38.0589C148.191 38.6742 148.161 39.3717 147.816 40.1336L144.851 46.7797ZM146.071 39.3014C146.155 39.0845 146.174 38.8852 146.089 38.7035C146.004 38.5219 145.847 38.3871 145.642 38.2874C145.419 38.2054 145.213 38.1878 145.008 38.2523C144.802 38.3167 144.664 38.4515 144.561 38.6684L141.547 45.4493C141.444 45.6662 141.444 45.8655 141.529 46.0471C141.613 46.2288 141.789 46.3636 142.006 46.4633C142.211 46.5453 142.417 46.5629 142.604 46.4984C142.791 46.434 142.948 46.2992 143.033 46.0823L146.071 39.3014Z" fill="white"/>
<path d="M152.727 54.0114L158.501 45.607L156.309 45.7886L157.475 44.0949L159.818 43.8956L161.322 44.8744L154.34 55.0546L152.727 54.0114Z" fill="white"/>
<path d="M162.766 61.7913L161.377 60.4961L171.101 55.0338L169.802 53.8031L168.86 54.7466L167.628 53.5862L169.815 51.3943L173.807 55.1452L172.659 56.2939L162.766 61.7913Z" fill="white"/>
</svg>
