<svg width="204" height="204" viewBox="0 0 204 204" fill="none" xmlns="http://www.w3.org/2000/svg">
<rect x="3" y="3" width="198" height="198" rx="99" stroke="white" stroke-width="6"/>
<circle cx="102" cy="102" r="96" fill="#AA181A"/>
<path d="M55.3927 53.2355L54.2241 52.1226L51.993 54.4387L49.6709 52.2279L51.5984 50.2126L50.3994 49.0847L48.472 51.0999L46.2561 49.0245L48.4871 46.7085L47.3185 45.5956L43.8885 49.1599L51.9779 56.7848L55.3927 53.2355Z" fill="white"/>
<path d="M43.6626 67.7646L38.2141 64.3056L38.2596 64.2455L40.2781 64.7117L42.4636 65.1629L43.01 64.2906L41.7503 62.5611L40.4603 60.9067L40.4906 60.8616L45.9088 64.3056L46.8346 62.8468L37.44 56.8913L36.5446 58.2749L38.5024 60.9368L40.1264 63.0273L40.0808 63.0874L37.5614 62.531L34.2377 61.8392L33.327 63.2378L42.7217 69.2084L43.6626 67.7646Z" fill="white"/>
<path d="M60.6589 48.8912L62.0856 47.8836C61.9186 47.5377 61.7517 47.1918 61.5695 46.8309C61.4026 46.4699 61.2356 46.124 61.0687 45.7631L62.7382 44.59L64.438 46.2143L65.8798 45.2066L57.5628 37.4915L55.9995 38.5894C56.7736 40.3189 57.5476 42.0333 58.3216 43.7478C59.1109 45.4473 59.8849 47.1617 60.6589 48.8912ZM58.3216 40.0933L61.5999 43.417L60.3554 44.2892C60.0063 43.5674 59.6572 42.8755 59.3082 42.1837C58.9591 41.507 58.61 40.8152 58.2458 40.1384L58.3216 40.0933Z" fill="white"/>
<path d="M43.6314 136.128L36.3008 140.308C36.0276 140.459 35.7545 140.534 35.4661 140.519C35.1777 140.504 34.9501 140.354 34.7679 140.038C34.6921 139.887 34.6465 139.707 34.6465 139.466C34.6465 139.241 34.7072 139.03 34.7983 138.835L33.2958 138.218C33.0529 138.654 32.9467 139.105 32.977 139.556C32.9922 140.008 33.1288 140.444 33.3717 140.85C33.8118 141.617 34.3733 142.068 35.026 142.218C35.6937 142.369 36.4222 142.218 37.2115 141.767L44.4813 137.616L43.6314 136.128Z" fill="white"/>
<path d="M32.5825 102.771C32.1727 102.515 32.279 102.665 31.2469 102.47L29.8051 102.109L29.1373 101.748L29.8051 101.387L31.2469 101.086C32.3245 100.876 32.1727 100.981 32.6432 100.725C32.9012 100.53 33.3717 99.853 33.0075 99.1913C32.5977 98.5296 31.7781 98.5898 31.4746 98.7853C31.0193 98.9808 31.2166 98.9808 30.5488 99.7478L29.5167 100.816L28.849 101.222V100.455L29.3194 99.0259C29.6837 98.0032 29.6837 98.2138 29.6837 97.7024C29.6837 97.3415 29.3194 96.6347 28.5606 96.6347C27.7866 96.6347 27.4223 97.3565 27.4223 97.7024C27.4223 98.2138 27.4223 98.0032 27.7866 99.0259L28.2419 100.455V101.222L27.5741 100.816L26.6027 99.7478C25.8742 98.8905 26.026 98.9808 25.6314 98.7402C25.3279 98.5898 24.4931 98.5296 24.0833 99.1913C23.7191 99.853 24.1896 100.515 24.4931 100.725C24.9029 100.981 24.7511 100.876 25.8287 101.026L27.2705 101.387L27.8928 101.748L27.2705 102.109L25.8287 102.41C24.7511 102.605 24.9029 102.515 24.4324 102.771C24.1744 102.981 23.7191 103.643 24.0682 104.305C24.4779 104.966 25.3127 104.921 25.6162 104.711C26.0715 104.5 25.8742 104.605 26.542 103.748L27.5741 102.68L28.2419 102.319V103.041L27.7866 104.47C27.4223 105.493 27.4223 105.282 27.4223 105.794C27.4223 106.154 27.7866 106.861 28.5606 106.861C29.3346 106.861 29.6837 106.154 29.6837 105.794C29.6837 105.282 29.6382 105.448 29.3194 104.47L28.849 103.041V102.319L29.5167 102.68L30.5033 103.748C31.2166 104.62 31.0648 104.515 31.4898 104.771C31.7933 104.921 32.6281 104.981 33.0227 104.32C33.3414 103.643 32.8861 102.981 32.5825 102.771Z" fill="white"/>
<path d="M168.184 141.377L159.897 136.67L159.047 138.159L168.73 143.663L171.128 139.512L169.732 138.715L168.184 141.377Z" fill="white"/>
<path d="M179.505 102.771C179.095 102.515 179.201 102.665 178.169 102.47L176.727 102.109L176.06 101.748L176.727 101.387L178.169 101.086C179.247 100.876 179.095 100.981 179.566 100.725C179.824 100.53 180.279 99.853 179.93 99.1913C179.52 98.5296 178.685 98.5898 178.382 98.7853C177.926 98.9808 178.124 98.9808 177.456 99.7478L176.424 100.816L175.756 101.222V100.455L176.227 99.0259C176.591 98.0032 176.591 98.2138 176.591 97.7024C176.591 97.3415 176.227 96.6347 175.453 96.6347C174.679 96.6347 174.329 97.3565 174.329 97.7024C174.329 98.2138 174.329 98.0032 174.679 99.0259L175.149 100.455V101.222L174.481 100.816L173.51 99.7478C172.781 98.8905 172.948 98.9808 172.523 98.7251C172.22 98.5747 171.385 98.5146 170.975 99.1763C170.611 99.838 171.082 100.5 171.385 100.71C171.795 100.966 171.643 100.861 172.721 101.011L174.163 101.372L174.785 101.733L174.163 102.094L172.721 102.395C171.643 102.59 171.795 102.5 171.34 102.756C171.082 102.966 170.626 103.628 170.975 104.29C171.385 104.951 172.205 104.906 172.508 104.696C172.979 104.485 172.766 104.59 173.434 103.733L174.466 102.665L175.134 102.304V103.026L174.663 104.455C174.314 105.478 174.314 105.267 174.314 105.779C174.314 106.139 174.663 106.846 175.437 106.846C176.211 106.846 176.576 106.139 176.576 105.779C176.576 105.267 176.53 105.418 176.211 104.455L175.741 103.026V102.304L176.409 102.665L177.38 103.733C178.109 104.605 177.957 104.5 178.351 104.756C178.655 104.906 179.49 104.966 179.899 104.305C180.279 103.643 179.824 102.981 179.505 102.771Z" fill="white"/>
<path d="M119.044 37.2972C119.939 37.5529 120.668 37.4927 121.229 37.1468C121.776 36.7859 122.185 36.1543 122.459 35.2218L124.735 27.3112L123.066 26.845L120.774 34.8458C120.668 35.1767 120.531 35.4324 120.319 35.6279C120.106 35.8084 119.833 35.8535 119.499 35.7632C119.15 35.673 118.953 35.4925 118.877 35.2369C118.801 34.9812 118.801 34.7105 118.877 34.4398L121.199 26.3336L119.529 25.8674L117.207 33.9435C116.964 34.8007 116.98 35.5226 117.268 36.0791C117.556 36.6355 118.148 37.0416 119.044 37.2972Z" fill="white"/>
<path d="M154.069 59.1926L155.298 58.1399L153.188 55.7336L155.632 53.6281L157.468 55.7336L158.713 54.6658L156.876 52.5603L159.168 50.5751L161.293 52.9965L162.522 51.9437L159.274 48.229L150.821 55.4779L154.069 59.1926Z" fill="white"/>
<path d="M86.8241 68.6045H75.8359V72.4696H86.8241V68.6045Z" fill="white"/>
<path d="M159.499 66.592L163.384 64.1255L163.824 64.8023L160.713 68.4869L161.669 69.9608L164.978 65.9152C165.479 66.1859 165.995 66.2762 166.511 66.1709C167.027 66.0806 167.573 65.84 168.18 65.464C169.136 64.8474 169.698 64.1857 169.85 63.4939C170.001 62.7871 169.835 62.0652 169.349 61.3132L167.968 59.1776L158.573 65.1482L159.499 66.592ZM167.528 61.4786L167.892 62.0351C168.15 62.4411 168.226 62.8021 168.089 63.133C167.968 63.4638 167.679 63.7496 167.254 64.0353C166.769 64.3511 166.359 64.4865 166.025 64.4414C165.691 64.3963 165.403 64.2007 165.16 63.8248L164.781 63.2382L167.528 61.4786Z" fill="white"/>
<path d="M142.823 48.7113C143.445 49.1926 144.098 49.4332 144.766 49.3731C145.434 49.328 146.041 48.967 146.587 48.2752L148.788 45.4929L146.633 43.8085L145.692 44.9816L146.481 45.5982L145.13 47.3127C144.963 47.5232 144.751 47.6436 144.508 47.6586C144.265 47.6736 144.022 47.5834 143.779 47.3879C143.536 47.1924 143.415 47.0119 143.43 46.8014C143.43 46.6059 143.491 46.4254 143.582 46.2449C143.628 46.1396 143.688 46.0494 143.749 45.9592L147.255 41.5376C147.346 41.4323 147.437 41.3271 147.558 41.2218C147.665 41.1165 147.801 41.0263 147.938 40.9661C148.074 40.906 148.211 40.8759 148.363 40.8909C148.515 40.906 148.666 40.9661 148.833 41.0864C149.091 41.297 149.213 41.5376 149.167 41.8384C149.137 42.1242 148.985 42.44 148.727 42.7558L150.275 43.5378L150.351 43.4326C150.822 42.846 151.034 42.2294 150.988 41.6128C150.943 40.9962 150.548 40.3946 149.835 39.8382C149.44 39.5374 149.061 39.3419 148.697 39.2667C148.332 39.1765 147.968 39.1765 147.634 39.2667C147.285 39.3419 146.967 39.5073 146.663 39.7329C146.359 39.9585 146.086 40.2442 145.813 40.5601L142.383 44.8914C141.821 45.5982 141.579 46.2599 141.624 46.8916C141.7 47.5383 142.095 48.1398 142.823 48.7113Z" fill="white"/>
<path d="M51.7046 146.792C51.3858 146.431 51.0671 146.175 50.7332 146.01C50.3993 145.844 50.0503 145.769 49.7164 145.769C49.3825 145.784 49.0486 145.875 48.6995 146.025C48.3656 146.19 48.0165 146.416 47.6978 146.702L43.4482 150.341C42.7652 150.928 42.3858 151.529 42.3099 152.161C42.2341 152.793 42.4921 153.454 43.1143 154.161C43.7214 154.868 44.3588 155.214 45.0266 155.229C45.6944 155.229 46.3926 154.913 47.1211 154.281L51.2493 150.732C51.5983 150.431 51.8715 150.131 52.0992 149.83C52.3117 149.529 52.4482 149.213 52.509 148.897C52.5697 148.582 52.5393 148.236 52.4027 147.89C52.2661 147.544 52.0385 147.168 51.7046 146.792ZM50.7029 148.657C50.5966 148.912 50.4449 149.153 50.202 149.349L45.9069 153.033C45.6489 153.259 45.3757 153.394 45.1025 153.439C44.8142 153.484 44.5562 153.379 44.3285 153.108C44.0857 152.838 44.025 152.582 44.1008 152.326C44.1767 152.071 44.3285 151.845 44.5561 151.65L48.7906 148.01C48.8968 147.92 49.0182 147.83 49.17 147.739C49.3066 147.649 49.4584 147.589 49.5949 147.559C49.7467 147.529 49.8985 147.529 50.0351 147.559C50.1869 147.589 50.3386 147.694 50.46 147.845C50.7181 148.13 50.7939 148.401 50.7029 148.657Z" fill="white"/>
<path d="M144.143 129.377V80.0964L148.271 80.1114V76.4721H136.205V80.1114H140.334V129.377H144.143Z" fill="white"/>
<path d="M137.419 164.851C137.374 164.339 137.192 163.768 136.873 163.136C136.342 162.128 135.735 161.512 135.052 161.301C134.369 161.091 133.61 161.181 132.806 161.602L130.529 162.745L135.613 172.596L137.161 171.814L135.052 167.738L135.78 167.362L139.165 170.791L140.728 169.994L136.979 166.339C137.328 165.873 137.465 165.377 137.419 164.851ZM135.644 165.166C135.568 165.497 135.34 165.753 134.93 165.963L134.308 166.279L132.821 163.392L133.428 163.091C133.853 162.88 134.232 162.85 134.551 163.001C134.87 163.151 135.143 163.452 135.37 163.918C135.613 164.414 135.704 164.835 135.644 165.166Z" fill="white"/>
<path d="M132.852 37.2674L133.58 37.6434L132.761 42.3657L134.339 43.1628L135.143 38.0194C135.72 38.0043 136.206 37.8239 136.6 37.478C136.995 37.1321 137.359 36.6508 137.678 36.0342C138.194 35.0266 138.346 34.1844 138.133 33.5076C137.906 32.8308 137.39 32.2744 136.57 31.8683L134.309 30.7103L129.209 40.561L130.757 41.343L132.852 37.2674ZM135.083 32.9361L135.69 33.2369C136.115 33.4474 136.357 33.7332 136.418 34.0791C136.464 34.425 136.388 34.816 136.145 35.2822C135.887 35.7936 135.599 36.1094 135.295 36.2447C134.976 36.3801 134.627 36.35 134.233 36.1395L133.61 35.8236L135.083 32.9361Z" fill="white"/>
<path d="M123.702 170.686L121.061 171.438L121.471 172.867L122.442 172.596L123.034 174.702C123.11 174.972 123.08 175.198 122.958 175.408C122.822 175.604 122.609 175.754 122.321 175.845C122.017 175.92 121.805 175.905 121.638 175.784C121.471 175.664 121.365 175.529 121.274 175.348C121.213 175.258 121.168 175.153 121.137 175.032L119.589 169.618C119.559 169.483 119.528 169.333 119.513 169.182C119.498 169.032 119.498 168.866 119.528 168.731C119.559 168.581 119.619 168.46 119.726 168.34C119.832 168.22 119.969 168.144 120.166 168.084C120.5 167.994 120.758 168.054 120.97 168.25C121.198 168.46 121.35 168.746 121.471 169.137L123.019 168.355L122.989 168.235C122.776 167.513 122.412 166.986 121.866 166.656C121.334 166.325 120.621 166.295 119.741 166.535C119.27 166.671 118.891 166.851 118.603 167.107C118.314 167.347 118.102 167.633 117.98 167.964C117.844 168.28 117.783 168.641 117.783 169.017C117.798 169.393 117.859 169.784 117.965 170.175L119.483 175.484C119.726 176.341 120.12 176.927 120.682 177.258C121.228 177.589 121.942 177.619 122.837 177.364C123.611 177.138 124.173 176.762 124.522 176.19C124.871 175.634 124.931 174.927 124.704 174.1L123.702 170.686Z" fill="white"/>
<path d="M91.4229 32.3056C91.4532 31.7642 91.4229 31.2679 91.3622 30.7866L89.8748 31.0573C89.9052 31.313 89.9355 31.5536 89.9355 31.7942C89.9507 32.0349 89.9355 32.2454 89.9052 32.4409L87.5982 29.6737C87.3251 29.3428 87.1126 29.027 86.9305 28.7413C86.7483 28.4555 86.6421 28.1848 86.5966 27.9442C86.551 27.7186 86.5814 27.493 86.6421 27.2524C86.718 27.0268 86.9001 26.8764 87.1885 26.8313C87.3858 26.8012 87.5831 26.8162 87.7652 26.8914C87.9625 26.9666 88.1143 27.1321 88.2509 27.3426L89.5257 26.3951C89.1918 25.8988 88.7972 25.583 88.3419 25.4326C87.9018 25.2822 87.3706 25.2522 86.7939 25.3574C86.46 25.4176 86.1564 25.5379 85.8984 25.7033C85.6404 25.8838 85.4279 26.0944 85.2761 26.35C85.1244 26.6057 85.0181 26.8914 84.9574 27.2073C84.9119 27.5231 84.9119 27.8539 84.9726 28.1998C85.0485 28.6059 85.1851 28.9969 85.3824 29.3428C85.5797 29.7038 85.777 30.0196 85.9895 30.2753L86.3689 30.7264C85.9743 31.2528 85.6859 31.7942 85.519 32.3206C85.3369 32.847 85.3065 33.4335 85.4127 34.0501C85.4886 34.4712 85.6252 34.8622 85.8073 35.1931C85.9895 35.524 86.2019 35.7947 86.46 36.0052C86.718 36.2158 87.0063 36.3662 87.3099 36.4564C87.6286 36.5466 87.9625 36.5466 88.2964 36.4865C88.6758 36.4113 89.0401 36.306 89.374 36.1406C89.7079 35.9751 90.0114 35.7044 90.2846 35.3134L90.8158 35.9451L92.6977 35.6142L91.1193 33.7493C91.3015 33.3282 91.3925 32.8319 91.4229 32.3056ZM88.9186 34.6968C88.7365 34.8322 88.5392 34.9224 88.3267 34.9525C87.9929 35.0126 87.7045 34.9224 87.4768 34.6667C87.2492 34.4261 87.0822 34.0952 87.0215 33.7193C86.9608 33.4185 86.976 33.1177 87.0519 32.847C87.1278 32.5612 87.2492 32.2604 87.4313 31.9597L89.374 34.2306C89.2526 34.4111 89.116 34.5615 88.9186 34.6968Z" fill="white"/>
<path d="M102.665 173.98C102.878 173.498 102.999 172.912 103.015 172.22C103.045 171.092 102.802 170.265 102.301 169.739C101.8 169.227 101.102 168.957 100.192 168.927L97.6419 168.851L97.3535 179.92L99.0837 179.965L99.2051 175.378L100.025 175.393L101.36 180.01L103.121 180.056L101.603 175.078C102.104 174.822 102.468 174.446 102.665 173.98ZM100.95 173.408C100.738 173.664 100.404 173.784 99.9488 173.769L99.2506 173.754L99.3265 170.506L99.9943 170.521C100.48 170.536 100.814 170.686 101.011 170.972C101.209 171.258 101.315 171.649 101.3 172.16C101.3 172.747 101.178 173.153 100.95 173.408Z" fill="white"/>
<path d="M106.627 24.1218L104.199 23.9413L103.364 34.9801L105.671 35.1606C106.688 35.2358 107.477 35.0252 108.008 34.5289C108.555 34.0326 108.858 33.2055 108.949 32.0475C108.995 31.476 108.934 30.9646 108.798 30.5135C108.646 30.0623 108.327 29.7314 107.857 29.5359L107.872 29.4607C108.327 29.2953 108.646 29.0396 108.858 28.6787C109.056 28.3177 109.192 27.8666 109.223 27.3552C109.298 26.3777 109.131 25.6257 108.737 25.0843C108.312 24.5128 107.614 24.197 106.627 24.1218ZM107.219 32.4986C107.174 32.7393 107.098 32.9197 106.991 33.0852C106.885 33.2506 106.749 33.3709 106.582 33.4612C106.415 33.5514 106.187 33.5815 105.899 33.5664L105.216 33.5213L105.474 30.0924L106.126 30.1375C106.597 30.1676 106.931 30.333 107.098 30.6037C107.265 30.8744 107.341 31.2654 107.295 31.7768C107.28 32.0174 107.249 32.258 107.219 32.4986ZM107.158 28.2877C106.931 28.5132 106.597 28.6035 106.142 28.5734L105.58 28.5283L105.808 25.6708L106.354 25.7159C106.825 25.746 107.158 25.8814 107.341 26.122C107.523 26.3626 107.599 26.7386 107.568 27.2349C107.523 27.7011 107.386 28.047 107.158 28.2877Z" fill="white"/>
<path d="M123.792 99.9018H120.438V76.4721H116.628V129.377H120.438V103.526H123.792V129.377H127.601V76.4721H123.792V99.9018Z" fill="white"/>
<path d="M101.756 75.8698C98.4778 75.8698 96.2619 78.1406 96.2619 81.7648V87.3591C96.2619 100.803 103.35 101.42 103.35 115.391V121.286C103.35 125.511 103.122 126.353 101.665 126.353C100.208 126.353 99.9955 125.511 99.9955 121.286V112.217H96.1861V124.083C96.1861 127.707 98.4778 129.978 101.68 129.978C104.883 129.978 107.098 127.707 107.174 124.083V115.09C107.174 101.405 100.087 101.029 100.087 86.8328V84.562C100.087 80.3362 100.314 79.4941 101.771 79.4941C103.228 79.4941 103.456 80.3212 103.456 84.562V91.3593H107.265V81.7648C107.25 78.1406 105.125 75.8698 101.756 75.8698Z" fill="white"/>
<path d="M86.8241 124.098V81.7648C86.8241 78.1406 84.6842 75.8698 81.33 75.8698C78.0518 75.8698 75.8359 78.1406 75.8359 81.7648V124.098C75.8359 127.722 77.9759 129.993 81.33 129.993C84.6083 129.993 86.8241 127.722 86.8241 124.098ZM81.33 126.353C79.4936 126.353 79.6454 124.759 79.6454 120.534V85.3139C79.6454 81.0731 79.4936 79.4941 81.33 79.4941C83.1665 79.4941 82.9995 81.0731 82.9995 85.3139V120.534C83.0147 124.774 83.1665 126.353 81.33 126.353Z" fill="white"/>
<path d="M68.93 32.9055L72.876 41.523L74.4545 40.8161L70.5236 32.1987L72.1627 31.4617L71.4949 30.0029L66.6383 32.1686L67.3061 33.6424L68.93 32.9055Z" fill="white"/>
<path d="M60.9778 75.8698C57.6995 75.8698 55.4837 78.1406 55.4837 81.7648V124.098C55.4837 127.722 57.6237 129.993 60.9778 129.993C64.2561 129.993 66.4719 127.722 66.4719 124.098V99.9161H60.826V103.54H62.6473V121.301C62.6473 125.526 62.4196 126.368 60.9626 126.368C59.5056 126.368 59.2931 125.526 59.2931 121.301V84.577C59.2931 80.3512 59.5208 79.5091 60.9626 79.5241C62.4196 79.5241 62.6321 80.3512 62.6321 84.592V93.6601H66.4567V81.7949C66.4719 78.1406 64.3319 75.8698 60.9778 75.8698Z" fill="white"/>
<path d="M81.951 177.531L86.7925 178.629L87.1416 177.065L84.0151 176.343L84.7284 173.23L87.4755 173.862L87.8397 172.267L85.1078 171.636L85.7908 168.688L88.9325 169.41L89.2967 167.846L84.4552 166.748L81.951 177.531Z" fill="white"/>
<path d="M159.245 153.255L152.036 147.059L150.898 148.353L159.336 155.602L162.508 151.992L161.279 150.939L159.245 153.255Z" fill="white"/>
<path d="M73.7108 162.882L71.4646 161.874L66.8659 171.965L68.4443 172.672L70.2049 168.807L70.8423 169.093C71.3735 169.318 71.844 169.454 72.2538 169.454C72.6636 169.454 73.043 169.364 73.3921 169.183C73.7411 169.003 74.0295 168.732 74.3027 168.386C74.5759 168.04 74.8035 167.634 75.0312 167.153C75.5169 166.085 75.6535 165.213 75.441 164.536C75.2285 163.844 74.6518 163.303 73.7108 162.882ZM73.4983 166.476C73.2555 167.033 72.9671 167.409 72.6484 167.589C72.3297 167.785 71.9199 167.769 71.4494 167.544L70.8878 167.288L72.3752 164.025L72.9671 164.28C73.4528 164.491 73.726 164.792 73.7715 165.153C73.817 165.559 73.726 165.98 73.4983 166.476Z" fill="white"/>
<path d="M61.8585 155.857C61.4639 155.571 61.0845 155.406 60.705 155.315C60.3256 155.24 59.9765 155.24 59.6274 155.33C59.2936 155.421 58.9597 155.586 58.6561 155.827C58.3526 156.067 58.0642 156.368 57.8062 156.729C57.6089 157.015 57.4419 157.286 57.3054 157.556C57.1839 157.827 57.1081 158.113 57.0929 158.429C57.0777 158.744 57.1384 159.09 57.275 159.466C57.3964 159.842 57.6241 160.278 57.9276 160.775C58.0794 161.015 58.1856 161.226 58.2615 161.406C58.3374 161.572 58.3829 161.737 58.3829 161.903C58.3829 162.053 58.3374 162.218 58.2615 162.384C58.1856 162.549 58.0794 162.745 57.9124 162.955C57.791 163.136 57.6696 163.286 57.5482 163.437C57.4268 163.587 57.2902 163.692 57.1384 163.783C56.9866 163.873 56.8349 163.903 56.6831 163.903C56.5161 163.903 56.334 163.828 56.1519 163.692C55.8332 163.452 55.6814 163.196 55.7118 162.91C55.7573 162.625 55.8787 162.294 56.1064 161.948L54.4976 161.226C54.2851 161.527 54.1182 161.842 54.0119 162.158C53.9057 162.489 53.8601 162.805 53.9057 163.136C53.9512 163.467 54.0726 163.783 54.2851 164.098C54.4824 164.414 54.786 164.7 55.1806 164.986C55.6055 165.286 56.0153 165.482 56.3947 165.557C56.7742 165.647 57.1384 165.632 57.4723 165.527C57.8214 165.422 58.1401 165.241 58.4436 164.956C58.7472 164.685 59.0507 164.339 59.3391 163.933C59.5819 163.602 59.7792 163.286 59.931 162.985C60.0828 162.7 60.1738 162.399 60.2042 162.098C60.2345 161.797 60.189 161.482 60.0828 161.136C59.9765 160.79 59.764 160.399 59.4757 159.963C59.2784 159.647 59.1114 159.376 59.0204 159.165C58.9293 158.94 58.8838 158.759 58.8686 158.594C58.8534 158.429 58.8838 158.278 58.9597 158.158C59.0204 158.023 59.1114 157.887 59.2328 157.737C59.3239 157.601 59.4301 157.481 59.5364 157.361C59.6426 157.24 59.7792 157.15 59.9158 157.075C60.0524 157 60.2042 156.97 60.3559 156.97C60.5077 156.97 60.6595 157.03 60.8416 157.15C61.1755 157.391 61.3273 157.647 61.2818 157.932C61.2362 158.218 61.1148 158.519 60.872 158.85L62.5111 159.526C62.678 159.286 62.8146 159.03 62.9209 158.729C63.0271 158.429 63.0727 158.113 63.0575 157.797C63.0423 157.481 62.9361 157.15 62.7539 156.819C62.587 156.489 62.2834 156.173 61.8585 155.857Z" fill="white"/>
<path d="M144.118 154.379L142.757 155.438L149.657 164.143L151.018 163.084L144.118 154.379Z" fill="white"/>
</svg>
