<svg width="72" height="48" viewBox="0 0 72 48" fill="none" xmlns="http://www.w3.org/2000/svg">
<path d="M0.5 4C0.5 2.067 2.067 0.5 4 0.5H68C69.933 0.5 71.5 2.067 71.5 4V44C71.5 45.933 69.933 47.5 68 47.5H4C2.06701 47.5 0.5 45.933 0.5 44V4Z" stroke="#CCCCCC" stroke-opacity="0.5"/>
<path d="M39.1743 17.9887H41V15.1267C40.685 15.0877 39.6018 15 38.3402 15C35.7079 15 33.9048 16.4902 33.9048 19.2292V21.75H31V24.9495H33.9048V33H37.4661V24.9502H40.2534L40.6959 21.7508H37.4653V19.5465C37.4661 18.6217 37.7428 17.9887 39.1743 17.9887Z" fill="white"/>
</svg>
