<svg width="136" height="136" viewBox="0 0 136 136" fill="none" xmlns="http://www.w3.org/2000/svg">
<path d="M27.3981 25.5209L26.38 24.5513L24.4364 26.569L22.4135 24.643L24.0927 22.8874L23.0481 21.9048L21.369 23.6604L19.4386 21.8524L21.3822 19.8348L20.3641 18.8652L17.376 21.9703L24.4232 28.6128L27.3981 25.5209Z" fill="white"/>
<path d="M17.1798 38.1797L12.4332 35.1664L12.4729 35.114L14.2314 35.5201L16.1353 35.9132L16.6113 35.1533L15.5139 33.6466L14.39 32.2054L14.4165 32.1661L19.1367 35.1664L19.9432 33.8955L11.7589 28.7073L10.9788 29.9126L12.6844 32.2316L14.0991 34.0527L14.0595 34.1051L11.8647 33.6204L8.96909 33.0177L8.17578 34.2362L16.3601 39.4375L17.1798 38.1797Z" fill="white"/>
<path d="M31.9878 21.7367L33.2307 20.8589C33.0852 20.5575 32.9398 20.2562 32.7811 19.9418C32.6357 19.6273 32.4902 19.326 32.3448 19.0115L33.7992 17.9896L35.28 19.4046L36.5361 18.5268L29.2906 11.8057L27.9287 12.7621C28.603 14.2688 29.2773 15.7624 29.9516 17.2559C30.6392 18.7364 31.3135 20.23 31.9878 21.7367ZM29.9516 14.0722L32.8076 16.9677L31.7234 17.7276C31.4193 17.0987 31.1152 16.496 30.8111 15.8934C30.507 15.3038 30.2029 14.7011 29.8855 14.1115L29.9516 14.0722Z" fill="white"/>
<path d="M17.1523 97.7307L10.7662 101.373C10.5282 101.504 10.2902 101.569 10.039 101.556C9.78778 101.543 9.58945 101.412 9.43079 101.137C9.36468 101.006 9.32502 100.849 9.32502 100.639C9.32502 100.443 9.37791 100.259 9.45724 100.089L8.14827 99.5518C7.93673 99.9318 7.84417 100.325 7.87062 100.718C7.88384 101.111 8.00284 101.491 8.21439 101.845C8.59782 102.513 9.08702 102.906 9.65556 103.037C10.2373 103.168 10.872 103.037 11.5595 102.644L17.8927 99.0278L17.1523 97.7307Z" fill="white"/>
<path d="M7.52786 68.6707C7.17087 68.4479 7.26342 68.5789 6.36434 68.4086L5.10827 68.0942L4.52651 67.7797L5.10827 67.4653L6.36434 67.2033C7.30309 67.0198 7.17087 67.1116 7.58075 66.8888C7.80552 66.7185 8.21539 66.1289 7.89807 65.5525C7.54108 64.976 6.8271 65.0284 6.56267 65.1987C6.16601 65.369 6.3379 65.369 5.75614 66.0372L4.85705 66.9674L4.2753 67.3212V66.653L4.68517 65.4083C5.00249 64.5174 5.00249 64.7009 5.00249 64.2554C5.00249 63.941 4.68517 63.3252 4.02408 63.3252C3.34977 63.3252 3.03245 63.9541 3.03245 64.2554C3.03245 64.7009 3.03245 64.5174 3.34977 65.4083L3.74642 66.653V67.3212L3.16466 66.9674L2.31847 66.0372C1.68382 65.2904 1.81604 65.369 1.47227 65.1594C1.20784 65.0284 0.480637 64.976 0.123648 65.5525C-0.193675 66.1289 0.216201 66.7054 0.480637 66.8888C0.837626 67.1116 0.705407 67.0198 1.64415 67.1509L2.90023 67.4653L3.44232 67.7797L2.90023 68.0942L1.64415 68.3562C0.705407 68.5265 0.837627 68.4479 0.427751 68.6707C0.202981 68.8541 -0.193676 69.4305 0.110426 70.007C0.467414 70.5835 1.19461 70.5442 1.45905 70.3608C1.8557 70.1773 1.68382 70.269 2.26558 69.5222L3.16466 68.592L3.74642 68.2776V68.9065L3.34977 70.1511C3.03245 71.042 3.03245 70.8586 3.03245 71.3041C3.03245 71.6185 3.34977 72.2343 4.02408 72.2343C4.69839 72.2343 5.00249 71.6185 5.00249 71.3041C5.00249 70.8586 4.96283 71.0027 4.68517 70.1511L4.2753 68.9065V68.2776L4.85705 68.592L5.71647 69.5222C6.3379 70.2821 6.20568 70.1904 6.57589 70.4132C6.84033 70.5442 7.56753 70.5966 7.91129 70.0201C8.18895 69.4305 7.79229 68.8541 7.52786 68.6707Z" fill="white"/>
<path d="M125.658 102.304L118.439 98.2029L117.698 99.4999L126.134 104.295L128.223 100.679L127.006 99.9847L125.658 102.304Z" fill="white"/>
<path d="M135.52 68.6707C135.163 68.4479 135.255 68.5789 134.356 68.4086L133.1 68.0942L132.518 67.7797L133.1 67.4653L134.356 67.2033C135.295 67.0198 135.163 67.1116 135.573 66.8888C135.797 66.7185 136.194 66.1289 135.89 65.5525C135.533 64.976 134.806 65.0284 134.541 65.1987C134.145 65.369 134.316 65.369 133.735 66.0372L132.836 66.9674L132.254 67.3212V66.653L132.664 65.4083C132.981 64.5174 132.981 64.7009 132.981 64.2554C132.981 63.941 132.664 63.3252 131.989 63.3252C131.315 63.3252 131.011 63.9541 131.011 64.2554C131.011 64.7009 131.011 64.5174 131.315 65.4083L131.725 66.653V67.3212L131.143 66.9674L130.297 66.0372C129.662 65.2904 129.808 65.369 129.438 65.1463C129.173 65.0153 128.446 64.9629 128.089 65.5394C127.772 66.1158 128.182 66.6923 128.446 66.8757C128.803 67.0985 128.671 67.0067 129.61 67.1378L130.866 67.4522L131.408 67.7666L130.866 68.0811L129.61 68.3431C128.671 68.5134 128.803 68.4348 128.406 68.6575C128.182 68.841 127.785 69.4174 128.089 69.9939C128.446 70.5704 129.16 70.5311 129.424 70.3477C129.834 70.1642 129.649 70.2559 130.231 69.5092L131.13 68.5789L131.712 68.2645V68.8934L131.302 70.138C130.998 71.0289 130.998 70.8455 130.998 71.291C130.998 71.6054 131.302 72.2212 131.976 72.2212C132.651 72.2212 132.968 71.6054 132.968 71.291C132.968 70.8455 132.928 70.9765 132.651 70.138L132.241 68.8934V68.2645L132.822 68.5789L133.669 69.5092C134.303 70.269 134.171 70.1773 134.515 70.4001C134.779 70.5311 135.506 70.5835 135.863 70.007C136.194 69.4305 135.797 68.8541 135.52 68.6707Z" fill="white"/>
<path d="M82.8484 11.6357C83.6285 11.8584 84.2631 11.806 84.7523 11.5047C85.2283 11.1902 85.5853 10.64 85.8233 9.82767L87.8066 2.93622L86.3522 2.53007L84.3557 9.50012C84.2631 9.78836 84.1441 10.0111 83.959 10.1814C83.7739 10.3386 83.5359 10.3779 83.2451 10.2993C82.941 10.2207 82.7691 10.0635 82.703 9.84077C82.6368 9.61804 82.6368 9.38221 82.703 9.14638L84.7259 2.08462L83.2715 1.67847L81.2486 8.71403C81.037 9.46082 81.0502 10.0897 81.3015 10.5745C81.5527 11.0592 82.0683 11.413 82.8484 11.6357Z" fill="white"/>
<path d="M113.362 30.7068L114.433 29.7897L112.595 27.6935L114.724 25.8592L116.323 27.6935L117.408 26.7633L115.808 24.929L117.804 23.1996L119.655 25.309L120.726 24.3919L117.897 21.1558L110.532 27.4707L113.362 30.7068Z" fill="white"/>
<path d="M54.7826 38.9092H45.21V42.2763H54.7826V38.9092Z" fill="white"/>
<path d="M118.092 37.1537L121.476 35.005L121.86 35.5946L119.149 38.8045L119.982 40.0884L122.865 36.5641C123.301 36.7999 123.751 36.8785 124.2 36.7868C124.65 36.7082 125.126 36.4986 125.655 36.1711C126.488 35.6339 126.977 35.0574 127.109 34.4547C127.241 33.839 127.096 33.2101 126.673 32.555L125.469 30.6946L117.285 35.8959L118.092 37.1537ZM125.086 32.6991L125.403 33.1839C125.628 33.5376 125.694 33.8521 125.575 34.1403C125.469 34.4285 125.218 34.6775 124.848 34.9264C124.425 35.2015 124.068 35.3194 123.777 35.2801C123.486 35.2408 123.235 35.0705 123.023 34.743L122.693 34.232L125.086 32.6991Z" fill="white"/>
<path d="M103.566 21.578C104.108 21.9973 104.676 22.2069 105.258 22.1545C105.84 22.1152 106.369 21.8008 106.845 21.1981L108.762 18.7743L106.884 17.3069L106.065 18.3288L106.752 18.866L105.576 20.3596C105.43 20.543 105.245 20.6478 105.033 20.6609C104.822 20.674 104.61 20.5954 104.399 20.4251C104.187 20.2548 104.081 20.0975 104.095 19.9141C104.095 19.7438 104.148 19.5866 104.227 19.4294C104.267 19.3377 104.319 19.259 104.372 19.1804L107.427 15.3286C107.506 15.2368 107.585 15.1451 107.691 15.0534C107.784 14.9617 107.903 14.8831 108.022 14.8307C108.141 14.7783 108.26 14.7521 108.392 14.7652C108.524 14.7783 108.656 14.8307 108.802 14.9355C109.026 15.1189 109.132 15.3286 109.093 15.5906C109.066 15.8395 108.934 16.1147 108.709 16.3898L110.058 17.0711L110.124 16.9794C110.534 16.4684 110.719 15.9312 110.679 15.3941C110.639 14.8569 110.296 14.3328 109.674 13.8481C109.331 13.586 109 13.4157 108.683 13.3502C108.365 13.2716 108.048 13.2716 107.757 13.3502C107.453 13.4157 107.175 13.5598 106.911 13.7564C106.646 13.9529 106.408 14.2018 106.171 14.477L103.182 18.2502C102.693 18.866 102.482 19.4425 102.521 19.9927C102.587 20.5561 102.931 21.0802 103.566 21.578Z" fill="white"/>
<path d="M24.1867 107.019C23.9091 106.705 23.6314 106.482 23.3405 106.338C23.0497 106.194 22.7456 106.128 22.4547 106.128C22.1638 106.142 21.8729 106.22 21.5688 106.351C21.2779 106.495 20.9738 106.692 20.6962 106.941L16.9941 110.111C16.3991 110.622 16.0686 111.146 16.0024 111.697C15.9363 112.247 16.1611 112.823 16.7032 113.439C17.2321 114.055 17.7874 114.356 18.3691 114.369C18.9509 114.369 19.5591 114.094 20.1938 113.544L23.7901 110.452C24.0942 110.19 24.3322 109.928 24.5305 109.666C24.7156 109.404 24.8346 109.129 24.8875 108.854C24.9404 108.578 24.9139 108.277 24.7949 107.976C24.6759 107.674 24.4776 107.347 24.1867 107.019ZM23.3141 108.644C23.2215 108.867 23.0893 109.076 22.8778 109.247L19.136 112.456C18.9112 112.653 18.6732 112.771 18.4353 112.81C18.184 112.85 17.9593 112.758 17.7609 112.522C17.5494 112.286 17.4965 112.063 17.5626 111.841C17.6287 111.618 17.7609 111.421 17.9593 111.251L21.6482 108.081C21.7407 108.002 21.8465 107.923 21.9787 107.845C22.0977 107.766 22.2299 107.714 22.3489 107.688C22.4811 107.661 22.6133 107.661 22.7323 107.688C22.8646 107.714 22.9968 107.805 23.1025 107.936C23.3273 108.185 23.3934 108.421 23.3141 108.644Z" fill="white"/>
<path d="M104.717 91.853V48.9217L108.313 48.9348V45.7644H97.8018V48.9348H101.398V91.853H104.717Z" fill="white"/>
<path d="M98.8582 122.754C98.8185 122.309 98.6598 121.811 98.3822 121.261C97.9194 120.383 97.3906 119.846 96.7956 119.662C96.2006 119.479 95.5395 119.558 94.8387 119.924L92.8555 120.92L97.2848 129.502L98.6334 128.82L96.7956 125.27L97.4302 124.942L100.379 127.929L101.741 127.235L98.4747 124.051C98.7788 123.645 98.8978 123.213 98.8582 122.754ZM97.3112 123.029C97.2451 123.318 97.0468 123.54 96.6898 123.724L96.1477 123.999L94.852 121.483L95.3808 121.221C95.751 121.038 96.0816 121.012 96.3592 121.143C96.6369 121.274 96.8749 121.536 97.0732 121.942C97.2848 122.374 97.3641 122.741 97.3112 123.029Z" fill="white"/>
<path d="M94.8793 11.6093L95.5139 11.9368L94.8 16.0507L96.175 16.7451L96.8758 12.2644C97.3782 12.2513 97.8013 12.094 98.1451 11.7927C98.4888 11.4914 98.8062 11.0721 99.0838 10.5349C99.5334 9.65713 99.6656 8.92344 99.4805 8.33387C99.2821 7.7443 98.8326 7.25954 98.1186 6.9058L96.1486 5.89697L91.7061 14.4785L93.0547 15.1598L94.8793 11.6093ZM96.8229 7.83601L97.3518 8.09804C97.722 8.28147 97.9335 8.5304 97.9864 8.83173C98.0261 9.13307 97.96 9.47371 97.7484 9.87986C97.5236 10.3253 97.2724 10.6004 97.008 10.7184C96.7303 10.8363 96.4262 10.8101 96.0825 10.6267L95.5404 10.3515L96.8229 7.83601Z" fill="white"/>
<path d="M86.9065 127.838L84.6059 128.493L84.9629 129.738L85.8091 129.502L86.3247 131.336C86.3909 131.572 86.3644 131.769 86.2586 131.952C86.1396 132.123 85.9545 132.254 85.7033 132.332C85.4389 132.398 85.2538 132.385 85.1083 132.28C84.9629 132.175 84.8703 132.057 84.791 131.9C84.7381 131.821 84.6985 131.729 84.672 131.625L83.3234 126.908C83.2969 126.79 83.2705 126.659 83.2573 126.528C83.2441 126.397 83.2441 126.253 83.2705 126.135C83.2969 126.004 83.3498 125.899 83.4424 125.794C83.5349 125.69 83.6539 125.624 83.8258 125.572C84.1167 125.493 84.3415 125.546 84.5266 125.716C84.7249 125.899 84.8571 126.148 84.9629 126.489L86.3115 125.808L86.2851 125.703C86.1 125.074 85.7826 124.615 85.3067 124.327C84.8439 124.039 84.2225 124.013 83.4556 124.222C83.0457 124.34 82.7152 124.497 82.464 124.72C82.2128 124.93 82.0277 125.179 81.9219 125.467C81.8029 125.742 81.75 126.056 81.75 126.384C81.7632 126.712 81.8161 127.052 81.9087 127.393L83.2308 132.018C83.4424 132.765 83.7862 133.275 84.2754 133.564C84.7513 133.852 85.3728 133.878 86.1529 133.655C86.8272 133.459 87.3164 133.131 87.6205 132.633C87.9246 132.149 87.9775 131.533 87.7791 130.812L86.9065 127.838Z" fill="white"/>
<path d="M58.7858 7.28375C58.8122 6.81209 58.7858 6.37974 58.7329 5.96049L57.4371 6.19632C57.4636 6.41905 57.49 6.62867 57.49 6.8383C57.5033 7.04792 57.49 7.23135 57.4636 7.40167L55.4539 4.99097C55.2159 4.70274 55.0308 4.4276 54.8721 4.17867C54.7135 3.92974 54.6209 3.69391 54.5812 3.48429C54.5416 3.28776 54.568 3.09124 54.6209 2.88161C54.687 2.68509 54.8457 2.55407 55.0969 2.51476C55.2688 2.48856 55.4406 2.50166 55.5993 2.56717C55.7712 2.63268 55.9034 2.7768 56.0224 2.96022L57.133 2.13482C56.8422 1.70247 56.4984 1.42733 56.1017 1.29632C55.7183 1.1653 55.2555 1.1391 54.7531 1.23081C54.4622 1.28321 54.1978 1.38803 53.973 1.53214C53.7483 1.68936 53.5632 1.87279 53.4309 2.09551C53.2987 2.31824 53.2062 2.56717 53.1533 2.84231C53.1136 3.11744 53.1136 3.40567 53.1665 3.70701C53.2326 4.06075 53.3516 4.4014 53.5235 4.70273C53.6954 5.01717 53.8673 5.29231 54.0524 5.51503L54.3829 5.90808C54.0391 6.36664 53.7879 6.8383 53.6425 7.29685C53.4838 7.75541 53.4574 8.26637 53.5499 8.80354C53.616 9.17038 53.735 9.51103 53.8937 9.79926C54.0524 10.0875 54.2375 10.3233 54.4622 10.5067C54.687 10.6902 54.9382 10.8212 55.2027 10.8998C55.4803 10.9784 55.7712 10.9784 56.0621 10.926C56.3926 10.8605 56.7099 10.7688 57.0008 10.6247C57.2917 10.4805 57.5561 10.2447 57.7941 9.90407L58.2569 10.4543L59.8964 10.1661L58.5213 8.5415C58.68 8.17466 58.7593 7.74231 58.7858 7.28375ZM56.6042 9.36691C56.4455 9.48482 56.2736 9.56343 56.0885 9.58963C55.7976 9.64204 55.5464 9.56343 55.3481 9.3407C55.1498 9.13108 55.0043 8.84284 54.9514 8.5153C54.8986 8.25327 54.9118 7.99124 54.9779 7.75541C55.044 7.50648 55.1498 7.24444 55.3084 6.98241L57.0008 8.96076C56.895 9.11798 56.776 9.24899 56.6042 9.36691Z" fill="white"/>
<path d="M68.5808 130.707C68.7659 130.288 68.8716 129.777 68.8849 129.174C68.9113 128.191 68.6998 127.471 68.2634 127.012C67.8271 126.567 67.2189 126.331 66.4256 126.305L64.2043 126.239L63.9531 135.882L65.4604 135.921L65.5662 131.925L66.2802 131.938L67.4437 135.961L68.9774 136L67.6552 131.663C68.0916 131.441 68.4089 131.113 68.5808 130.707ZM67.0867 130.209C66.9016 130.432 66.6107 130.537 66.2141 130.523L65.6059 130.51L65.672 127.68L66.2537 127.694C66.6768 127.707 66.9677 127.838 67.1396 128.087C67.3115 128.336 67.404 128.676 67.3908 129.122C67.3908 129.633 67.285 129.986 67.0867 130.209Z" fill="white"/>
<path d="M72.036 0.15722L69.9206 0L69.1934 9.61658L71.2031 9.7738C72.0889 9.83931 72.7765 9.65588 73.2392 9.22353C73.7152 8.79118 73.9797 8.07059 74.059 7.06177C74.0987 6.56391 74.0458 6.11845 73.9268 5.7254C73.7945 5.33235 73.5169 5.04412 73.107 4.8738L73.1202 4.80829C73.5169 4.66417 73.7945 4.44145 73.9796 4.12701C74.1515 3.81257 74.2705 3.41952 74.297 2.97407C74.3631 2.12246 74.2176 1.46738 73.8739 0.995722C73.5037 0.497861 72.8955 0.222728 72.036 0.15722ZM72.5517 7.45481C72.512 7.66444 72.4459 7.82166 72.3534 7.96578C72.2608 8.10989 72.1418 8.21471 71.9964 8.29332C71.8509 8.37193 71.6526 8.39813 71.4014 8.38503L70.8064 8.34572L71.0312 5.35856L71.5997 5.39786C72.0096 5.42407 72.3005 5.56818 72.4459 5.80401C72.5914 6.03984 72.6575 6.38048 72.6178 6.82594C72.6046 7.03556 72.5781 7.24519 72.5517 7.45481ZM72.4988 3.78637C72.3005 3.98289 72.0096 4.0615 71.6129 4.03529L71.1237 3.99599L71.3221 1.50669L71.798 1.54599C72.2079 1.57219 72.4988 1.69011 72.6575 1.89973C72.8161 2.10936 72.8822 2.4369 72.8558 2.86925C72.8161 3.2754 72.6971 3.57674 72.4988 3.78637Z" fill="white"/>
<path d="M86.9878 66.1754H84.0657V45.7644H80.7471V91.853H84.0657V69.3327H86.9878V91.853H90.3064V45.7644H86.9878V66.1754Z" fill="white"/>
<path d="M67.7899 45.2351C64.934 45.2351 63.0036 47.2133 63.0036 50.3706V55.2441C63.0036 66.9562 69.1782 67.4934 69.1782 79.664V84.7995C69.1782 88.4808 68.9799 89.2145 67.7106 89.2145C66.4413 89.2145 66.2562 88.4808 66.2562 84.7995V76.8997H62.9375V87.2362C62.9375 90.3935 64.934 92.3717 67.7238 92.3717C70.5136 92.3717 72.444 90.3935 72.5101 87.2362V79.402C72.5101 67.4802 66.3355 67.1527 66.3355 54.7856V52.8074C66.3355 49.126 66.5338 48.3924 67.8031 48.3924C69.0724 48.3924 69.2707 49.1129 69.2707 52.8074V58.7289H72.5894V50.3706C72.5762 47.2133 70.7251 45.2351 67.7899 45.2351Z" fill="white"/>
<path d="M54.7826 87.2494V50.3706C54.7826 47.2133 52.9183 45.2351 49.9963 45.2351C47.1403 45.2351 45.21 47.2133 45.21 50.3706V87.2494C45.21 90.4067 47.0742 92.3849 49.9963 92.3849C52.8522 92.3849 54.7826 90.4067 54.7826 87.2494ZM49.9963 89.2145C48.3964 89.2145 48.5286 87.8258 48.5286 84.1445V53.4624C48.5286 49.768 48.3964 48.3924 49.9963 48.3924C51.5961 48.3924 51.4507 49.768 51.4507 53.4624V84.1445C51.4639 87.8389 51.5961 89.2145 49.9963 89.2145Z" fill="white"/>
<path d="M39.1938 7.80766L42.6314 15.3149L44.0065 14.6991L40.582 7.19189L42.01 6.54991L41.4282 5.27905L37.1973 7.16568L37.779 8.44964L39.1938 7.80766Z" fill="white"/>
<path d="M32.2658 45.2351C29.4099 45.2351 27.4795 47.2133 27.4795 50.3706V87.2494C27.4795 90.4067 29.3438 92.3849 32.2658 92.3849C35.1217 92.3849 37.0521 90.4067 37.0521 87.2494V66.1833H32.1336V69.3406H33.7202V84.8126C33.7202 88.4939 33.5219 89.2276 32.2526 89.2276C30.9833 89.2276 30.7982 88.4939 30.7982 84.8126V52.8205C30.7982 49.1391 30.9965 48.4055 32.2526 48.4186C33.5219 48.4186 33.707 49.1391 33.707 52.8336V60.7333H37.0389V50.3968C37.0521 47.2133 35.1878 45.2351 32.2658 45.2351Z" fill="white"/>
<path d="M50.5361 133.799L54.7539 134.756L55.058 133.393L52.3343 132.764L52.9557 130.052L55.3489 130.603L55.6662 129.214L53.2863 128.664L53.8813 126.096L56.6182 126.725L56.9355 125.362L52.7177 124.406L50.5361 133.799Z" fill="white"/>
<path d="M117.872 112.654L111.591 107.256L110.6 108.383L117.951 114.698L120.714 111.553L119.643 110.636L117.872 112.654Z" fill="white"/>
<path d="M43.3576 121.039L41.4007 120.161L37.3945 128.953L38.7696 129.568L40.3033 126.201L40.8586 126.45C41.3214 126.647 41.7313 126.765 42.0883 126.765C42.4453 126.765 42.7758 126.686 43.0799 126.529C43.384 126.372 43.6352 126.136 43.8732 125.834C44.1112 125.533 44.3095 125.179 44.5079 124.76C44.931 123.83 45.05 123.07 44.8649 122.48C44.6798 121.878 44.1773 121.406 43.3576 121.039ZM43.1725 124.17C42.9609 124.655 42.7097 124.983 42.432 125.14C42.1544 125.31 41.7974 125.297 41.3875 125.101L40.8983 124.878L42.194 122.035L42.7097 122.258C43.1328 122.441 43.3708 122.703 43.4105 123.018C43.4501 123.371 43.3708 123.738 43.1725 124.17Z" fill="white"/>
<path d="M33.0324 114.921C32.6886 114.672 32.3581 114.528 32.0276 114.45C31.697 114.384 31.3929 114.384 31.0888 114.463C30.7979 114.541 30.507 114.686 30.2426 114.895C29.9782 115.105 29.727 115.367 29.5022 115.681C29.3303 115.93 29.1849 116.166 29.0659 116.402C28.9601 116.638 28.894 116.887 28.8808 117.162C28.8675 117.437 28.9204 117.738 29.0394 118.066C29.1452 118.393 29.3435 118.773 29.608 119.206C29.7402 119.415 29.8327 119.599 29.8988 119.756C29.965 119.9 30.0046 120.044 30.0046 120.188C30.0046 120.319 29.965 120.463 29.8988 120.607C29.8327 120.752 29.7402 120.922 29.5947 121.105C29.489 121.263 29.3832 121.394 29.2774 121.525C29.1716 121.656 29.0526 121.747 28.9204 121.826C28.7882 121.905 28.656 121.931 28.5238 121.931C28.3783 121.931 28.2197 121.865 28.061 121.747C27.7834 121.538 27.6511 121.315 27.6776 121.066C27.7172 120.817 27.823 120.529 28.0213 120.228L26.6198 119.599C26.4347 119.861 26.2893 120.136 26.1967 120.411C26.1042 120.699 26.0645 120.974 26.1042 121.263C26.1438 121.551 26.2496 121.826 26.4347 122.101C26.6066 122.376 26.871 122.625 27.2148 122.874C27.585 123.136 27.942 123.306 28.2726 123.372C28.6031 123.451 28.9204 123.437 29.2113 123.346C29.5154 123.254 29.7931 123.097 30.0575 122.848C30.3219 122.612 30.5864 122.311 30.8376 121.957C31.0491 121.669 31.221 121.394 31.3532 121.132C31.4855 120.883 31.5648 120.621 31.5912 120.359C31.6177 120.097 31.578 119.821 31.4855 119.52C31.3929 119.219 31.2078 118.878 30.9566 118.498C30.7847 118.223 30.6393 117.987 30.5599 117.804C30.4806 117.607 30.4409 117.45 30.4277 117.306C30.4145 117.162 30.4409 117.031 30.507 116.926C30.5599 116.808 30.6393 116.69 30.745 116.559C30.8244 116.441 30.9169 116.336 31.0095 116.232C31.102 116.127 31.221 116.048 31.34 115.983C31.459 115.917 31.5912 115.891 31.7235 115.891C31.8557 115.891 31.9879 115.943 32.1465 116.048C32.4374 116.258 32.5696 116.48 32.53 116.729C32.4903 116.978 32.3845 117.24 32.173 117.529L33.6009 118.118C33.7464 117.909 33.8654 117.686 33.9579 117.424C34.0505 117.162 34.0902 116.887 34.0769 116.611C34.0637 116.336 33.9712 116.048 33.8125 115.76C33.6671 115.472 33.4026 115.196 33.0324 114.921Z" fill="white"/>
<path d="M104.693 113.633L103.508 114.556L109.519 122.139L110.704 121.216L104.693 113.633Z" fill="white"/>
</svg>
