<svg width="100" height="38" viewBox="0 0 100 38" fill="none" xmlns="http://www.w3.org/2000/svg">
<path d="M5.53519 21.1486C5.2727 20.9903 5.34075 21.0834 4.67966 20.9624L3.75608 20.7389L3.32832 20.5155L3.75608 20.2921L4.67966 20.1059C5.36992 19.9755 5.2727 20.0407 5.57408 19.8824C5.73935 19.7614 6.04073 19.3424 5.80741 18.9328C5.54491 18.5231 5.01993 18.5604 4.82549 18.6814C4.53383 18.8025 4.66022 18.8025 4.23245 19.2773L3.57136 19.9383L3.1436 20.1896V19.7148L3.44498 18.8304C3.67831 18.1973 3.67831 18.3276 3.67831 18.0111C3.67831 17.7877 3.44498 17.3501 2.95888 17.3501C2.46307 17.3501 2.22974 17.797 2.22974 18.0111C2.22974 18.3276 2.22974 18.1973 2.46307 18.8304L2.75472 19.7148V20.1896L2.32696 19.9383L1.70476 19.2773C1.2381 18.7466 1.33532 18.8025 1.08255 18.6535C0.888115 18.5604 0.353409 18.5231 0.0909176 18.9328C-0.142408 19.3424 0.158971 19.7521 0.35341 19.8824C0.615902 20.0407 0.518682 19.9755 1.20894 20.0686L2.13252 20.2921L2.53112 20.5155L2.13252 20.7389L1.20894 20.9251C0.518682 21.0462 0.615902 20.9903 0.314523 21.1486C0.14925 21.2789 -0.142409 21.6886 0.0811954 22.0982C0.343687 22.5079 0.878393 22.4799 1.07283 22.3496C1.36449 22.2192 1.2381 22.2844 1.66587 21.7537L2.32696 21.0927L2.75472 20.8693V21.3162L2.46307 22.2006C2.22974 22.8337 2.22974 22.7034 2.22974 23.0199C2.22974 23.2433 2.46307 23.6809 2.95888 23.6809C3.4547 23.6809 3.67831 23.2433 3.67831 23.0199C3.67831 22.7034 3.64914 22.8058 3.44498 22.2006L3.1436 21.3162V20.8693L3.57136 21.0927L4.20329 21.7537C4.66022 22.2937 4.563 22.2285 4.83521 22.3868C5.02965 22.4799 5.56436 22.5172 5.81713 22.1075C6.02129 21.6886 5.72963 21.2789 5.53519 21.1486Z" fill="white"/>
<path d="M99.6462 21.1486C99.3837 20.9903 99.4518 21.0834 98.7907 20.9624L97.8671 20.7389L97.4393 20.5155L97.8671 20.2921L98.7907 20.1059C99.4809 19.9755 99.3837 20.0407 99.6851 19.8824C99.8504 19.7614 100.142 19.3424 99.9184 18.9328C99.6559 18.5231 99.1212 18.5604 98.9268 18.6814C98.6351 18.8025 98.7615 18.8025 98.3338 19.2773L97.6727 19.9383L97.2449 20.1896V19.7148L97.5463 18.8304C97.7796 18.1973 97.7796 18.3276 97.7796 18.0111C97.7796 17.7877 97.5463 17.3501 97.0505 17.3501C96.5546 17.3501 96.331 17.797 96.331 18.0111C96.331 18.3276 96.331 18.1973 96.5546 18.8304L96.856 19.7148V20.1896L96.4283 19.9383L95.8061 19.2773C95.3394 18.7466 95.4463 18.8025 95.1741 18.6442C94.9797 18.5511 94.445 18.5138 94.1825 18.9235C93.9492 19.3331 94.2506 19.7428 94.445 19.8731C94.7075 20.0314 94.6103 19.9662 95.3005 20.0593L96.2241 20.2828L96.6227 20.5062L96.2241 20.7296L95.3005 20.9158C94.6103 21.0369 94.7075 20.981 94.4158 21.1393C94.2505 21.2696 93.9589 21.6793 94.1825 22.0889C94.445 22.4985 94.97 22.4706 95.1644 22.3403C95.4658 22.2099 95.3297 22.2751 95.7574 21.7444L96.4185 21.0834L96.8463 20.86V21.3069L96.5449 22.1913C96.3213 22.8244 96.3213 22.6941 96.3213 23.0106C96.3213 23.234 96.5449 23.6716 97.0407 23.6716C97.5366 23.6716 97.7699 23.234 97.7699 23.0106C97.7699 22.6941 97.7407 22.7872 97.5366 22.1913L97.2352 21.3069V20.86L97.6629 21.0834L98.2851 21.7444C98.7518 22.2844 98.6546 22.2192 98.9073 22.3775C99.1018 22.4706 99.6365 22.5079 99.899 22.0982C100.142 21.6886 99.8504 21.2789 99.6462 21.1486Z" fill="white"/>
<path d="M40.2809 0H33.2422V2.39268H40.2809V0Z" fill="white"/>
<path d="M76.9976 37.622V7.11488L79.642 7.12418V4.87129H71.9131V7.12418H74.5574V37.622H76.9976Z" fill="white"/>
<path d="M63.9618 19.3755H61.8133V4.87129H59.373V37.622H61.8133V21.619H63.9618V37.622H66.402V4.87129H63.9618V19.3755Z" fill="white"/>
<path d="M49.8463 4.49518C47.7463 4.49518 46.3269 5.90091 46.3269 8.1445V11.6076C46.3269 19.9303 50.8671 20.312 50.8671 28.9605V32.6098C50.8671 35.2258 50.7212 35.7471 49.7879 35.7471C48.8546 35.7471 48.7185 35.2258 48.7185 32.6098V26.9962H46.2783V34.3414C46.2783 36.585 47.7463 37.9907 49.7977 37.9907C51.849 37.9907 53.2684 36.585 53.317 34.3414V28.7743C53.317 20.3027 48.7769 20.0699 48.7769 11.2818V9.87606C48.7769 7.26009 48.9227 6.73876 49.856 6.73876C50.7893 6.73876 50.9351 7.25078 50.9351 9.87606V14.0839H53.3753V8.1445C53.3656 5.90091 52.0045 4.49518 49.8463 4.49518Z" fill="white"/>
<path d="M40.2809 34.3507V8.1445C40.2809 5.90091 38.9101 4.49518 36.7615 4.49518C34.6616 4.49518 33.2422 5.90091 33.2422 8.1445V34.3507C33.2422 36.5943 34.613 38 36.7615 38C38.8615 38 40.2809 36.5943 40.2809 34.3507ZM36.7615 35.7471C35.5852 35.7471 35.6824 34.7603 35.6824 32.1443V10.3415C35.6824 7.71626 35.5852 6.73876 36.7615 6.73876C37.9379 6.73876 37.8309 7.71626 37.8309 10.3415V32.1443C37.8407 34.7696 37.9379 35.7471 36.7615 35.7471Z" fill="white"/>
<path d="M23.7254 4.49518C21.6255 4.49518 20.2061 5.90091 20.2061 8.1445V34.3507C20.2061 36.5943 21.5768 38 23.7254 38C25.8253 38 27.2447 36.5943 27.2447 34.3507V19.381H23.6282V21.6246H24.7948V32.6191C24.7948 35.2351 24.649 35.7564 23.7157 35.7564C22.7824 35.7564 22.6463 35.2351 22.6463 32.6191V9.88537C22.6463 7.2694 22.7921 6.74807 23.7157 6.75738C24.649 6.75738 24.7851 7.2694 24.7851 9.89468V15.5083H27.235V8.16311C27.2447 5.90091 25.8739 4.49518 23.7254 4.49518Z" fill="white"/>
</svg>
