<svg width="24" height="24" viewBox="0 0 24 24" fill="none" xmlns="http://www.w3.org/2000/svg">
<path fill-rule="evenodd" clip-rule="evenodd" d="M12.0002 11.5C12.5912 11.5 13.1764 11.3836 13.7223 11.1575C14.2683 10.9313 14.7644 10.5998 15.1822 10.182C15.6001 9.76412 15.9316 9.26804 16.1577 8.72207C16.3839 8.17611 16.5002 7.59095 16.5002 7C16.5002 6.40905 16.3839 5.82389 16.1577 5.27792C15.9316 4.73196 15.6001 4.23588 15.1822 3.81802C14.7644 3.40016 14.2683 3.06869 13.7223 2.84254C13.1764 2.6164 12.5912 2.5 12.0002 2.5C10.8068 2.5 9.66218 2.97411 8.81827 3.81802C7.97436 4.66193 7.50025 5.80653 7.50025 7C7.50025 8.19347 7.97436 9.33807 8.81827 10.182C9.66218 11.0259 10.8068 11.5 12.0002 11.5ZM5.00225 15.194C4.95752 14.8579 4.98511 14.5161 5.08318 14.1916C5.18125 13.867 5.34753 13.5672 5.57089 13.3121C5.79425 13.057 6.06953 12.8526 6.3783 12.7126C6.68707 12.5725 7.0222 12.5 7.36125 12.5H16.6392C16.9782 12.5002 17.3132 12.5727 17.6219 12.7129C17.9305 12.853 18.2057 13.0574 18.4289 13.3125C18.6522 13.5675 18.8184 13.8673 18.9164 14.1918C19.0144 14.5163 19.042 14.858 18.9973 15.194L18.9702 15.397C18.7445 17.0856 17.9135 18.6348 16.6315 19.7568C15.3495 20.8788 13.7039 21.4973 12.0002 21.4973C10.2966 21.4973 8.65095 20.8788 7.36899 19.7568C6.08703 18.6348 5.25598 17.0856 5.03025 15.397L5.00225 15.194Z" fill="white"/>
</svg>
