<svg width="64" height="64" viewBox="0 0 64 64" fill="none" xmlns="http://www.w3.org/2000/svg">
<circle cx="32" cy="32" r="32" fill="#AA181A"/>
<path d="M44.5738 25.683H45.7989V24.624H42.2099V25.683H43.4399V40.0521H44.5721V25.683H44.5738ZM37.5163 32.5122H38.5148V40.0505H39.6469V24.6224H38.5148V31.4515H37.5163V24.6224H36.3793V40.0505H37.5163V32.5122ZM33.5896 28.9678V26.1674C33.5896 25.1131 32.9566 24.4483 31.9533 24.4483C30.9777 24.4483 30.3203 25.1131 30.3203 26.1674V27.8011C30.3203 31.7191 32.4297 31.898 32.4297 35.9726V37.6918C32.4297 38.9265 32.3644 39.1687 31.9305 39.1687C31.4998 39.1687 31.4361 38.9265 31.4361 37.6918V35.0482H30.2991V38.5086C30.2991 39.5677 30.9794 40.2278 31.9321 40.2278C32.8897 40.2278 33.5455 39.5677 33.5684 38.5086V35.884C33.5684 31.8995 31.4557 31.7871 31.4557 27.646V26.9859C31.4557 25.7511 31.5259 25.5089 31.9549 25.5089C32.3889 25.5089 32.4541 25.7511 32.4541 26.9859V28.9694H33.5896V28.9678ZM25.3771 27.2043C25.3771 25.9696 25.3266 25.5089 25.8715 25.5089C26.4163 25.5089 26.3707 25.9711 26.3707 27.2043V37.4718C26.3707 38.7065 26.4163 39.1672 25.8715 39.1672C25.3266 39.1672 25.3771 38.7049 25.3771 37.4718V27.2043ZM27.5094 26.1674C27.5094 25.1131 26.8715 24.4483 25.8731 24.4483C24.8975 24.4483 24.2401 25.1131 24.2401 26.1674V38.507C24.2401 39.5661 24.873 40.2262 25.8731 40.2262C26.8487 40.2262 27.5094 39.5661 27.5094 38.507V26.1674ZM24.2401 22.3302H27.5094V23.4557H24.2401V22.3302ZM54.7651 32.8715C54.8581 32.9158 55.1028 32.9348 55.2235 32.7369C55.3295 32.5486 55.1958 32.3507 55.1028 32.2921C54.9772 32.2209 55.0098 32.2605 54.7047 32.2019L54.274 32.099L54.075 31.9961L54.274 31.8932L54.7047 31.803C55.0245 31.7397 54.9772 31.7713 55.1158 31.7001C55.1941 31.6368 55.3279 31.4436 55.2219 31.2521C55.1011 31.059 54.8564 31.0764 54.7634 31.1349C54.6248 31.1935 54.69 31.1935 54.4861 31.4136L54.181 31.727L53.982 31.8489V31.6241L54.1207 31.2062C54.2267 30.9102 54.2267 30.9687 54.2267 30.8199C54.2267 30.717 54.1207 30.5096 53.889 30.5096C53.6574 30.5096 53.5513 30.7154 53.5513 30.8199C53.5513 30.9687 53.5513 30.9102 53.6574 31.2062L53.796 31.6241V31.8489L53.597 31.727L53.305 31.4136C53.0929 31.1619 53.1386 31.1935 53.013 31.1223C52.92 31.078 52.6753 31.059 52.5545 31.2521C52.4485 31.4452 52.5872 31.6383 52.6753 31.7001C52.8009 31.7713 52.7536 31.7412 53.0733 31.7856L53.504 31.8932L53.6884 31.9961L53.504 32.099L53.0733 32.1892C52.7536 32.2478 52.8009 32.2209 52.6622 32.2921C52.5888 32.3507 52.4501 32.5486 52.5562 32.7369C52.6769 32.9348 52.9216 32.9158 53.0146 32.8588C53.1533 32.8003 53.0929 32.8272 53.2919 32.5755L53.597 32.262L53.796 32.1592V32.3697L53.6574 32.7829C53.5513 33.0836 53.5513 33.0203 53.5513 33.1691C53.5513 33.2768 53.6574 33.4826 53.889 33.4826C54.1207 33.4826 54.2267 33.2768 54.2267 33.1691C54.2267 33.0203 54.212 33.0662 54.1207 32.7829L53.982 32.3697V32.1592L54.181 32.262L54.4731 32.5755C54.6917 32.8272 54.6444 32.8003 54.7651 32.8715ZM11.0225 32.8715C11.1106 32.9158 11.3602 32.9348 11.4809 32.7369C11.587 32.5486 11.4483 32.3507 11.3602 32.2921C11.2346 32.2209 11.2672 32.2605 10.9572 32.2019L10.5266 32.099L10.3324 31.9961L10.5266 31.8932L10.9572 31.803C11.2803 31.7397 11.2346 31.7713 11.3732 31.7001C11.4467 31.6368 11.5853 31.4436 11.4793 31.2521C11.3586 31.059 11.109 31.0764 11.0209 31.1349C10.8822 31.1935 10.9426 31.1935 10.7435 31.4136L10.4385 31.727L10.2345 31.8489V31.6241L10.3732 31.2062C10.4841 30.9102 10.4841 30.9687 10.4841 30.8199C10.4841 30.717 10.3732 30.5096 10.1464 30.5096C9.91478 30.5096 9.80874 30.7154 9.80874 30.8199C9.80874 30.9687 9.80874 30.9102 9.91478 31.2062L10.0534 31.6241V31.8489L9.85442 31.727L9.5624 31.4136C9.34543 31.1619 9.3911 31.1935 9.27038 31.1223C9.17739 31.078 8.93268 31.059 8.81196 31.2521C8.70592 31.4452 8.83969 31.6383 8.93268 31.7001C9.05341 31.7713 9.0061 31.7412 9.33074 31.7856L9.76143 31.8932L9.94578 31.9961L9.76143 32.099L9.33074 32.1892C9.00773 32.2478 9.05341 32.2209 8.91963 32.2921C8.84132 32.3507 8.70755 32.5486 8.81359 32.7369C8.93431 32.9348 9.17902 32.9158 9.27201 32.8588C9.41068 32.8003 9.34543 32.8272 9.54935 32.5755L9.85442 32.262L10.0534 32.1592V32.3697L9.91478 32.7829C9.80874 33.0836 9.80874 33.0203 9.80874 33.1691C9.80874 33.2768 9.91478 33.4826 10.1464 33.4826C10.3732 33.4826 10.4841 33.2768 10.4841 33.1691C10.4841 33.0203 10.4662 33.0662 10.3732 32.7829L10.2345 32.3697V32.1592L10.4385 32.262L10.7305 32.5755C10.9442 32.8272 10.8985 32.8003 11.0225 32.8715ZM19.7684 32.5122H20.3133V37.6902C20.3133 38.925 20.2431 39.1672 19.8141 39.1672C19.3801 39.1672 19.3149 38.925 19.3149 37.6902V26.9843C19.3149 25.7495 19.3801 25.5073 19.8141 25.5073C20.2448 25.5073 20.3133 25.7495 20.3133 26.9843V29.6279H21.4455V26.1674C21.4455 25.1131 20.8125 24.4483 19.8125 24.4483C18.832 24.4483 18.1762 25.1131 18.1762 26.1674V38.507C18.1762 39.5661 18.814 40.2262 19.8125 40.2262C20.788 40.2262 21.4455 39.5661 21.4455 38.507V31.4531H19.7668V32.5122H19.7684Z" fill="white"/>
<path d="M13.8353 46.4639C13.6542 46.2533 13.5808 46.0555 13.6037 45.8671C13.6314 45.6787 13.7521 45.4998 13.9593 45.3336L15.2775 44.292C15.3753 44.2112 15.4765 44.1479 15.5825 44.1036C15.6886 44.0545 15.7946 44.0324 15.9056 44.0324C16.0116 44.0276 16.1176 44.0498 16.2204 44.1004C16.3265 44.1495 16.4243 44.2302 16.5206 44.3426C16.6968 44.5532 16.7702 44.7463 16.7425 44.9347C16.7147 45.1183 16.6087 45.2798 16.4325 45.4238L16.3999 45.446L15.9936 45.1231C16.0915 45.0471 16.1552 44.9663 16.1829 44.8809C16.2155 44.8001 16.1976 44.7194 16.1323 44.6434C16.0948 44.5991 16.054 44.5674 16.0067 44.5532C15.9643 44.5389 15.9186 44.5389 15.8729 44.5484C15.8305 44.5579 15.7848 44.5753 15.744 44.5975C15.7016 44.6197 15.6657 44.6418 15.6331 44.6687L14.2921 45.7325C14.2644 45.7547 14.2415 45.7769 14.222 45.8038C14.1795 45.8481 14.1518 45.8987 14.1388 45.9557C14.1257 46.0127 14.1485 46.0776 14.204 46.1489C14.2644 46.2201 14.3329 46.2613 14.403 46.2739C14.4765 46.2834 14.5466 46.2644 14.6151 46.2106L15.1323 45.8022L14.9381 45.5695L15.2938 45.2861L15.8207 45.9146L14.9789 46.5826C14.7701 46.7441 14.5678 46.8121 14.3639 46.7852C14.1681 46.7552 13.987 46.6475 13.8353 46.4639Z" fill="white"/>
<path d="M18.0617 49.2957C17.8725 49.5158 17.6735 49.6361 17.4744 49.6678C17.2754 49.6947 17.0682 49.6187 16.8447 49.4382C16.6278 49.2593 16.5168 49.0741 16.5119 48.8857C16.507 48.6974 16.5902 48.4995 16.7713 48.2984L17.8758 47.0336C17.9639 46.9307 18.052 46.85 18.1482 46.7867C18.2445 46.7233 18.3423 46.6838 18.4435 46.6648C18.5446 46.6474 18.6474 46.6553 18.7584 46.6869C18.8693 46.7233 18.9802 46.7851 19.0912 46.8753C19.207 46.9735 19.2951 47.0732 19.3506 47.1666C19.406 47.2647 19.4289 47.3645 19.4289 47.4579C19.424 47.556 19.4011 47.6557 19.3506 47.7539C19.3 47.8568 19.2249 47.9565 19.1385 48.0594L18.0617 49.2957ZM18.76 47.7016C18.8203 47.6304 18.8611 47.5528 18.8807 47.4721C18.8954 47.3914 18.8628 47.3154 18.7747 47.2426C18.729 47.2062 18.6768 47.184 18.6311 47.1793C18.5854 47.1745 18.5381 47.184 18.4973 47.1967C18.4549 47.2141 18.4141 47.241 18.3717 47.2727C18.3342 47.3043 18.3016 47.336 18.2738 47.3676L17.1645 48.6372C17.109 48.7005 17.0764 48.7718 17.0633 48.8525C17.0535 48.9332 17.0862 49.0045 17.1694 49.0725C17.2526 49.1406 17.3309 49.1628 17.4141 49.1359C17.4973 49.1089 17.5707 49.0599 17.6408 48.9839L18.76 47.7016ZM18.773 46.3339L19.0553 46.011L19.9754 46.7645L19.6931 47.0874L18.773 46.3339Z" fill="white"/>
<path d="M21.6087 51.4133C21.5353 51.5431 21.4521 51.6508 21.3689 51.741C21.2808 51.8312 21.1878 51.8977 21.0916 51.9389C20.9904 51.98 20.8828 51.9927 20.7637 51.98C20.643 51.9658 20.5141 51.9215 20.3754 51.8455C20.2498 51.7742 20.1486 51.6935 20.0801 51.608C20.0067 51.5225 19.9594 51.4323 19.9366 51.3342C19.9137 51.2392 19.9137 51.141 19.9366 51.0429C19.9594 50.9447 20.0018 50.845 20.0573 50.7469L20.5712 50.9178C20.5108 51.0302 20.4782 51.1284 20.4782 51.2138C20.4733 51.3041 20.5239 51.3753 20.6315 51.4339C20.6968 51.4703 20.7523 51.483 20.8028 51.483C20.8534 51.4782 20.8958 51.4655 20.9366 51.4339C20.979 51.407 21.0149 51.3658 21.0524 51.3215C21.0851 51.2724 21.1177 51.2233 21.1503 51.1695C21.1927 51.1014 21.2205 51.0397 21.2384 50.9906C21.2564 50.9368 21.2661 50.8877 21.2613 50.8418C21.2564 50.7975 21.2384 50.7469 21.2107 50.6978C21.1829 50.6487 21.1405 50.5901 21.0851 50.5189C20.979 50.3843 20.9007 50.2625 20.8485 50.1516C20.7979 50.044 20.7702 49.9458 20.7653 49.8509C20.7604 49.7559 20.7751 49.672 20.8028 49.5865C20.8355 49.5058 20.8762 49.4155 20.9317 49.3269C20.997 49.2097 21.0753 49.1116 21.1585 49.0309C21.2466 48.9501 21.3396 48.8916 21.4407 48.8551C21.5419 48.8187 21.6495 48.8061 21.7637 48.8187C21.8796 48.833 22.0003 48.8726 22.1292 48.9438C22.2678 49.0198 22.369 49.1053 22.4342 49.2002C22.4995 49.2952 22.5403 49.3886 22.555 49.4836C22.5696 49.5818 22.5647 49.6767 22.5403 49.767C22.5174 49.8619 22.4848 49.9427 22.4391 50.0187L21.922 49.8667C21.9823 49.7638 22.015 49.6641 22.0199 49.5802C22.0199 49.4947 21.9693 49.4235 21.8632 49.3649C21.8078 49.3332 21.7572 49.3206 21.7099 49.3206C21.6642 49.3253 21.6218 49.3427 21.581 49.3649C21.5386 49.3918 21.5027 49.4235 21.475 49.4599C21.4472 49.501 21.4195 49.5358 21.3918 49.5818C21.364 49.6308 21.3412 49.6767 21.3265 49.7163C21.3086 49.7527 21.3037 49.797 21.3118 49.8461C21.3167 49.8952 21.3396 49.949 21.3722 50.0123C21.4097 50.0757 21.4603 50.1516 21.5337 50.2371C21.6348 50.3622 21.705 50.4698 21.7507 50.5696C21.7964 50.6725 21.8159 50.7674 21.8159 50.8561C21.8159 50.9447 21.798 51.035 21.7605 51.1252C21.7246 51.2059 21.6724 51.3057 21.6087 51.4133Z" fill="white"/>
<path d="M24.6089 53.6565L25.1 52.2919L24.5257 52.0988L24.0363 53.4633L23.5371 53.2924L24.6611 50.1738L25.1603 50.3448L24.6889 51.646L25.2615 51.8439L25.733 50.5379L26.2322 50.7041L25.1098 53.8274L24.6089 53.6565Z" fill="white"/>
<path d="M29.0495 51.7898L28.5911 54.5807L28.069 54.4999L28.5258 51.7091L27.9858 51.6236L28.0641 51.1519L29.6694 51.3988L29.5895 51.8753L29.0495 51.7898Z" fill="white"/>
<path d="M35.5651 54.6074C35.2877 54.6438 35.0708 54.6074 34.9174 54.4903C34.7641 54.3684 34.6678 54.18 34.6303 53.9157L34.3807 52.2867C34.3627 52.1648 34.3578 52.0493 34.3709 51.9369C34.3856 51.8245 34.4166 51.7216 34.472 51.6314C34.5226 51.5411 34.5977 51.4651 34.6939 51.4018C34.7902 51.3385 34.9109 51.2989 35.0642 51.2768C35.3367 51.2356 35.5504 51.2768 35.6972 51.3939C35.8506 51.5158 35.937 51.6852 35.9746 51.9052L35.9795 51.9416L35.4803 52.1173C35.4623 51.9955 35.4248 51.9021 35.3693 51.834C35.309 51.7659 35.2306 51.739 35.1295 51.7533C35.0691 51.7628 35.0235 51.7802 34.9859 51.8118C34.9533 51.8435 34.9305 51.8799 34.9158 51.9195C34.8978 51.9638 34.8929 52.0097 34.8881 52.054C34.8881 52.1031 34.8929 52.1443 34.8978 52.1838L35.1523 53.8492C35.1572 53.8808 35.167 53.9172 35.1801 53.9441C35.198 54.0027 35.2306 54.047 35.2731 54.093C35.3187 54.1341 35.384 54.1468 35.477 54.1341C35.57 54.1199 35.6385 54.0898 35.6891 54.0312C35.7347 53.9774 35.7543 53.9093 35.7396 53.8286L35.6418 53.1827L35.3367 53.227L35.2714 52.787L36.0985 52.6651L36.2552 53.7099C36.2976 53.9663 36.2503 54.1721 36.1214 54.3241C35.9925 54.476 35.8049 54.571 35.5651 54.6074Z" fill="white"/>
<path d="M38.6173 50.467C38.8816 50.3768 39.1068 50.3815 39.3058 50.4765C39.5048 50.5668 39.6614 50.7726 39.7773 51.0955C39.8474 51.2934 39.8784 51.4675 39.8703 51.6211C39.8605 51.7778 39.7968 51.9171 39.681 52.0469L40.6517 53.2816L40.1427 53.4526L39.2683 52.2986L39.0317 52.3793L39.4901 53.6711L38.9909 53.8373L37.8816 50.714L38.6173 50.467ZM38.5423 51.0005L38.8653 51.9155L39.0692 51.8443C39.1981 51.8031 39.2813 51.7366 39.3189 51.6416C39.3515 51.5466 39.3417 51.4168 39.2862 51.2554C39.2356 51.1113 39.1655 51.0132 39.0741 50.9499C38.986 50.8913 38.8751 50.8865 38.7364 50.9324L38.5423 51.0005Z" fill="white"/>
<path d="M43.9867 50.7138C44.1352 50.9655 44.1906 51.1855 44.1482 51.3787C44.1058 51.5718 43.9639 51.738 43.7143 51.8726C43.4647 52.0119 43.2477 52.0514 43.0617 51.9897C42.8774 51.9311 42.7191 51.7871 42.5805 51.5544L41.7338 50.1091C41.6685 49.9967 41.6179 49.8891 41.5902 49.7767C41.5625 49.669 41.5576 49.5661 41.5755 49.4664C41.5902 49.3682 41.6359 49.2733 41.7044 49.1878C41.7745 49.0975 41.8708 49.0216 41.9997 48.9503C42.1335 48.8743 42.2591 48.8284 42.37 48.811C42.4809 48.7968 42.587 48.8063 42.68 48.8427C42.773 48.8791 42.8611 48.9377 42.9394 49.0136C43.0177 49.0944 43.0927 49.1925 43.1612 49.3144L43.9867 50.7138ZM42.6865 49.5329C42.6408 49.4521 42.5805 49.3888 42.5054 49.3492C42.432 49.3049 42.3488 49.3081 42.246 49.3635C42.1954 49.3951 42.1579 49.4316 42.1351 49.4759C42.1171 49.517 42.1074 49.5614 42.1074 49.6057C42.1122 49.65 42.122 49.6959 42.14 49.7402C42.1547 49.7846 42.1775 49.8305 42.1954 49.8653L43.047 51.3059C43.0894 51.3818 43.1482 51.4357 43.2232 51.4768C43.2934 51.5132 43.3766 51.5085 43.4728 51.4547C43.5658 51.4056 43.6115 51.3375 43.6164 51.252C43.6213 51.1665 43.5936 51.0811 43.543 50.9924L42.6865 49.5329Z" fill="white"/>
<path d="M45.6965 46.3927L47.3328 48.2638C47.5221 48.4839 47.615 48.6897 47.615 48.8875C47.6102 49.0807 47.5041 49.269 47.2822 49.4479C47.0653 49.6268 46.8564 49.7044 46.6623 49.6806C46.4682 49.6537 46.2838 49.5413 46.1076 49.3403L44.4387 47.4248L44.8417 47.0924L46.5155 49.0126C46.5758 49.0807 46.6411 49.125 46.7243 49.1471C46.8026 49.1741 46.8809 49.1519 46.9641 49.0838C47.0473 49.0158 47.0799 48.9398 47.0653 48.8543C47.0555 48.7736 47.0147 48.6928 46.9445 48.6168L45.2936 46.7236L45.6965 46.3927Z" fill="white"/>
<path d="M47.6441 44.3592C47.8431 44.1217 48.0503 43.9998 48.2689 43.9919C48.4859 43.9824 48.7355 44.0901 49.0177 44.3148C49.1433 44.413 49.2445 44.5127 49.3277 44.6156C49.406 44.7185 49.4615 44.8214 49.4892 44.9338C49.5169 45.0462 49.512 45.1633 49.4794 45.2789C49.4468 45.4008 49.3734 45.5259 49.2624 45.6557L49.1238 45.8171L50.1369 46.6197L49.8041 47.0186L47.1677 44.9227L47.6441 44.3592ZM47.8839 44.8293L48.7355 45.5069L48.8562 45.3676C48.9574 45.2457 48.9949 45.1301 48.9623 45.0272C48.9296 44.9196 48.8415 44.8119 48.6947 44.6948C48.5658 44.5919 48.4451 44.5333 48.3342 44.5191C48.2183 44.5048 48.1123 44.5602 48.0112 44.6805L47.8839 44.8293Z" fill="white"/>
<path d="M18.0567 17.0316C18.1627 17.1392 18.2508 17.2421 18.316 17.3497C18.3813 17.4526 18.4172 17.5555 18.4319 17.66C18.4466 17.7645 18.427 17.8706 18.3862 17.9782C18.3405 18.0859 18.2573 18.1935 18.1415 18.3011C18.0403 18.3993 17.9327 18.4721 17.8266 18.5117C17.7206 18.556 17.6178 18.575 17.5167 18.5703C17.4155 18.5655 17.3176 18.5386 17.2246 18.4895C17.1317 18.4404 17.0484 18.3724 16.9652 18.2964L17.2752 17.8658C17.3682 17.9513 17.4563 18.0051 17.5428 18.032C17.6309 18.0589 17.7141 18.032 17.8022 17.9513C17.8576 17.9022 17.8854 17.8531 17.9 17.8072C17.9098 17.7582 17.9049 17.7123 17.8903 17.6632C17.8723 17.6189 17.8446 17.573 17.807 17.5286C17.7695 17.4843 17.7287 17.4384 17.6814 17.3941C17.626 17.3355 17.5754 17.2912 17.5281 17.2595C17.4808 17.2279 17.4351 17.2104 17.3894 17.2009C17.3437 17.1914 17.2883 17.1914 17.2328 17.2057C17.1773 17.2231 17.1072 17.2421 17.024 17.2738C16.8576 17.3371 16.714 17.3767 16.5933 17.3957C16.4677 17.4131 16.3616 17.4099 16.2703 17.3909C16.1773 17.3687 16.0941 17.3323 16.0207 17.2833C15.9473 17.2294 15.8673 17.1661 15.7939 17.0901C15.7009 16.9952 15.6226 16.897 15.5671 16.7941C15.5117 16.6912 15.479 16.5915 15.4693 16.4838C15.4595 16.3809 15.479 16.278 15.5247 16.1736C15.5671 16.0707 15.6406 15.9678 15.7466 15.868C15.8624 15.7604 15.9734 15.6892 16.0843 15.6528C16.1952 15.6163 16.3013 15.6037 16.3992 15.6163C16.5003 15.6306 16.5933 15.6575 16.6765 15.7066C16.7597 15.7557 16.8331 15.8095 16.8935 15.8728L16.6014 16.3129C16.5134 16.2274 16.4302 16.1736 16.3421 16.1467C16.2589 16.1197 16.1708 16.1467 16.0827 16.2321C16.037 16.2765 16.0093 16.3176 15.9995 16.3619C15.9897 16.4063 15.9946 16.4474 16.0093 16.4918C16.0239 16.5361 16.0419 16.582 16.0745 16.6168C16.1022 16.658 16.1349 16.6928 16.1675 16.7292C16.2099 16.7704 16.2458 16.8004 16.2833 16.8274C16.3208 16.8543 16.3616 16.8717 16.4122 16.8764C16.4579 16.8812 16.5182 16.8764 16.5933 16.8622C16.6634 16.8479 16.7548 16.8179 16.8608 16.7767C17.0093 16.7134 17.1382 16.6786 17.2491 16.6643C17.36 16.6501 17.4612 16.6548 17.5493 16.6785C17.6374 16.7055 17.7206 16.7466 17.7989 16.8084C17.8854 16.8701 17.9686 16.9413 18.0567 17.0316Z" fill="white"/>
<path d="M20.3005 16.5009L18.3445 13.8003L18.7735 13.5043L20.7345 16.2096L20.3005 16.5009Z" fill="white"/>
<path d="M22.1258 13.1811L22.9856 14.9176L22.5092 15.1377L21.0344 12.1584L21.4651 11.9605L22.2743 12.6745C22.3395 12.7331 22.4032 12.7964 22.4684 12.8502C22.5337 12.9088 22.5973 12.9673 22.6675 13.0259L23.028 13.3663C23.0329 13.3615 23.0378 13.3615 23.0378 13.3568C23.0378 13.3568 23.0427 13.352 23.0476 13.352L22.1927 11.6202L22.6593 11.4049L24.1341 14.3841L23.7181 14.5773L22.9089 13.8681C22.78 13.7509 22.6495 13.6354 22.5255 13.523C22.3999 13.4058 22.2759 13.2934 22.147 13.1779L22.1258 13.1811Z" fill="white"/>
<path d="M25.9547 10.2874C26.0885 10.251 26.2141 10.243 26.3201 10.251C26.4262 10.2652 26.5241 10.2921 26.6073 10.3412C26.6905 10.3903 26.7557 10.4536 26.8112 10.5391C26.8666 10.6198 26.9091 10.7148 26.9368 10.8224L26.4751 11.0741C26.4425 10.957 26.3968 10.8683 26.3315 10.805C26.2663 10.7464 26.1831 10.729 26.0819 10.7512C26.0216 10.7686 25.9759 10.7924 25.9482 10.8272C25.9155 10.8636 25.8976 10.8984 25.8878 10.9443C25.8731 10.9887 25.8731 11.0346 25.878 11.0789C25.8829 11.1232 25.8878 11.1691 25.9009 11.2087L26.3397 12.8329C26.3495 12.8645 26.3625 12.8962 26.3772 12.931C26.3952 12.9674 26.4196 12.9991 26.4474 13.026C26.4751 13.0529 26.5126 13.0703 26.5534 13.0846C26.5958 13.0941 26.6464 13.0941 26.7019 13.0798C26.8911 13.0307 26.9466 12.874 26.883 12.6128C26.9711 12.6033 27.0591 12.5954 27.1472 12.5859C27.2353 12.5717 27.3234 12.5638 27.4115 12.5543C27.4719 12.7965 27.4572 13.0022 27.3659 13.178C27.2729 13.3537 27.0983 13.474 26.8438 13.5421C26.5714 13.6101 26.3544 13.5959 26.1864 13.493C26.02 13.3948 25.9041 13.2144 25.8356 12.9595L25.4017 11.367C25.369 11.2498 25.3511 11.1343 25.3511 11.0219C25.3462 10.9095 25.3658 10.8019 25.4065 10.7085C25.449 10.6135 25.5126 10.5296 25.6056 10.4568C25.6871 10.3824 25.8079 10.3238 25.9547 10.2874Z" fill="white"/>
<path d="M29.5439 13.0064L29.2666 9.71211L30.774 9.5918L30.8164 10.0715L29.836 10.1474L29.9094 11.045L30.7642 10.9785L30.8066 11.4677L29.9502 11.5342L30.0301 12.4856L31.0106 12.4096L31.0513 12.8845L29.5439 13.0064Z" fill="white"/>
<path d="M36.9393 10.5984C36.8659 10.5841 36.8007 10.6031 36.7403 10.6617C36.6799 10.7155 36.6294 10.8279 36.5869 10.9941L36.0975 10.8231C36.1628 10.5493 36.2819 10.3514 36.4532 10.2358C36.6245 10.114 36.8284 10.0791 37.0551 10.133C37.3194 10.1915 37.494 10.3039 37.5723 10.4654C37.6555 10.6269 37.6702 10.8247 37.6147 11.0574C37.5821 11.2015 37.5413 11.3218 37.4809 11.4294C37.4206 11.5323 37.3423 11.64 37.2444 11.7524L36.2639 12.8827L37.1008 13.071L36.9899 13.538L35.5608 13.2198L35.6619 12.7845C35.8659 12.5518 36.0682 12.3223 36.2721 12.0927C36.4711 11.86 36.6701 11.6305 36.8741 11.3978C36.9393 11.3297 36.985 11.2537 37.0127 11.1777C37.0454 11.1018 37.0682 11.021 37.091 10.9355C37.0959 10.9086 37.1008 10.877 37.1057 10.8406C37.1106 10.8042 37.1057 10.7725 37.0959 10.7424C37.0861 10.7123 37.0682 10.6791 37.0454 10.6522C37.0225 10.6253 36.985 10.6063 36.9393 10.5984Z" fill="white"/>
<path d="M40.6046 14.124C40.5622 14.2269 40.5035 14.3076 40.4333 14.3757C40.3599 14.439 40.28 14.4881 40.1935 14.515C40.1103 14.5467 40.0173 14.5562 39.926 14.5514C39.8281 14.5419 39.7367 14.5198 39.6437 14.4802C39.5459 14.439 39.4627 14.39 39.3941 14.3282C39.3207 14.2649 39.2685 14.1937 39.2326 14.1129C39.1951 14.0322 39.1772 13.9467 39.1772 13.8486C39.1723 13.7536 39.1951 13.6554 39.2424 13.5573L40.0418 11.7574C40.0875 11.6593 40.1478 11.5738 40.218 11.5057C40.2914 11.4376 40.3713 11.3933 40.4578 11.3617C40.541 11.3347 40.634 11.3205 40.7303 11.3252C40.8232 11.33 40.9195 11.3569 41.0174 11.3965C41.2164 11.4772 41.3551 11.6023 41.4334 11.7685C41.5068 11.9347 41.4986 12.1231 41.4056 12.3289L40.6046 14.124ZM40.9342 12.1041C40.957 12.0455 40.9619 11.9917 40.9391 11.9426C40.9162 11.8935 40.8738 11.8571 40.8184 11.8302C40.758 11.8081 40.7025 11.8033 40.6471 11.8207C40.5916 11.8381 40.5541 11.8746 40.5263 11.9331L39.7123 13.7647C39.6845 13.8232 39.6845 13.8771 39.7074 13.9261C39.7302 13.9752 39.7775 14.0116 39.8362 14.0385C39.8917 14.0607 39.9472 14.0654 39.9978 14.048C40.0483 14.0306 40.0907 13.9942 40.1136 13.9356L40.9342 12.1041Z" fill="white"/>
<path d="M42.7322 16.0773L44.2918 13.8072L43.6996 13.8563L44.0145 13.3988L44.6474 13.345L45.0537 13.6093L43.1678 16.359L42.7322 16.0773Z" fill="white"/>
<path d="M45.4436 18.1786L45.0684 17.8288L47.6949 16.3534L47.3442 16.021L47.0897 16.2758L46.7569 15.9624L47.3474 15.3704L48.4258 16.3835L48.1158 16.6938L45.4436 18.1786Z" fill="white"/>
</svg>
