<svg width="16" height="17" viewBox="0 0 16 17" fill="none" xmlns="http://www.w3.org/2000/svg">
<path d="M14.1925 10.014C13.5667 9.61758 13.729 9.85075 12.1529 9.54761L9.95113 8.98797L8.93134 8.42833L9.95113 7.86867L12.1529 7.4023C13.7985 7.07584 13.5667 7.23908 14.2852 6.84266C14.6792 6.53952 15.3745 5.49017 14.8415 4.46416C14.2157 3.43814 12.941 3.53142 12.4774 3.83456C11.7821 4.1377 12.0834 4.1377 11.0636 5.32695L9.4876 6.98257L8.46781 7.61216V6.42293L9.18629 4.20765C9.74254 2.62198 9.74255 2.94845 9.74255 2.15562C9.74255 1.59597 9.1863 0.5 8.00428 0.5C6.82226 0.5 6.28918 1.61929 6.28918 2.15562C6.28918 2.94845 6.28919 2.62198 6.82226 4.20765L7.54073 6.42293V7.61216L6.52096 6.98257L5.03763 5.32695C3.92514 3.99779 4.1801 4.1377 3.53114 3.74128C3.06761 3.5081 1.79287 3.41483 1.16709 4.44085C0.610848 5.46687 1.32934 6.49288 1.79288 6.81934C2.41865 7.21576 2.18688 7.05252 3.83244 7.2857L6.03423 7.84536L6.98449 8.405L6.03423 8.96465L3.83244 9.43103C2.18688 9.73417 2.41864 9.59425 1.72333 9.99067C1.32933 10.3171 0.634024 11.3431 1.16709 12.3692C1.79287 13.3952 3.04442 13.3252 3.50796 12.9988C4.22645 12.6723 3.90197 12.8355 4.92175 11.5064L6.49778 9.85077L7.51755 9.29111V10.4104L6.79908 12.6257C6.26601 14.2113 6.26602 13.8849 6.26602 14.6777C6.26602 15.2374 6.79908 16.3333 7.9811 16.3333C9.16312 16.3333 9.71937 15.2374 9.71937 14.6777C9.71937 13.8849 9.64984 14.1181 9.16313 12.6257L8.44463 10.4104V9.29111L9.46442 9.85077L10.9477 11.5064C12.0602 12.8589 11.8285 12.6956 12.4311 13.092C12.8946 13.3252 14.1693 13.4185 14.7951 12.3925C15.3745 11.3665 14.6792 10.3405 14.1925 10.014Z" fill="white"/>
</svg>
