<svg width="96" height="96" viewBox="0 0 96 96" fill="none" xmlns="http://www.w3.org/2000/svg">
<g clip-path="url(#clip0_248_1746)">
<path d="M26.9415 42.2728C26.3825 40.6458 26.0375 39.0405 25.8846 37.3917C25.5876 34.2466 25.9152 31.1713 26.8935 28.1659C27.0201 27.7733 27.1817 27.6381 27.614 27.6381C32.6801 27.6555 37.7417 27.6511 42.8077 27.6511C43.6287 27.6511 43.7248 27.5639 43.8078 26.7482C43.9912 24.951 45.4106 23.577 47.2492 23.481C48.4895 23.4156 49.7298 23.4199 50.791 24.2574C51.6252 24.9161 52.0532 25.7754 52.1711 26.8005C52.2541 27.529 52.3632 27.6511 53.1144 27.6511C58.1455 27.6511 63.1722 27.6599 68.2032 27.6381C68.7229 27.6381 68.9457 27.7689 69.1073 28.2836C70.5397 32.7984 70.5703 37.3131 69.1684 41.8366C69.1291 41.9631 69.0723 42.0896 69.0068 42.2597C62.7529 37.588 55.7566 35.1408 47.9698 35.1408C40.2004 35.1408 33.226 37.588 26.9415 42.2728Z" fill="white"/>
<path d="M44.6289 36.1877H51.3326C51.3326 36.4756 51.3326 36.6763 51.3326 36.8813C51.3326 47.9087 51.3326 58.936 51.3326 69.9633C51.3326 70.4039 51.3457 70.8052 51.8348 71.0059C51.8916 71.0277 51.944 71.128 51.9571 71.1978C52.2934 72.8554 51.4854 74.5522 50.0355 75.2545C48.2406 76.1226 45.6508 75.5817 44.5983 74.1291C43.9476 73.2262 43.9869 72.2011 44.0131 71.1716C44.0131 71.1149 44.0611 71.032 44.1092 71.0146C44.6856 70.7965 44.6332 70.3123 44.6332 69.8368C44.6332 58.8444 44.6332 47.8519 44.6332 36.8595C44.6332 36.685 44.6332 36.5149 44.6332 36.1921L44.6289 36.1877Z" fill="white"/>
<path d="M18.4341 9.97141C19.6875 9.13389 20.9016 8.30073 22.1462 7.50684C22.5611 7.24075 23.0503 7.08808 23.5088 7.45885C23.9412 7.81218 23.9718 8.27456 23.8233 8.65843C24.2469 8.84163 24.7142 8.92887 25.0243 9.19932C25.5658 9.67043 25.5614 10.3814 25.0592 10.9093C24.7273 11.2582 24.3255 11.5505 23.9281 11.8253C22.9935 12.484 22.0414 13.1165 21.0544 13.7882C20.1766 12.5101 19.325 11.2669 18.4341 9.97141ZM21.6789 12.1437C22.3864 11.6595 23.0677 11.219 23.7097 10.7261C23.8407 10.6257 23.8975 10.2942 23.8407 10.1197C23.7447 9.83183 23.4608 9.84927 23.2337 10.0019C22.5568 10.4512 21.8929 10.9136 21.1854 11.3934C21.3601 11.6552 21.5086 11.882 21.6789 12.1481V12.1437ZM20.6177 10.5865C21.2859 10.1241 21.9104 9.71841 22.5 9.26475C22.6223 9.16879 22.6092 8.89398 22.6572 8.70205C22.4694 8.68896 22.2336 8.59736 22.1026 8.68024C21.4606 9.08155 20.8448 9.52648 20.1941 9.96705C20.3426 10.1852 20.4649 10.364 20.6133 10.5865H20.6177Z" fill="white"/>
<path d="M77.2828 85.9722C76.0163 86.8141 74.8196 87.6473 73.5793 88.4194C72.9243 88.8294 72.3172 88.7596 72.0464 88.2754C71.8718 87.9613 71.8761 87.5469 71.7888 87.1369C71.3477 87.198 70.8411 87.0715 70.5092 86.5219C70.2253 86.0551 70.2122 85.5971 70.5441 85.1609C70.7188 84.9297 70.9328 84.7072 71.1686 84.5415C72.3085 83.7432 73.4614 82.9668 74.6668 82.1423C75.5315 83.4117 76.3831 84.6549 77.2784 85.9679L77.2828 85.9722ZM74.0423 83.7956C73.3479 84.2667 72.6622 84.7029 72.0202 85.1958C71.8849 85.2961 71.9067 85.6015 71.8543 85.8108C72.0683 85.8501 72.3434 85.994 72.4875 85.9112C73.1819 85.4968 73.8414 85.0169 74.5445 84.5458C74.3698 84.2841 74.217 84.0573 74.0466 83.7956H74.0423ZM75.1035 85.3528C74.4266 85.8108 73.8021 86.2165 73.2038 86.6658C73.0815 86.7574 73.0815 87.0017 73.0247 87.1762C73.2212 87.2023 73.4658 87.3201 73.5968 87.2416C74.2475 86.8534 74.8633 86.4084 75.5184 85.9722C75.3656 85.7498 75.2433 85.5666 75.0992 85.3528H75.1035Z" fill="white"/>
<path d="M52.0444 93.7149C51.2234 93.4139 50.9133 93.017 50.9221 92.3714C50.9308 91.7869 51.3369 91.2896 52.0794 91.1413C53.0489 90.9494 54.0359 90.836 55.0142 90.6964C55.5295 90.6222 56.0405 90.5568 56.6257 90.4783C56.8353 92.005 57.0406 93.5012 57.2502 95.041C56.0448 95.2068 54.9137 95.3682 53.7826 95.5165C53.4201 95.5645 53.0576 95.6168 52.6952 95.6168C52.2235 95.6168 51.7606 95.4903 51.5946 94.993C51.4374 94.5263 51.4767 94.0552 52.0488 93.7237L52.0444 93.7149ZM55.3155 91.6648C54.4857 91.7738 53.7433 91.8567 53.0096 91.9701C52.7301 92.0137 52.4506 92.1053 52.4768 92.4805C52.503 92.8643 52.7738 92.921 53.0707 92.8861C53.8525 92.7858 54.6342 92.668 55.4553 92.5503C55.4029 92.2231 55.3635 91.957 55.3155 91.6691V91.6648ZM55.5994 93.523C54.774 93.6364 53.9966 93.728 53.2323 93.8676C53.1057 93.8894 52.9703 94.1206 52.9354 94.2733C52.9223 94.3431 53.1581 94.5568 53.2673 94.5481C54.0577 94.487 54.8438 94.3823 55.6649 94.2864C55.6387 93.9854 55.6212 93.7716 55.5994 93.5186V93.523Z" fill="white"/>
<path d="M39.0825 5.42227C38.8598 3.85192 38.6501 2.39499 38.4318 0.859537C39.1 0.750485 39.7638 0.637071 40.4232 0.541105C41.1482 0.432053 41.8732 0.344812 42.5937 0.240122C43.4279 0.122346 44.0655 0.432053 44.131 1.09073C44.166 1.43969 43.9651 1.81047 43.8603 2.20742C44.2402 2.30338 44.6202 2.59564 44.7206 3.14527C44.8604 3.89118 44.5284 4.5106 43.7249 4.67199C42.2094 4.97298 40.6765 5.16927 39.0825 5.42227ZM40.3752 4.20525C41.2181 4.08748 42.0129 4.00023 42.7903 3.84756C42.965 3.81266 43.0916 3.53349 43.2401 3.36773C43.0523 3.22815 42.8558 2.96206 42.6811 2.97514C41.8732 3.04494 41.0739 3.19325 40.2398 3.31539C40.2835 3.60765 40.3228 3.8781 40.3752 4.20525ZM40.1175 2.34264C40.9386 2.22051 41.7247 2.11145 42.5064 1.9675C42.6112 1.94569 42.7553 1.70578 42.7422 1.58364C42.7291 1.47023 42.5195 1.2783 42.4147 1.28702C41.6111 1.36554 40.8119 1.48331 39.9821 1.59237C40.0345 1.88026 40.0695 2.08092 40.1175 2.34264Z" fill="white"/>
<path d="M82.5584 74.9449C82.5671 73.5839 84.0869 71.3156 85.3752 70.875C85.7901 70.7311 86.3142 70.7093 86.7335 70.8314C88.131 71.2327 88.7424 72.4716 88.2314 73.8282C87.7991 74.9885 87.1047 75.9918 86.1046 76.742C85.4276 77.2524 84.6765 77.3615 83.9035 76.9383C83.113 76.5065 82.5191 75.9351 82.5584 74.9449ZM83.9078 74.5392C83.8947 75.3942 84.8686 75.9961 85.6067 75.5556C86.3404 75.1194 86.7684 74.4258 87.0261 73.6275C87.1745 73.1782 87.0173 72.8031 86.6723 72.5108C86.3229 72.2142 85.9299 72.0746 85.4669 72.2666C84.7595 72.5632 83.9166 73.7758 83.9035 74.5348L83.9078 74.5392Z" fill="white"/>
<path d="M77.7719 11.3591C77.6845 12.8989 76.2259 14.033 74.7716 13.5837C73.4963 13.1868 72.4307 12.4278 71.6446 11.3416C71.0332 10.4997 71.09 9.64912 71.7363 8.74181C72.3303 7.90865 73.1382 7.58585 74.1121 7.90865C75.3786 8.32305 76.4529 9.06896 77.2434 10.1464C77.4967 10.4954 77.6015 10.9534 77.7719 11.3591ZM72.719 10.4823C72.767 10.5913 72.8063 10.9228 72.9941 11.0712C73.5356 11.5074 74.1077 11.9305 74.7235 12.2533C75.2127 12.5106 75.6581 12.2533 75.9813 11.8214C76.3176 11.3678 76.3001 10.901 75.9769 10.4736C75.5184 9.86722 74.9244 9.41793 74.1776 9.20855C73.4265 8.99917 72.7321 9.5357 72.719 10.4779V10.4823Z" fill="white"/>
<path d="M1.51542 35.8909C1.64207 34.7567 1.91284 33.6706 2.56356 32.7109C3.01338 32.0435 3.651 31.6466 4.47204 31.76C5.35859 31.8821 6.22768 32.1744 6.48971 33.1558C6.63383 33.688 6.6775 34.3031 6.56395 34.8396C6.39363 35.664 6.1447 36.4928 5.76912 37.2431C5.18391 38.4034 4.22748 38.7218 3.00028 38.3336C1.91284 37.989 1.4106 37.1646 1.51542 35.8909ZM5.4241 34.8658C5.4241 33.8669 5.14897 33.4568 4.55065 33.3172C3.94797 33.1776 3.43264 33.3957 3.16187 34.0544C2.93041 34.6215 2.79065 35.2453 2.72078 35.856C2.664 36.3401 2.95661 36.7022 3.44574 36.8854C3.92177 37.0599 4.33666 37.0032 4.68604 36.6237C5.21011 36.0566 5.39353 35.363 5.4241 34.8658Z" fill="white"/>
<path d="M89.1661 61.5446C89.2621 60.598 89.5373 59.4377 90.2404 58.43C90.8518 57.5576 91.686 57.3133 92.7734 57.6536C93.7822 57.9677 94.3063 58.6525 94.315 59.695C94.3238 60.8684 93.9962 61.9633 93.446 62.984C92.8651 64.0615 91.9655 64.4366 90.8693 64.1313C89.6421 63.7867 89.1399 63.1105 89.1617 61.5402L89.1661 61.5446ZM90.3452 61.1214C90.3583 62.0898 90.6859 62.526 91.306 62.6918C91.7995 62.827 92.3192 62.622 92.59 62.0506C92.8258 61.5576 92.9743 61.0167 93.0966 60.4802C93.232 59.8739 92.9568 59.3722 92.4502 59.1454C91.8738 58.8924 91.2754 59.0102 90.9566 59.5816C90.6466 60.1443 90.4719 60.7812 90.3452 61.1127V61.1214Z" fill="white"/>
<path d="M24.6095 85.6449C24.4697 87.1978 22.9805 88.2839 21.5393 87.8128C20.3383 87.4203 19.3338 86.6874 18.5433 85.706C17.8359 84.8248 17.8533 83.9393 18.5084 83.0233C19.1591 82.1116 19.9933 81.8281 21.072 82.1945C22.2511 82.6002 23.2425 83.3112 23.9937 84.3014C24.2819 84.6852 24.4086 85.1912 24.6095 85.6449ZM20.4169 83.3941C20.2378 83.5511 19.8841 83.791 19.6352 84.1094C19.36 84.4628 19.4692 84.8815 19.7225 85.2261C20.2073 85.8935 20.8493 86.3559 21.6528 86.5609C22.3865 86.7485 23.1726 85.9415 23.0067 85.2043C22.8276 84.4322 21.4476 83.3635 20.4169 83.3897V83.3941Z" fill="white"/>
<path d="M13.2327 21.0556C13.1847 21.3086 13.1628 21.5747 13.0799 21.8146C12.6475 23.0185 11.9706 24.0611 10.9355 24.8288C10.0708 25.47 9.23668 25.4264 8.28899 24.7634C7.46358 24.1832 7.14913 23.3719 7.46358 22.3904C7.86536 21.1385 8.59033 20.0785 9.62536 19.2628C10.2936 18.735 11.0578 18.6259 11.8265 19.0272C12.6388 19.446 13.2589 20.0305 13.2371 21.06L13.2327 21.0556ZM11.8527 21.2519C11.8527 20.916 11.5732 20.615 11.167 20.3882C10.7652 20.1657 10.3896 20.2355 10.0446 20.4842C9.38953 20.9596 8.9135 21.5921 8.76502 22.3773C8.70387 22.6957 8.85236 23.1276 9.05325 23.4024C9.31966 23.7601 9.76511 23.8866 10.228 23.7339C10.9792 23.4809 11.8701 22.2072 11.8527 21.2519Z" fill="white"/>
<path d="M16.4601 14.7307C17.0424 14.6085 17.8067 14.9822 18.7529 15.8517C18.4385 16.1309 18.124 16.4101 17.8096 16.6849C17.7703 16.7198 17.7223 16.7372 17.6349 16.7896C17.434 16.6107 17.2288 16.4363 17.0322 16.2443C16.696 15.9172 16.3335 15.9172 16.0103 16.2182C15.495 16.7023 15.0146 17.2258 14.5036 17.7536C14.9098 18.1636 15.2722 18.5344 15.6784 18.9445C15.3377 19.2367 14.9927 19.529 14.604 19.8649C13.569 18.8703 12.4685 17.8147 11.3286 16.7198C12.3899 15.6511 13.4031 14.5955 14.4556 13.5878C14.6914 13.3654 15.0582 13.2083 15.3814 13.1603C16.1501 13.0469 16.6436 13.7754 16.4558 14.7263L16.4601 14.7307ZM13.1017 16.4275C13.3638 16.6674 13.5559 16.8419 13.7699 17.0382C14.3114 16.4712 14.8486 15.9477 15.329 15.3763C15.4382 15.2498 15.3465 14.9532 15.3465 14.735C15.1456 14.735 14.8661 14.6565 14.7525 14.7612C14.1892 15.2759 13.6738 15.8387 13.1017 16.4275Z" fill="white"/>
<path d="M37.2613 91.7302C36.9905 91.6429 36.7416 91.5601 36.4927 91.4859C36.1782 91.3943 35.89 91.3245 35.8201 90.9014C35.7896 90.7182 35.5625 90.5044 35.3747 90.4259C34.8812 90.2253 34.3658 90.0552 33.8418 89.9461C33.6758 89.9112 33.4662 90.0988 33.2784 90.1817C33.3832 90.3518 33.4531 90.6091 33.6059 90.6833C34.1038 90.9276 34.641 91.089 35.1476 91.3158C35.5406 91.4903 35.9424 91.6778 36.2874 91.9352C36.7984 92.3147 36.9119 92.7771 36.7241 93.318C36.5364 93.872 36.1084 94.1511 35.5712 94.1337C34.2042 94.0857 32.929 93.6975 31.8372 92.8556C31.3393 92.4717 31.252 92.0486 31.4529 91.451C31.9813 91.7389 32.5622 91.7215 33.0469 92.2929C33.4443 92.764 34.3003 92.8512 34.9641 93.0824C35.0384 93.1086 35.2611 92.9603 35.2699 92.8818C35.283 92.7553 35.2043 92.5546 35.1039 92.4979C34.7851 92.3234 34.4401 92.2013 34.1038 92.0573C33.5623 91.8262 32.9945 91.643 32.4792 91.3594C31.8066 90.9886 31.6101 90.5044 31.7673 89.8938C31.9464 89.2045 32.3831 88.7858 33.1212 88.825C34.475 88.8992 35.7677 89.2569 36.8595 90.1075C37.4185 90.5437 37.519 91.0672 37.2657 91.7258L37.2613 91.7302Z" fill="white"/>
<path d="M79.1302 81.2741C78.1388 81.6929 77.7763 80.6416 77.0645 80.2272C77.4269 79.887 77.7719 79.5599 78.1563 79.2022C78.2785 79.3199 78.4489 79.4857 78.6279 79.6471C79.0865 80.0658 79.3835 80.0659 79.8508 79.6384C80.3268 79.2022 80.8028 78.7703 81.2614 78.3472C80.8028 77.8717 80.4316 77.4922 80.0429 77.0909C80.401 76.7158 80.7067 76.393 81.0954 75.9873C82.1305 77.1345 83.1524 78.2687 84.3141 79.5598C83.4494 80.3668 82.4187 81.357 81.3575 82.3123C80.615 82.9797 79.8901 83.019 79.4533 82.4039C79.2481 82.116 79.235 81.6885 79.1258 81.2785L79.1302 81.2741ZM82.1086 79.0364C81.5147 79.5642 80.9382 80.044 80.4141 80.5762C80.3006 80.6896 80.3836 80.9993 80.3792 81.2174C80.5932 81.2087 80.8771 81.2829 81.0124 81.1738C81.5977 80.7114 82.1436 80.1924 82.7331 79.6645C82.4012 79.333 82.2091 79.1411 82.1086 79.0408V79.0364Z" fill="white"/>
<path d="M58.3333 4.13058C58.7656 4.25272 59.15 4.36177 59.5255 4.47518C59.5998 4.49699 59.7133 4.5537 59.7221 4.60605C59.9011 5.54826 60.7309 5.55698 61.4078 5.75327C61.7485 5.84924 62.2594 6.05426 62.3905 5.53081C62.5084 5.0597 61.9756 5.00736 61.6655 4.8765C60.9755 4.5886 60.2461 4.39667 59.5823 4.06515C58.8617 3.70746 58.6696 3.1622 58.8661 2.52534C59.032 1.9888 59.4033 1.70963 59.9361 1.68782C61.2768 1.63983 62.5171 2.02806 63.6439 2.73472C64.2291 3.10113 64.3601 3.5417 64.1941 4.2091C63.7836 4.09568 63.3731 3.98227 62.9626 3.86449C62.9014 3.84704 62.8228 3.80342 62.801 3.74672C62.3817 2.81323 61.469 2.88303 60.6785 2.72599C60.5737 2.70418 60.3597 2.83504 60.3291 2.93537C60.2985 3.03134 60.4165 3.24944 60.5169 3.29306C61.0104 3.5068 61.5214 3.67256 62.0236 3.86449C62.3948 4.00844 62.7791 4.13058 63.1285 4.31379C63.8404 4.68456 64.0675 5.16439 63.9103 5.84488C63.7618 6.49046 63.2857 6.92667 62.5433 6.9005C61.2419 6.85252 59.9885 6.53845 58.8967 5.78817C58.3508 5.41303 58.1237 4.87213 58.342 4.12186L58.3333 4.13058Z" fill="white"/>
<path d="M56.796 3.08386C57.8659 3.72509 57.2108 4.62804 57.3244 5.48301C56.8658 5.4263 56.4553 5.40449 56.0623 5.30852C55.9618 5.28235 55.8308 4.99445 55.8657 4.87668C56.154 3.95628 55.8526 3.56805 54.7302 3.46336C54.2498 3.41538 53.7738 3.31942 53.2454 3.2409C53.1493 3.7818 53.062 4.2878 52.9659 4.85051C52.4986 4.77635 52.0444 4.70656 51.5684 4.6324C51.7736 3.20164 51.9789 1.8145 52.1754 0.427358C52.2147 0.156909 52.3501 0.0783914 52.6034 0.11765C53.8699 0.322668 55.1408 0.518961 56.4073 0.741427C56.6737 0.78941 56.9401 0.902824 57.1803 1.03369C57.5602 1.2387 57.7524 1.5615 57.7349 2.01952C57.7131 2.59967 57.3593 2.88321 56.7916 3.0795L56.796 3.08386ZM53.407 2.24198C54.2062 2.35103 54.9748 2.47317 55.7434 2.5386C55.8788 2.55169 56.1321 2.32922 56.154 2.18964C56.1758 2.04569 56.0055 1.75343 55.8745 1.7229C55.1058 1.5615 54.3241 1.45681 53.4987 1.32595C53.4637 1.67055 53.4375 1.92355 53.407 2.24198Z" fill="white"/>
<path d="M38.8553 92.7595C38.4302 92.3233 38.3021 91.5149 38.4709 90.3342C38.6937 90.356 38.9164 90.3691 39.1391 90.3997C39.3619 90.4346 39.5802 90.4869 39.8554 90.5392C39.8292 90.8228 39.8073 91.1107 39.7724 91.3986C39.7156 91.8566 39.9209 92.1532 40.3576 92.2405C40.969 92.367 41.5892 92.4629 42.2093 92.5371C42.301 92.5502 42.4844 92.3713 42.515 92.2535C42.6111 91.8522 42.6504 91.4378 42.7203 90.9798C43.1439 91.0322 43.5239 91.054 43.8863 91.1456C43.9824 91.1674 44.1047 91.4073 44.0872 91.5294C43.8863 92.9166 43.6592 94.2994 43.4278 95.7301C42.3622 95.5687 41.3184 95.4161 40.2746 95.2459C39.7942 95.1674 39.3138 95.0758 38.8509 94.9362C38.3356 94.7792 37.9338 94.4389 37.9381 93.8588C37.9381 93.3048 38.2307 92.9035 38.8509 92.7552L38.8553 92.7595ZM42.3098 93.5927C41.5149 93.4662 40.755 93.3223 39.982 93.2481C39.8335 93.235 39.5802 93.4618 39.5235 93.6276C39.4841 93.741 39.6807 94.0551 39.8161 94.0813C40.5891 94.247 41.3708 94.3561 42.1656 94.4869C42.218 94.151 42.2617 93.8981 42.3098 93.5883V93.5927Z" fill="white"/>
<path d="M89.773 31.1192C89.8648 31.394 89.939 31.6601 90.0394 31.9218C90.1661 32.2446 90.3146 32.5412 89.9434 32.8335C89.8386 32.9164 89.7861 33.1737 89.8254 33.3177C89.9914 33.8978 90.1792 34.4736 90.415 35.0276C90.4718 35.1585 90.7426 35.1934 90.9173 35.2719C90.9959 35.0931 91.1662 34.8968 91.1313 34.7441C90.9959 34.0811 90.7862 33.4355 90.6334 32.7812C90.5635 32.4802 90.5329 32.1617 90.5329 31.852C90.5329 31.189 90.8037 30.8313 91.3933 30.6437C91.9043 30.4823 92.4851 30.6132 92.7559 31.1366C93.1664 31.9305 93.4939 32.7724 93.7778 33.623C93.9132 34.0374 93.9045 34.5173 93.887 34.9622C93.8695 35.49 93.5813 35.7953 93.0135 35.9786C92.8869 35.5903 92.7559 35.2065 92.6336 34.8139C92.6118 34.7397 92.5856 34.6307 92.6205 34.574C93.1664 33.7146 92.5681 33.0211 92.2842 32.2882C92.2405 32.1792 92.0091 32.1399 91.8693 32.0658C91.8125 32.1966 91.6859 32.3406 91.7077 32.4584C91.7951 32.9338 91.9348 33.3962 92.0353 33.8717C92.1488 34.4126 92.258 34.9535 92.3235 35.5031C92.3847 36.0265 92.1401 36.4235 91.651 36.6241C91.1444 36.8335 90.6378 36.8815 90.1836 36.4802C90.105 36.4104 90.0176 36.345 89.9608 36.2621C89.166 35.0843 88.69 33.8019 88.7511 32.358C88.7773 31.7081 89.1485 31.3111 89.7774 31.1148L89.773 31.1192Z" fill="white"/>
<path d="M58.9272 92.284C57.6607 92.127 57.8834 91.0016 57.438 90.3211C57.5996 90.2688 57.7437 90.2164 57.8878 90.1728C58.4905 89.9896 58.9185 90.1873 59.1718 90.766C59.3727 91.2284 59.6653 91.3505 60.2505 91.1848C60.8313 91.019 61.4078 90.8315 62.0673 90.6308C61.9275 90.1161 61.7878 89.6057 61.6393 89.0605C62.0847 88.9296 62.5215 88.7987 63.0062 88.6548C63.4517 90.1423 63.884 91.5817 64.3382 93.0954C62.8883 93.4923 61.4602 93.898 60.0234 94.2688C59.4688 94.4127 58.9185 94.3429 58.5997 93.7933C58.2852 93.2568 58.4293 92.7551 58.9272 92.2884V92.284ZM62.3773 91.6035C61.6087 91.8347 60.8925 92.031 60.1937 92.284C60.0365 92.3407 59.9535 92.6112 59.84 92.7813C60.0278 92.8947 60.2418 93.1303 60.399 93.0954C61.1545 92.9296 61.8969 92.6897 62.6481 92.4716C62.552 92.1575 62.4778 91.9133 62.3773 91.5992V91.6035Z" fill="white"/>
<path d="M36.8377 6.0019C36.7285 5.6791 36.6368 5.38248 36.5276 5.09459C36.3835 4.71508 36.0822 4.5406 35.6978 4.64529C35.0122 4.82414 34.3396 5.05096 33.619 5.26907C33.7719 5.79252 33.9116 6.28543 34.0689 6.82633C33.619 6.97028 33.1954 7.1055 32.7106 7.25818C32.3831 6.20691 32.0599 5.1731 31.7455 4.13493C31.3524 2.83503 31.3568 2.83067 32.6408 2.4468C33.5229 2.18508 34.4051 1.91899 35.2917 1.68344C35.5712 1.60928 35.8725 1.60056 36.1695 1.58747C36.6106 1.57003 36.9469 1.77068 37.1303 2.17635C37.3137 2.58639 37.3137 2.9877 36.9905 3.34103C36.9338 3.4021 36.8814 3.46753 36.7765 3.59839C38.0168 3.69872 37.8247 4.80669 38.2658 5.55697C37.7898 5.70528 37.3399 5.84923 36.8421 6.00626L36.8377 6.0019ZM33.3177 4.28324C34.0558 4.06077 34.7589 3.88193 35.4314 3.62893C35.6061 3.5635 35.6935 3.25815 35.8201 3.06186C35.6454 2.95717 35.4402 2.7347 35.2961 2.7696C34.5493 2.94844 33.8199 3.19708 33.0469 3.43263C33.1474 3.75543 33.2303 4.01279 33.3177 4.2876V4.28324Z" fill="white"/>
<path d="M6.06606 64.6634C5.92631 64.249 5.79092 63.8782 5.67737 63.4987C5.65117 63.4158 5.66427 63.2937 5.71231 63.2195C6.10536 62.5608 5.92194 61.1606 5.34546 60.6546C5.24938 60.5674 5.02665 60.5107 4.93494 60.563C4.81703 60.6328 4.69038 60.8378 4.70785 60.9643C4.75589 61.3394 4.8869 61.7059 4.96115 62.0766C5.09216 62.7179 5.24938 63.3635 5.30616 64.0134C5.34983 64.5412 5.07033 64.9425 4.54189 65.1345C4.00472 65.3308 3.49812 65.2348 3.17494 64.7855C2.30149 63.5816 1.85167 62.2293 1.96958 60.7288C2.00452 60.2664 2.31023 59.9567 2.83866 59.7865C2.93038 60.419 3.27539 60.8902 3.0876 61.6273C2.93911 62.2119 3.41514 62.9534 3.63787 63.6208C3.66407 63.695 3.86497 63.7822 3.93484 63.7473C4.03529 63.6993 4.15321 63.5467 4.14884 63.4463C4.13137 63.1541 4.06586 62.8662 4.00035 62.5783C3.84313 61.8542 3.61603 61.1344 3.53306 60.4016C3.45008 59.6819 3.73395 59.3416 4.34973 59.1235C4.97425 58.9054 5.59876 59.0188 5.91321 59.5903C6.34556 60.3711 6.67747 61.2173 6.97008 62.0592C7.1142 62.4736 7.10546 62.9491 7.09673 63.3983C7.088 64.0527 6.76919 64.4234 6.06169 64.6634H6.06606Z" fill="white"/>
<path d="M50.5857 4.58015C49.1009 4.58015 47.6553 4.56706 46.2098 4.58887C45.8167 4.59324 45.7032 4.4711 45.7119 4.08287C45.7337 2.73063 45.7206 1.37402 45.7206 -0.00439453H50.5814V1.00761H47.1793C47.1662 1.2388 47.1574 1.422 47.1487 1.66192H50.4722V2.73063H47.1793V3.50708C48.0178 3.50708 48.8476 3.50708 49.6773 3.50708C50.3557 3.50708 50.66 3.86477 50.5901 4.58015H50.5857Z" fill="white"/>
<path d="M45.1136 95.8437V94.8055H48.5157C48.5288 94.5918 48.5375 94.4129 48.5506 94.1337H45.2272V93.0956H48.5157V92.3104H45.0699V91.2722H49.9394V95.8437H45.1136Z" fill="white"/>
<path d="M66.2337 3.50708C66.6922 3.72518 67.0896 3.92148 67.5264 4.13086C67.2862 4.63686 67.0678 5.1036 66.8145 5.64014C67.7404 6.08943 68.6488 6.53436 69.5833 6.99238C69.8497 6.46457 70.0899 5.99346 70.3476 5.48746C70.7843 5.70557 71.1861 5.90186 71.6272 6.12433C70.9547 7.51147 70.2952 8.86371 69.6226 10.2596C69.1859 10.0546 68.7841 9.86263 68.3256 9.64889C68.5832 9.10799 68.8278 8.58454 69.1029 8.00875C68.1815 7.55945 67.2818 7.11888 66.3341 6.6565C66.0546 7.21048 65.7926 7.72957 65.5174 8.27483C65.0851 8.06981 64.6833 7.87352 64.2247 7.65542C64.8973 6.26828 65.5611 4.90731 66.238 3.51144L66.2337 3.50708Z" fill="white"/>
<path d="M26.103 85.4966C26.5485 85.7147 26.9503 85.9066 27.3914 86.1247C27.1293 86.6743 26.8848 87.1891 26.614 87.7605C27.5311 88.2098 28.4439 88.6591 29.3785 89.1215C29.658 88.5762 29.9244 88.0571 30.2082 87.4988C30.645 87.7212 31.0468 87.9219 31.4835 88.14C30.8022 89.5315 30.1384 90.8837 29.4614 92.2709C29.0247 92.0615 28.6273 91.8652 28.1687 91.6428C28.4133 91.1324 28.6448 90.6395 28.8893 90.1247C27.9635 89.6711 27.0595 89.2262 26.1249 88.7681C25.8672 89.2741 25.6226 89.7496 25.365 90.2556C24.9282 90.0462 24.509 89.8456 24.0723 89.6362C24.7579 88.2447 25.4217 86.8881 26.103 85.4966Z" fill="white"/>
<path d="M90.2622 37.9456C91.8038 37.6926 93.2887 37.444 94.7998 37.1953C94.8784 37.6621 94.957 38.1026 95.04 38.5999C94.4984 38.7002 93.9613 38.8006 93.3848 38.9052C93.5507 39.9129 93.7167 40.8944 93.887 41.9369C94.4635 41.854 94.9876 41.7755 95.5378 41.697C95.6165 42.155 95.6951 42.5956 95.7824 43.1016C94.267 43.3502 92.769 43.5945 91.2317 43.8431C91.1531 43.3502 91.0833 42.9271 91.0046 42.4429C91.4807 42.36 91.9349 42.2597 92.3978 42.2161C92.7035 42.1855 92.7865 42.0459 92.7384 41.7711C92.5856 40.8856 92.4327 39.9958 92.2755 39.0797C91.6597 39.1713 91.0833 39.2629 90.4849 39.3545C90.4063 38.8747 90.3365 38.4298 90.2622 37.95V37.9456Z" fill="white"/>
<path d="M3.07452 53.6754C3.24047 54.6962 3.39769 55.682 3.56802 56.7115C4.1707 56.6242 4.73407 56.5413 5.36295 56.4497C5.4372 56.9165 5.50707 57.3658 5.58568 57.8587C4.06151 58.1073 2.58975 58.3472 1.06558 58.6002C0.978239 58.1335 0.899628 57.7016 0.807916 57.2087C1.35382 57.1084 1.89099 57.0081 2.47184 56.899C2.29715 55.8652 2.13119 54.8619 1.96524 53.8587C1.38439 53.9459 0.873425 54.0244 0.323152 54.1073C0.240174 53.6405 0.161564 53.2 0.0742188 52.7114C1.57655 52.4628 3.06141 52.2141 4.62052 51.9568C4.69476 52.4235 4.76901 52.8772 4.85199 53.3701C4.26677 53.4748 3.72524 53.5708 3.07888 53.6842L3.07452 53.6754Z" fill="white"/>
<path d="M17.2201 80.6372C17.5389 80.2534 17.8489 79.8826 18.1721 79.4944C18.5564 79.9088 18.8578 80.2403 19.1286 80.5325C18.0935 81.5663 17.0235 82.6307 15.8924 83.7648C14.9622 82.7921 13.9403 81.8019 13.01 80.7245C12.4336 80.0527 12.5253 79.3635 13.0799 78.7964C13.652 78.2119 14.3464 78.1203 15.0539 78.6699C15.7134 79.1759 16.2898 79.7953 16.9056 80.3624C16.9799 80.4322 17.0585 80.4976 17.2201 80.6372ZM16.3466 81.3962C15.8444 80.8684 15.3902 80.3406 14.8749 79.8826C14.7395 79.7604 14.3639 79.743 14.1979 79.839C13.8966 80.0178 14.0014 80.3275 14.211 80.55C14.6827 81.056 15.1718 81.5445 15.6435 82.0375C15.923 81.7801 16.1501 81.5751 16.3422 81.3962H16.3466Z" fill="white"/>
<path d="M78.5362 15.0884C78.213 15.4766 77.903 15.8517 77.5841 16.2312C77.1605 15.8169 76.833 15.4897 76.4967 15.1625C77.5841 14.0895 78.6498 13.0382 79.7634 11.939C80.1084 12.2705 80.484 12.6238 80.8421 12.9902C81.4972 13.662 82.1829 14.3163 82.7724 15.0404C83.2703 15.6511 83.2135 16.2574 82.7724 16.807C82.2527 17.4483 81.5409 17.6184 80.8334 17.1211C80.1696 16.6544 79.6018 16.0524 78.9948 15.5071C78.8681 15.3937 78.7458 15.276 78.5406 15.0884H78.5362ZM79.3835 14.3294C79.8944 14.8616 80.3661 15.3676 80.8596 15.8561C81.0605 16.0568 81.305 16.1222 81.5496 15.8823C81.7898 15.6511 81.7592 15.4112 81.554 15.1974C81.0648 14.6827 80.5539 14.1854 80.0211 13.6445C79.7765 13.9106 79.5669 14.1331 79.3835 14.3294Z" fill="white"/>
<path d="M87.585 65.5227C87.7903 65.0952 87.9868 64.6939 88.2052 64.2358C89.5896 64.8945 90.9478 65.5445 92.3672 66.2206C91.8999 67.1933 91.4588 68.1486 90.9827 69.0865C90.7644 69.5183 90.5286 69.9545 90.2185 70.3209C89.7381 70.888 89.1572 70.9447 88.4759 70.587C87.8689 70.2642 87.5501 69.6841 87.7728 69.0167C88.0916 68.0657 88.5065 67.1497 88.8952 66.1813C88.4934 65.9807 88.048 65.7582 87.5763 65.5227H87.585ZM89.8997 66.6568C89.5809 67.3373 89.2489 67.9654 89 68.6197C88.9389 68.7811 89.0917 69.117 89.2533 69.2391C89.3407 69.3089 89.7424 69.1737 89.8298 69.0254C90.1879 68.4016 90.4805 67.743 90.8037 67.0712C90.4718 66.9185 90.2097 66.7964 89.904 66.6524L89.8997 66.6568Z" fill="white"/>
<path d="M8.20607 30.4561C7.99644 30.901 7.80865 31.3067 7.59466 31.756C6.2015 31.0973 4.83019 30.4473 3.4021 29.7712C4.02225 28.5106 4.59873 27.2674 5.24071 26.0635C5.54642 25.4964 6.02681 25.0864 6.77361 25.2259C7.74314 25.4048 8.27158 26.1594 7.97897 27.0929C7.73878 27.8475 7.37193 28.5629 7.05749 29.2958C6.99198 29.4528 6.9221 29.6055 6.83912 29.7843C7.29768 30.0068 7.71694 30.2118 8.2017 30.4473L8.20607 30.4561ZM5.89143 29.3437C6.21024 28.6589 6.52905 28.0438 6.77361 27.3983C6.83912 27.2281 6.72121 26.8879 6.57272 26.7745C6.47227 26.696 6.06175 26.8094 5.98314 26.9446C5.61629 27.5771 5.31932 28.2489 4.98741 28.9206C5.32369 29.0777 5.58572 29.1998 5.8958 29.3437H5.89143Z" fill="white"/>
<path d="M88.1878 31.4419C88.0437 31.1496 87.9432 30.8923 87.7948 30.6698C87.5284 30.2641 87.4629 29.9064 87.8515 29.5269C87.9433 29.4353 87.9651 29.1692 87.9039 29.0384C87.6026 28.3753 87.2707 27.7254 86.9213 27.0842C86.8514 26.9577 86.6462 26.7876 86.5545 26.8137C85.9081 27.0013 85.6897 26.6043 85.502 26.1202C85.4321 25.9457 85.336 25.7799 85.2487 25.5967C85.3098 25.5574 85.3491 25.5138 85.3884 25.5138C86.9432 25.5095 88.4935 25.5051 90.0483 25.5138C90.1749 25.5138 90.3627 25.5574 90.4151 25.6403C90.6815 26.1071 90.9217 26.5913 91.1488 27.0798C91.1794 27.1496 91.1313 27.2848 91.0789 27.3633C90.1312 28.7156 89.1748 30.0635 88.1922 31.4506L88.1878 31.4419ZM87.9694 26.8094C88.2359 27.3372 88.4717 27.8083 88.7381 28.3448C89.1311 27.7952 89.4674 27.3284 89.8386 26.8094H87.9651H87.9694Z" fill="white"/>
<path d="M63.6395 88.4408C63.8361 88.3492 64.0326 88.2706 64.2116 88.166C64.6746 87.8824 65.1113 87.7385 65.548 88.227C65.6179 88.3055 65.8712 88.2968 66.0022 88.2401C66.6529 87.9522 67.2993 87.6512 67.9282 87.3197C68.0766 87.2412 68.247 87.0144 68.2339 86.8704C68.1858 86.3644 68.378 86.0896 68.8584 85.9544C69.0811 85.889 69.2864 85.7537 69.5353 85.6316C69.5353 86.6174 69.544 87.5335 69.5353 88.4451C69.5266 89.0733 69.5004 89.6971 69.4785 90.3252C69.4785 90.4299 69.4916 90.5389 69.4698 90.6393C69.4043 90.9315 67.8321 91.6033 67.5919 91.4288C66.2948 90.4866 65.0065 89.5313 63.7181 88.576C63.6832 88.5498 63.6657 88.4888 63.6395 88.4408ZM68.1771 90.2379V88.3666C67.6618 88.6153 67.1988 88.8421 66.6704 89.0951C67.1988 89.4964 67.6487 89.8366 68.1771 90.2379Z" fill="white"/>
<path d="M32.1385 7.42392C31.6931 7.64203 31.3306 7.84704 30.9419 7.99099C30.8065 8.03898 30.5576 7.97791 30.4528 7.87322C30.1252 7.53297 29.8152 7.5766 29.4396 7.78161C28.8893 8.0826 28.3085 8.31815 27.7582 8.61913C27.6141 8.69765 27.4437 8.92448 27.4612 9.06406C27.5136 9.5657 27.3215 9.83615 26.8542 9.97574C26.6402 10.0368 26.448 10.1589 26.1772 10.2811C26.1772 9.74019 26.1729 9.24727 26.1772 8.75436C26.1903 7.69001 26.2165 6.63002 26.2122 5.56568C26.2122 5.26033 26.3388 5.12511 26.579 4.95935C27.4874 4.31812 28.2429 4.40536 29.0902 5.15564C30.0117 5.97135 31.0685 6.63875 32.1385 7.41956V7.42392ZM29.0465 6.82632C28.5093 6.42064 28.0552 6.08476 27.5136 5.67473V7.55042C28.0115 7.31487 28.4875 7.08804 29.0465 6.82196V6.82632Z" fill="white"/>
<path d="M10.6123 70.295H9.14495C8.09681 70.295 7.05304 70.295 6.0049 70.295C5.88262 70.295 5.75597 70.3081 5.63805 70.2907C5.32798 70.2383 4.60301 68.7116 4.78207 68.4542C5.7123 67.1107 6.65999 65.7803 7.65135 64.3713C7.87845 64.8119 8.10118 65.1696 8.24967 65.5622C8.30207 65.7018 8.21036 65.9548 8.10118 66.0856C7.85661 66.3779 7.82168 66.6178 8.0182 66.9668C8.34575 67.5382 8.59905 68.1533 8.91785 68.7291C8.9921 68.8643 9.21483 69.0257 9.33711 69.0039C9.90485 68.9035 10.1625 69.1958 10.3285 69.6669C10.3984 69.8588 10.4944 70.0377 10.6123 70.2994V70.295ZM6.0049 68.9777H7.86972C7.60331 68.4586 7.36748 67.9962 7.10108 67.4728C6.71239 68.0049 6.38048 68.463 6.0049 68.9777Z" fill="white"/>
<path d="M11.5558 71.5295C11.8397 71.957 12.0886 72.3278 12.3637 72.7335C11.3898 73.3922 10.4334 74.0421 9.4595 74.7051C9.83072 75.2678 10.1757 75.7869 10.5469 76.354C10.2412 76.5634 9.96174 76.751 9.65166 76.9647C8.64283 75.4685 7.64273 73.9854 6.61206 72.4543C6.91777 72.2493 7.18417 72.0704 7.51608 71.848C7.88293 72.3845 8.24978 72.921 8.63846 73.4881C9.62546 72.8251 10.5775 72.1882 11.5645 71.5339L11.5558 71.5295Z" fill="white"/>
<path d="M89.2272 23.3503C88.8997 23.5684 88.6333 23.7473 88.3276 23.9567C87.9433 23.3983 87.5851 22.8749 87.2052 22.3252C86.2269 22.9796 85.2792 23.6121 84.2922 24.2751C84.0215 23.8825 83.7682 23.5161 83.4712 23.0842C84.4407 22.4256 85.3928 21.7756 86.3841 21.1039C86.0173 20.5542 85.6635 20.0221 85.288 19.4594C85.5893 19.2587 85.8732 19.0668 86.192 18.853C87.2008 20.3449 88.1966 21.8236 89.2316 23.3547L89.2272 23.3503Z" fill="white"/>
<path d="M0.720623 38.8879C1.0831 38.9359 1.40628 38.9795 1.78186 39.0275C1.70325 39.6949 1.62464 40.3274 1.54603 40.9948C2.71209 41.1562 3.8432 41.3133 5.01799 41.479C4.95685 41.9676 4.90008 42.4038 4.83457 42.8967C3.66851 42.744 2.5505 42.6001 1.35824 42.4474C1.26216 43.0886 1.16171 43.7298 1.06127 44.3972C0.716256 44.3536 0.397447 44.3144 0.00439453 44.2664C0.244593 42.4779 0.480424 40.7113 0.72499 38.8923L0.720623 38.8879Z" fill="white"/>
<path d="M94.7911 51.6121C95.1492 51.6644 95.468 51.7124 95.8436 51.7691C95.599 53.5445 95.3588 55.2893 95.1099 57.1083C94.743 57.0647 94.4111 57.021 94.0399 56.9774C94.1272 56.3013 94.2058 55.6862 94.2932 55.0188C93.1577 54.8574 92.0309 54.6961 90.83 54.5259C90.8867 54.0592 90.9391 53.6012 91.0003 53.0952C92.1751 53.2522 93.3062 53.4049 94.4853 53.5619C94.5902 52.9032 94.6862 52.2751 94.7911 51.6121Z" fill="white"/>
</g>
<defs>
<clipPath id="clip0_248_1746">
<rect width="95.8436" height="95.8436" fill="white"/>
</clipPath>
</defs>
</svg>
