<svg width="42" height="42" viewBox="0 0 42 42" fill="none" xmlns="http://www.w3.org/2000/svg">
<circle cx="21" cy="21" r="21" fill="#181818"/>
<path d="M29.2516 16.8546H30.0556V16.1596H27.7003V16.8546H28.5075V26.2843H29.2505V16.8546H29.2516ZM24.6202 21.3362H25.2754V26.2832H26.0184V16.1586H25.2754V20.6402H24.6202V16.1586H23.874V26.2832H24.6202V21.3362ZM22.0432 19.0102V17.1725C22.0432 16.4806 21.6278 16.0443 20.9694 16.0443C20.3292 16.0443 19.8978 16.4806 19.8978 17.1725V18.2446C19.8978 20.8157 21.282 20.9331 21.282 23.6071V24.7353C21.282 25.5457 21.2392 25.7046 20.9544 25.7046C20.6718 25.7046 20.63 25.5457 20.63 24.7353V23.0005H19.8838V25.2714C19.8838 25.9664 20.3303 26.3996 20.9555 26.3996C21.584 26.3996 22.0143 25.9664 22.0293 25.2714V23.549C22.0293 20.9342 20.6429 20.8604 20.6429 18.1428V17.7096C20.6429 16.8993 20.6889 16.7403 20.9705 16.7403C21.2553 16.7403 21.2981 16.8993 21.2981 17.7096V19.0113H22.0432V19.0102ZM16.6538 17.8529C16.6538 17.0426 16.6206 16.7403 16.9782 16.7403C17.3358 16.7403 17.3058 17.0437 17.3058 17.8529V24.5909C17.3058 25.4012 17.3358 25.7036 16.9782 25.7036C16.6206 25.7036 16.6538 25.4002 16.6538 24.5909V17.8529ZM18.0531 17.1725C18.0531 16.4806 17.6345 16.0443 16.9793 16.0443C16.3391 16.0443 15.9076 16.4806 15.9076 17.1725V25.2704C15.9076 25.9653 16.323 26.3986 16.9793 26.3986C17.6195 26.3986 18.0531 25.9653 18.0531 25.2704V17.1725ZM15.9076 14.6543H18.0531V15.3929H15.9076V14.6543ZM35.9397 21.572C36.0007 21.6011 36.1613 21.6136 36.2405 21.4837C36.3101 21.3601 36.2223 21.2302 36.1613 21.1918C36.0788 21.1451 36.1003 21.171 35.9 21.1326L35.6174 21.0651L35.4868 20.9975L35.6174 20.93L35.9 20.8708C36.1099 20.8292 36.0788 20.85 36.1698 20.8033C36.2212 20.7617 36.309 20.635 36.2394 20.5093C36.1602 20.3825 35.9996 20.394 35.9386 20.4324C35.8476 20.4708 35.8904 20.4708 35.7566 20.6152L35.5564 20.8209L35.4258 20.9009V20.7534L35.5168 20.4792C35.5864 20.2849 35.5864 20.3233 35.5864 20.2257C35.5864 20.1582 35.5168 20.0221 35.3647 20.0221C35.2127 20.0221 35.1431 20.1571 35.1431 20.2257C35.1431 20.3233 35.1431 20.2849 35.2127 20.4792L35.3037 20.7534V20.9009L35.1731 20.8209L34.9815 20.6152C34.8423 20.4501 34.8723 20.4708 34.7898 20.4241C34.7288 20.395 34.5682 20.3825 34.489 20.5093C34.4194 20.636 34.5104 20.7628 34.5682 20.8033C34.6507 20.85 34.6196 20.8303 34.8294 20.8594L35.1121 20.93L35.2331 20.9975L35.1121 21.0651L34.8294 21.1243C34.6196 21.1627 34.6507 21.1451 34.5597 21.1918C34.5115 21.2302 34.4205 21.3601 34.4901 21.4837C34.5693 21.6136 34.7299 21.6011 34.7909 21.5637C34.8819 21.5253 34.8423 21.5429 34.9729 21.3778L35.1731 21.1721L35.3037 21.1045V21.2427L35.2127 21.5139C35.1431 21.7112 35.1431 21.6697 35.1431 21.7673C35.1431 21.838 35.2127 21.973 35.3647 21.973C35.5168 21.973 35.5864 21.838 35.5864 21.7673C35.5864 21.6697 35.5767 21.6998 35.5168 21.5139L35.4258 21.2427V21.1045L35.5564 21.1721L35.748 21.3778C35.8915 21.5429 35.8604 21.5253 35.9397 21.572ZM7.23359 21.572C7.2914 21.6011 7.45521 21.6136 7.53443 21.4837C7.60402 21.3601 7.51302 21.2302 7.45521 21.1918C7.37277 21.1451 7.39418 21.171 7.19077 21.1326L6.90813 21.0651L6.78073 20.9975L6.90813 20.93L7.19077 20.8708C7.40275 20.8292 7.37277 20.85 7.46377 20.8033C7.51195 20.7617 7.60295 20.635 7.53336 20.5093C7.45414 20.3825 7.29033 20.394 7.23252 20.4324C7.14152 20.4708 7.18113 20.4708 7.05052 20.6152L6.85032 20.8209L6.71649 20.9009V20.7534L6.80749 20.4792C6.88029 20.2849 6.88029 20.3233 6.88029 20.2257C6.88029 20.1582 6.80749 20.0221 6.65868 20.0221C6.50665 20.0221 6.43706 20.1571 6.43706 20.2257C6.43706 20.3233 6.43706 20.2849 6.50665 20.4792L6.59765 20.7534V20.9009L6.46704 20.8209L6.2754 20.6152C6.13301 20.4501 6.16299 20.4708 6.08376 20.4241C6.02274 20.395 5.86215 20.3825 5.78292 20.5093C5.71333 20.636 5.80112 20.7628 5.86215 20.8033C5.94137 20.85 5.91033 20.8303 6.12338 20.8594L6.40602 20.93L6.52699 20.9975L6.40602 21.0651L6.12338 21.1243C5.9114 21.1627 5.94137 21.1451 5.85358 21.1918C5.8022 21.2302 5.71441 21.3601 5.784 21.4837C5.86322 21.6136 6.02381 21.6011 6.08483 21.5637C6.17584 21.5253 6.13301 21.5429 6.26684 21.3778L6.46704 21.1721L6.59765 21.1045V21.2427L6.50665 21.5139C6.43706 21.7112 6.43706 21.6697 6.43706 21.7673C6.43706 21.838 6.50665 21.973 6.65868 21.973C6.80749 21.973 6.88029 21.838 6.88029 21.7673C6.88029 21.6697 6.86852 21.6998 6.80749 21.5139L6.71649 21.2427V21.1045L6.85032 21.1721L7.04195 21.3778C7.1822 21.5429 7.15223 21.5253 7.23359 21.572ZM12.9731 21.3362H13.3307V24.7343C13.3307 25.5446 13.2846 25.7036 13.0031 25.7036C12.7183 25.7036 12.6755 25.5446 12.6755 24.7343V17.7085C12.6755 16.8982 12.7183 16.7393 13.0031 16.7393C13.2857 16.7393 13.3307 16.8982 13.3307 17.7085V19.4434H14.0737V17.1725C14.0737 16.4806 13.6583 16.0443 13.002 16.0443C12.3586 16.0443 11.9282 16.4806 11.9282 17.1725V25.2704C11.9282 25.9653 12.3468 26.3986 13.002 26.3986C13.6422 26.3986 14.0737 25.9653 14.0737 25.2704V20.6412H12.972V21.3362H12.9731Z" fill="white"/>
<path d="M9.07949 30.4918C8.96065 30.3537 8.91247 30.2238 8.92746 30.1002C8.94566 29.9766 9.02488 29.8592 9.16085 29.7501L10.0259 29.0665C10.0901 29.0136 10.1565 28.972 10.2261 28.9429C10.2957 28.9107 10.3653 28.8962 10.4381 28.8962C10.5077 28.893 10.5773 28.9076 10.6447 28.9408C10.7143 28.973 10.7785 29.026 10.8417 29.0998C10.9573 29.2379 11.0055 29.3647 10.9873 29.4883C10.9691 29.6088 10.8995 29.7148 10.7839 29.8093L10.7625 29.8239L10.4959 29.6119C10.5601 29.5621 10.6019 29.5091 10.6201 29.453C10.6415 29.4 10.6297 29.347 10.5869 29.2972C10.5623 29.2681 10.5355 29.2473 10.5045 29.2379C10.4766 29.2286 10.4466 29.2286 10.4167 29.2348C10.3888 29.2411 10.3589 29.2525 10.3321 29.267C10.3043 29.2816 10.2807 29.2961 10.2593 29.3138L9.37925 30.0119C9.36105 30.0264 9.34606 30.041 9.33322 30.0586C9.30538 30.0877 9.28718 30.121 9.27862 30.1584C9.27005 30.1958 9.28504 30.2384 9.32144 30.2851C9.36105 30.3319 9.40602 30.3589 9.45205 30.3672C9.50023 30.3734 9.54627 30.361 9.59123 30.3256L9.93061 30.0576L9.80321 29.9049L10.0366 29.7189L10.3824 30.1314L9.82998 30.5698C9.69294 30.6757 9.56018 30.7204 9.42636 30.7027C9.29789 30.683 9.17905 30.6124 9.07949 30.4918Z" fill="white"/>
<path d="M11.8531 32.3504C11.729 32.4948 11.5983 32.5738 11.4677 32.5946C11.3371 32.6122 11.2011 32.5624 11.0545 32.4439C10.9121 32.3266 10.8393 32.205 10.8361 32.0814C10.8329 31.9578 10.8875 31.8279 11.0063 31.696L11.7311 30.8659C11.7889 30.7984 11.8467 30.7454 11.9099 30.7039C11.9731 30.6623 12.0373 30.6363 12.1037 30.6239C12.17 30.6124 12.2375 30.6176 12.3103 30.6384C12.3831 30.6623 12.4559 30.7028 12.5287 30.762C12.6047 30.8264 12.6625 30.8919 12.6989 30.9532C12.7353 31.0176 12.7503 31.083 12.7503 31.1443C12.7471 31.2087 12.7321 31.2742 12.6989 31.3386C12.6657 31.4061 12.6165 31.4716 12.5597 31.5391L11.8531 32.3504ZM12.3114 31.3043C12.351 31.2576 12.3777 31.2067 12.3906 31.1537C12.4002 31.1007 12.3788 31.0508 12.321 31.0031C12.291 30.9792 12.2568 30.9646 12.2268 30.9615C12.1968 30.9584 12.1658 30.9646 12.139 30.9729C12.1112 30.9844 12.0844 31.002 12.0566 31.0228C12.0319 31.0436 12.0105 31.0643 11.9923 31.0851L11.2643 31.9183C11.2279 31.9598 11.2065 32.0066 11.1979 32.0596C11.1915 32.1126 11.2129 32.1593 11.2675 32.204C11.3221 32.2486 11.3735 32.2632 11.4281 32.2455C11.4827 32.2279 11.5309 32.1957 11.5769 32.1458L12.3114 31.3043ZM12.3199 30.4068L12.5051 30.1948L13.109 30.6893L12.9237 30.9012L12.3199 30.4068Z" fill="white"/>
<path d="M14.1809 33.74C14.1327 33.8252 14.0781 33.8958 14.0235 33.955C13.9657 34.0143 13.9047 34.0579 13.8415 34.0849C13.7751 34.1119 13.7045 34.1202 13.6263 34.1119C13.5471 34.1026 13.4625 34.0735 13.3715 34.0236C13.2891 33.9769 13.2227 33.9239 13.1777 33.8678C13.1295 33.8117 13.0985 33.7525 13.0835 33.6881C13.0685 33.6257 13.0685 33.5613 13.0835 33.4969C13.0985 33.4325 13.1263 33.367 13.1627 33.3026L13.5 33.4148C13.4604 33.4886 13.4389 33.553 13.4389 33.6091C13.4357 33.6683 13.4689 33.7151 13.5396 33.7535C13.5824 33.7774 13.6188 33.7857 13.652 33.7857C13.6852 33.7826 13.713 33.7743 13.7398 33.7535C13.7676 33.7358 13.7912 33.7088 13.8158 33.6797C13.8372 33.6475 13.8586 33.6153 13.88 33.58C13.9079 33.5353 13.9261 33.4948 13.9378 33.4626C13.9496 33.4273 13.956 33.3951 13.9528 33.365C13.9496 33.3359 13.9378 33.3026 13.9196 33.2704C13.9014 33.2382 13.8736 33.1998 13.8372 33.153C13.7676 33.0647 13.7162 32.9847 13.682 32.912C13.6488 32.8414 13.6306 32.777 13.6274 32.7146C13.6242 32.6523 13.6338 32.5973 13.652 32.5412C13.6734 32.4882 13.7002 32.429 13.7366 32.3708C13.7794 32.2939 13.8308 32.2295 13.8854 32.1765C13.9432 32.1235 14.0042 32.0851 14.0706 32.0612C14.137 32.0373 14.2076 32.029 14.2826 32.0373C14.3586 32.0467 14.4378 32.0726 14.5224 32.1194C14.6134 32.1692 14.6798 32.2253 14.7226 32.2877C14.7654 32.35 14.7922 32.4113 14.8018 32.4736C14.8115 32.538 14.8082 32.6004 14.7922 32.6596C14.7772 32.7219 14.7558 32.7749 14.7258 32.8248L14.3864 32.725C14.426 32.6575 14.4475 32.5921 14.4507 32.537C14.4507 32.4809 14.4175 32.4342 14.3479 32.3957C14.3115 32.3749 14.2783 32.3666 14.2473 32.3666C14.2173 32.3697 14.1894 32.3812 14.1627 32.3957C14.1348 32.4134 14.1113 32.4342 14.0931 32.4581C14.0749 32.4851 14.0567 32.5079 14.0385 32.538C14.0203 32.5702 14.0053 32.6004 13.9957 32.6263C13.9839 32.6502 13.9807 32.6793 13.986 32.7115C13.9892 32.7437 14.0042 32.7791 14.0256 32.8206C14.0503 32.8622 14.0834 32.912 14.1316 32.9681C14.198 33.0502 14.244 33.1208 14.274 33.1863C14.304 33.2538 14.3168 33.3161 14.3168 33.3743C14.3168 33.4325 14.3051 33.4917 14.2804 33.5509C14.2569 33.6039 14.2226 33.6694 14.1809 33.74Z" fill="white"/>
<path d="M16.1497 35.212L16.4719 34.3165L16.0951 34.1898L15.7739 35.0853L15.4463 34.9731L16.1839 32.9265L16.5115 33.0387L16.2021 33.8927L16.5779 34.0225L16.8873 33.1655L17.2149 33.2745L16.4784 35.3242L16.1497 35.212Z" fill="white"/>
<path d="M19.0638 33.987L18.7629 35.8185L18.4203 35.7655L18.7201 33.934L18.3657 33.8779L18.4171 33.5684L19.4706 33.7304L19.4181 34.0431L19.0638 33.987Z" fill="white"/>
<path d="M23.3398 35.8361C23.1578 35.86 23.0154 35.8361 22.9148 35.7592C22.8141 35.6792 22.751 35.5556 22.7263 35.3821L22.5625 34.3131C22.5508 34.2331 22.5475 34.1573 22.5561 34.0835C22.5657 34.0098 22.5861 33.9423 22.6225 33.883C22.6557 33.8238 22.7049 33.774 22.7681 33.7324C22.8313 33.6908 22.9105 33.6649 23.0111 33.6503C23.1899 33.6233 23.3302 33.6503 23.4265 33.7272C23.5271 33.8072 23.5839 33.9184 23.6085 34.0628L23.6117 34.0867L23.2841 34.202C23.2723 34.122 23.2477 34.0607 23.2113 34.016C23.1717 33.9713 23.1203 33.9537 23.0539 33.963C23.0143 33.9693 22.9844 33.9807 22.9597 34.0015C22.9383 34.0222 22.9233 34.0461 22.9137 34.0721C22.9019 34.1012 22.8987 34.1313 22.8955 34.1604C22.8955 34.1926 22.8987 34.2196 22.9019 34.2456L23.0689 35.3385C23.0721 35.3592 23.0786 35.3831 23.0871 35.4008C23.0989 35.4392 23.1203 35.4683 23.1482 35.4985C23.1781 35.5255 23.221 35.5338 23.282 35.5255C23.343 35.5161 23.388 35.4964 23.4212 35.4579C23.4511 35.4226 23.464 35.3779 23.4543 35.325L23.3901 34.9011L23.1899 34.9302L23.1471 34.6414L23.6899 34.5614L23.7927 35.2471C23.8205 35.4153 23.7894 35.5504 23.7049 35.6501C23.6203 35.7499 23.4972 35.8122 23.3398 35.8361Z" fill="white"/>
<path d="M25.3427 33.1189C25.5161 33.0597 25.6639 33.0628 25.7945 33.1252C25.9251 33.1844 26.0279 33.3194 26.1039 33.5314C26.1499 33.6612 26.1703 33.7755 26.1649 33.8763C26.1585 33.9791 26.1168 34.0705 26.0407 34.1557L26.6777 34.966L26.3437 35.0782L25.7699 34.3209L25.6146 34.3739L25.9155 35.2216L25.5879 35.3307L24.8599 33.281L25.3427 33.1189ZM25.2935 33.469L25.5054 34.0695L25.6393 34.0228C25.7238 33.9957 25.7784 33.9521 25.8031 33.8898C25.8245 33.8274 25.8181 33.7423 25.7817 33.6363C25.7485 33.5418 25.7024 33.4774 25.6425 33.4358C25.5847 33.3974 25.5119 33.3942 25.4209 33.4244L25.2935 33.469Z" fill="white"/>
<path d="M28.8661 33.2809C28.9636 33.4461 29 33.5905 28.9721 33.7173C28.9443 33.844 28.8512 33.9531 28.6874 34.0414C28.5236 34.1328 28.3812 34.1588 28.2591 34.1182C28.1381 34.0798 28.0343 33.9853 27.9433 33.8326L27.3876 32.8841C27.3448 32.8103 27.3116 32.7397 27.2934 32.6659C27.2752 32.5953 27.272 32.5278 27.2838 32.4623C27.2934 32.3979 27.3234 32.3356 27.3684 32.2795C27.4144 32.2203 27.4776 32.1704 27.5622 32.1236C27.6499 32.0738 27.7324 32.0437 27.8052 32.0322C27.878 32.0229 27.9476 32.0291 28.0086 32.053C28.0696 32.0769 28.1274 32.1153 28.1788 32.1652C28.2302 32.2182 28.2795 32.2826 28.3244 32.3626L28.8661 33.2809ZM28.0129 32.5059C27.9829 32.453 27.9433 32.4114 27.894 32.3854C27.8459 32.3564 27.7913 32.3584 27.7238 32.3948C27.6906 32.4156 27.666 32.4395 27.651 32.4685C27.6392 32.4956 27.6328 32.5246 27.6328 32.5537C27.636 32.5828 27.6424 32.6129 27.6542 32.642C27.6639 32.6711 27.6788 32.7013 27.6906 32.7241L28.2495 33.6695C28.2773 33.7193 28.3159 33.7547 28.3651 33.7817C28.4111 33.8056 28.4657 33.8024 28.5289 33.7671C28.5899 33.7349 28.6199 33.6902 28.6231 33.6341C28.6263 33.578 28.6081 33.5219 28.5749 33.4638L28.0129 32.5059Z" fill="white"/>
<path d="M29.9885 30.4453L31.0623 31.6732C31.1865 31.8176 31.2475 31.9527 31.2475 32.0825C31.2443 32.2093 31.1748 32.3329 31.0291 32.4503C30.8868 32.5677 30.7497 32.6186 30.6223 32.603C30.4949 32.5854 30.3739 32.5116 30.2583 32.3797L29.1631 31.1226L29.4275 30.9045L30.526 32.1646C30.5656 32.2093 30.6084 32.2384 30.663 32.2529C30.7144 32.2706 30.7658 32.256 30.8204 32.2114C30.875 32.1667 30.8964 32.1168 30.8868 32.0607C30.8803 32.0077 30.8536 31.9548 30.8075 31.9049L29.7241 30.6624L29.9885 30.4453Z" fill="white"/>
<path d="M31.2667 29.1108C31.3973 28.955 31.5333 28.875 31.6768 28.8698C31.8191 28.8635 31.983 28.9342 32.1682 29.0817C32.2506 29.1461 32.317 29.2115 32.3716 29.2791C32.423 29.3466 32.4594 29.4141 32.4776 29.4879C32.4958 29.5616 32.4926 29.6385 32.4711 29.7144C32.4497 29.7943 32.4016 29.8764 32.3288 29.9616L32.2378 30.0676L32.9026 30.5943L32.6842 30.8561L30.9541 29.4806L31.2667 29.1108ZM31.4241 29.4193L31.983 29.8639L32.0622 29.7725C32.1286 29.6925 32.1532 29.6167 32.1318 29.5492C32.1104 29.4785 32.0525 29.4079 31.9562 29.331C31.8716 29.2635 31.7924 29.2251 31.7196 29.2157C31.6436 29.2064 31.574 29.2427 31.5076 29.3217L31.4241 29.4193Z" fill="white"/>
<path d="M11.85 11.177C11.9196 11.2476 11.9774 11.3152 12.0202 11.3858C12.063 11.4533 12.0866 11.5208 12.0962 11.5894C12.1059 11.658 12.093 11.7276 12.0662 11.7982C12.0363 11.8689 11.9817 11.9395 11.9057 12.0101C11.8393 12.0746 11.7686 12.1223 11.699 12.1483C11.6294 12.1774 11.562 12.1899 11.4956 12.1868C11.4292 12.1836 11.365 12.166 11.304 12.1338C11.243 12.1016 11.1883 12.0569 11.1337 12.007L11.3372 11.7245C11.3982 11.7806 11.456 11.8159 11.5127 11.8335C11.5706 11.8512 11.6252 11.8335 11.683 11.7806C11.7194 11.7484 11.7376 11.7162 11.7472 11.686C11.7536 11.6538 11.7504 11.6237 11.7408 11.5915C11.729 11.5624 11.7108 11.5323 11.6862 11.5032C11.6616 11.4741 11.6348 11.444 11.6037 11.4149C11.5673 11.3764 11.5342 11.3474 11.5031 11.3266C11.4721 11.3058 11.4421 11.2944 11.4121 11.2881C11.3821 11.2819 11.3457 11.2819 11.3093 11.2913C11.2729 11.3027 11.2269 11.3152 11.1723 11.3359C11.0631 11.3775 10.9689 11.4035 10.8897 11.4159C10.8072 11.4273 10.7376 11.4253 10.6777 11.4128C10.6166 11.3983 10.562 11.3744 10.5139 11.3422C10.4657 11.3068 10.4132 11.2653 10.3651 11.2154C10.304 11.1531 10.2526 11.0887 10.2162 11.0212C10.1798 10.9536 10.1584 10.8882 10.152 10.8175C10.1456 10.75 10.1584 10.6825 10.1884 10.6139C10.2162 10.5464 10.2644 10.4789 10.334 10.4134C10.41 10.3428 10.4828 10.296 10.5556 10.2721C10.6284 10.2482 10.698 10.2399 10.7623 10.2483C10.8286 10.2576 10.8897 10.2753 10.9443 10.3075C10.9989 10.3397 11.047 10.375 11.0866 10.4165L10.895 10.7053C10.8372 10.6492 10.7826 10.6139 10.7248 10.5963C10.6702 10.5786 10.6124 10.5963 10.5546 10.6524C10.5246 10.6815 10.5064 10.7085 10.5 10.7376C10.4935 10.7666 10.4967 10.7936 10.5064 10.8227C10.516 10.8518 10.5278 10.882 10.5492 10.9048C10.5674 10.9318 10.5888 10.9547 10.6102 10.9786C10.6381 11.0056 10.6616 11.0253 10.6862 11.043C10.7109 11.0606 10.7376 11.0721 10.7708 11.0752C10.8008 11.0783 10.8404 11.0752 10.8897 11.0658C10.9357 11.0565 10.9956 11.0367 11.0652 11.0097C11.1627 10.9682 11.2472 10.9453 11.32 10.936C11.3928 10.9266 11.4592 10.9297 11.517 10.9453C11.5748 10.963 11.6294 10.99 11.6808 11.0305C11.7376 11.071 11.7922 11.1178 11.85 11.177Z" fill="white"/>
<path d="M13.3222 10.8289L12.0386 9.05657L12.3201 8.8623L13.607 10.6377L13.3222 10.8289Z" fill="white"/>
<path d="M14.5199 8.65021L15.0842 9.78984L14.7715 9.93424L13.8037 7.97912L14.0864 7.84926L14.6174 8.31778C14.6602 8.35622 14.7019 8.39777 14.7448 8.43309C14.7876 8.47153 14.8293 8.50997 14.8754 8.54841L15.112 8.77176C15.1152 8.76864 15.1184 8.76864 15.1184 8.76553C15.1184 8.76553 15.1216 8.76241 15.1248 8.76241L14.5638 7.6259L14.87 7.48462L15.8379 9.43974L15.5649 9.56648L15.0338 9.10108C14.9493 9.0242 14.8636 8.94837 14.7822 8.87461C14.6998 8.79773 14.6184 8.72397 14.5339 8.64814L14.5199 8.65021Z" fill="white"/>
<path d="M17.0328 6.75107C17.1206 6.72718 17.2031 6.72198 17.2727 6.72718C17.3422 6.73653 17.4065 6.75419 17.4611 6.78639C17.5157 6.8186 17.5585 6.86015 17.5949 6.91625C17.6313 6.96923 17.6591 7.03156 17.6773 7.1022L17.3744 7.26738C17.3529 7.19051 17.323 7.13233 17.2801 7.09078C17.2373 7.05234 17.1827 7.04091 17.1163 7.05545C17.0767 7.06688 17.0468 7.08246 17.0286 7.10532C17.0071 7.12921 16.9954 7.15207 16.9889 7.18219C16.9793 7.21128 16.9793 7.24141 16.9825 7.2705C16.9857 7.29959 16.9889 7.32971 16.9975 7.35568L17.2855 8.42155C17.2919 8.44233 17.3005 8.4631 17.3101 8.48596C17.3219 8.50985 17.338 8.53063 17.3562 8.54829C17.3744 8.56595 17.399 8.57738 17.4257 8.58673C17.4536 8.59296 17.4868 8.59296 17.5232 8.58361C17.6474 8.55141 17.6838 8.44856 17.642 8.27715C17.6998 8.27092 17.7576 8.26572 17.8154 8.25949C17.8733 8.25014 17.9311 8.24494 17.9889 8.23871C18.0285 8.39765 18.0189 8.53271 17.9589 8.64802C17.8979 8.76333 17.7833 8.84229 17.6163 8.88696C17.4375 8.93163 17.2951 8.92228 17.1849 8.85475C17.0757 8.79034 16.9996 8.67191 16.9547 8.50466L16.6699 7.45957C16.6485 7.38269 16.6367 7.30686 16.6367 7.2331C16.6335 7.15934 16.6463 7.0887 16.6731 7.0274C16.701 6.96507 16.7427 6.91001 16.8037 6.86223C16.8573 6.8134 16.9365 6.77496 17.0328 6.75107Z" fill="white"/>
<path d="M19.3881 8.53549L19.2061 6.37363L20.1953 6.29468L20.2231 6.60945L19.5797 6.65932L19.6279 7.24835L20.1889 7.20471L20.2167 7.52572L19.6546 7.56935L19.7071 8.1937L20.3505 8.14384L20.3773 8.45549L19.3881 8.53549Z" fill="white"/>
<path d="M24.2416 6.95533C24.1934 6.94598 24.1506 6.95844 24.111 6.99688C24.0713 7.0322 24.0382 7.10596 24.0103 7.21504L23.6891 7.10284C23.732 6.92312 23.8101 6.79326 23.9225 6.71743C24.0349 6.63744 24.1688 6.61458 24.3176 6.6499C24.491 6.68834 24.6056 6.7621 24.657 6.86806C24.7116 6.97403 24.7212 7.10388 24.6848 7.25659C24.6634 7.35113 24.6366 7.43008 24.597 7.50072C24.5574 7.56825 24.506 7.63889 24.4418 7.71265L23.7983 8.45439L24.3476 8.57802L24.2748 8.88448L23.3369 8.67567L23.4033 8.38998C23.5371 8.23727 23.6699 8.08664 23.8037 7.936C23.9343 7.78329 24.0649 7.63266 24.1987 7.47995C24.2416 7.43528 24.2715 7.38541 24.2897 7.33555C24.3112 7.28568 24.3262 7.2327 24.3411 7.1766C24.3444 7.15894 24.3476 7.13816 24.3508 7.11427C24.354 7.09038 24.3508 7.0696 24.3444 7.04986C24.3379 7.03012 24.3262 7.00831 24.3112 6.99065C24.2962 6.97299 24.2715 6.96052 24.2416 6.95533Z" fill="white"/>
<path d="M26.6467 9.26893C26.6188 9.33645 26.5803 9.38944 26.5343 9.43411C26.4861 9.47566 26.4336 9.50786 26.3769 9.52553C26.3223 9.5463 26.2613 9.55254 26.2013 9.54942C26.1371 9.54319 26.0771 9.52864 26.0161 9.50267C25.9519 9.47566 25.8973 9.44346 25.8523 9.40294C25.8041 9.36139 25.7699 9.31464 25.7463 9.26166C25.7217 9.20868 25.7099 9.15258 25.7099 9.08817C25.7067 9.02584 25.7217 8.96143 25.7527 8.89702L26.2773 7.71584C26.3073 7.65143 26.3469 7.59533 26.3929 7.55066C26.4411 7.50599 26.4936 7.4769 26.5503 7.45613C26.6049 7.43847 26.6659 7.42912 26.7291 7.43223C26.7901 7.43535 26.8533 7.45301 26.9175 7.47898C27.0482 7.53196 27.1392 7.61403 27.1905 7.72311C27.2387 7.83219 27.2334 7.95582 27.1723 8.09087L26.6467 9.26893ZM26.8629 7.94335C26.8779 7.90491 26.8811 7.86959 26.8662 7.83739C26.8512 7.80518 26.8233 7.78129 26.7869 7.76363C26.7473 7.74908 26.7109 7.74597 26.6745 7.7574C26.6381 7.76882 26.6135 7.79272 26.5953 7.83115L26.0611 9.03311C26.0429 9.07155 26.0429 9.10687 26.0578 9.13907C26.0728 9.17128 26.1039 9.19517 26.1424 9.21283C26.1788 9.22737 26.2152 9.23049 26.2484 9.21906C26.2816 9.20764 26.3094 9.18374 26.3244 9.14531L26.8629 7.94335Z" fill="white"/>
<path d="M28.043 10.5509L29.0665 9.06116L28.6778 9.09336L28.8845 8.79313L29.2999 8.75781L29.5664 8.9313L28.3288 10.7358L28.043 10.5509Z" fill="white"/>
<path d="M29.8224 11.9298L29.5762 11.7003L31.2998 10.732L31.0697 10.5139L30.9026 10.6811L30.6842 10.4754L31.0718 10.0869L31.7795 10.7518L31.5761 10.9554L29.8224 11.9298Z" fill="white"/>
</svg>
