<svg width="227" height="95" viewBox="0 0 227 95" fill="none" xmlns="http://www.w3.org/2000/svg">
<path d="M19.2968 17.9782L18.5894 17.3045L17.2388 18.7066L15.8331 17.3682L16.9999 16.1483L16.2741 15.4655L15.1072 16.6854L13.7658 15.429L15.1164 14.027L14.409 13.3533L12.3325 15.511L17.2296 20.1268L19.2968 17.9782Z" fill="white"/>
<path d="M12.1951 26.7728L8.89669 24.6788L8.92426 24.6424L10.1462 24.9246L11.4693 25.1978L11.8 24.6697L11.0374 23.6227L10.2565 22.6213L10.2749 22.594L13.5549 24.6788L14.1153 23.7957L8.42812 20.1904L7.88604 21.028L9.07126 22.6395L10.0544 23.905L10.0268 23.9414L8.50162 23.6045L6.4895 23.1857L5.93823 24.0324L11.6255 27.6468L12.1951 26.7728Z" fill="white"/>
<path d="M22.4852 15.3473L23.3488 14.7373C23.2478 14.5279 23.1467 14.3185 23.0365 14.1C22.9354 13.8815 22.8343 13.6721 22.7333 13.4536L23.7439 12.7435L24.773 13.7268L25.6458 13.1168L20.6109 8.44629L19.6646 9.1109C20.1331 10.1579 20.6017 11.1958 21.0703 12.2337C21.548 13.2624 22.0166 14.3003 22.4852 15.3473ZM21.0703 10.0213L23.0548 12.0334L22.3014 12.5614C22.0901 12.1244 21.8788 11.7056 21.6675 11.2868C21.4562 10.8771 21.2448 10.4583 21.0243 10.0486L21.0703 10.0213Z" fill="white"/>
<path d="M12.1768 68.1572L7.73906 70.6882C7.57368 70.7792 7.4083 70.8248 7.23373 70.8157C7.05917 70.8066 6.92135 70.7155 6.8111 70.5243C6.76516 70.4333 6.73759 70.324 6.73759 70.1784C6.73759 70.0418 6.77435 69.9143 6.82947 69.796L5.91988 69.4227C5.77288 69.6867 5.70856 69.9599 5.72694 70.233C5.73613 70.5061 5.81882 70.7701 5.96582 71.016C6.23227 71.4803 6.57221 71.7534 6.96729 71.8444C7.37155 71.9355 7.81256 71.8444 8.29033 71.5713L12.6913 69.0585L12.1768 68.1572Z" fill="white"/>
<path d="M5.4884 47.965C5.24033 47.8103 5.30464 47.9013 4.67987 47.7829L3.80703 47.5644L3.40277 47.3459L3.80703 47.1274L4.67987 46.9453C5.3322 46.8179 5.24033 46.8816 5.52515 46.7268C5.68134 46.6085 5.96616 46.1988 5.74565 45.7982C5.49758 45.3976 5.00144 45.434 4.81769 45.5524C4.54206 45.6708 4.6615 45.6708 4.25724 46.1351L3.63247 46.7815L3.22821 47.0273V46.563L3.51303 45.6981C3.73353 45.079 3.73353 45.2064 3.73353 44.8969C3.73353 44.6784 3.51303 44.2505 3.05364 44.2505C2.58506 44.2505 2.36456 44.6875 2.36456 44.8969C2.36456 45.2064 2.36456 45.079 2.58506 45.6981L2.86069 46.563V47.0273L2.45643 46.7815L1.86842 46.1351C1.4274 45.6161 1.51928 45.6708 1.2804 45.5251C1.09664 45.434 0.591316 45.3976 0.343246 45.7982C0.12274 46.1988 0.407561 46.5994 0.591317 46.7268C0.839386 46.8816 0.747508 46.8179 1.39984 46.9089L2.27268 47.1274L2.64938 47.3459L2.27268 47.5644L1.39984 47.7465C0.747508 47.8649 0.839387 47.8103 0.554566 47.965C0.398374 48.0925 0.12274 48.4931 0.334059 48.8937C0.582128 49.2942 1.08746 49.2669 1.27121 49.1395C1.54684 49.012 1.4274 49.0757 1.83167 48.5568L2.45643 47.9104L2.86069 47.6919V48.1289L2.58506 48.9938C2.36456 49.6129 2.36456 49.4854 2.36456 49.795C2.36456 50.0135 2.58506 50.4414 3.05364 50.4414C3.52221 50.4414 3.73353 50.0135 3.73353 49.795C3.73353 49.4854 3.70597 49.5856 3.51303 48.9938L3.22821 48.1289V47.6919L3.63247 47.9104L4.22967 48.5568C4.6615 49.0848 4.56962 49.0211 4.82688 49.1759C5.01063 49.2669 5.51596 49.3033 5.75484 48.9028C5.94778 48.4931 5.67215 48.0925 5.4884 47.965Z" fill="white"/>
<path d="M87.5765 71.3343L82.5599 68.4846L82.0454 69.3859L87.9072 72.7181L89.3589 70.2053L88.5136 69.7228L87.5765 71.3343Z" fill="white"/>
<path d="M94.4292 47.965C94.1812 47.8103 94.2455 47.9013 93.6207 47.7829L92.7479 47.5644L92.3436 47.3459L92.7479 47.1274L93.6207 46.9453C94.2731 46.8179 94.1812 46.8816 94.466 46.7268C94.6222 46.6085 94.8978 46.1988 94.6865 45.7982C94.4384 45.3976 93.9331 45.434 93.7494 45.5524C93.4737 45.6708 93.5932 45.6708 93.1889 46.1351L92.5641 46.7815L92.1599 47.0273V46.563L92.4447 45.6981C92.6652 45.079 92.6652 45.2064 92.6652 44.8969C92.6652 44.6784 92.4447 44.2505 91.9761 44.2505C91.5075 44.2505 91.2962 44.6875 91.2962 44.8969C91.2962 45.2064 91.2962 45.079 91.5075 45.6981L91.7924 46.563V47.0273L91.3881 46.7815L90.8001 46.1351C90.3591 45.6161 90.4601 45.6708 90.2029 45.516C90.0191 45.4249 89.5138 45.3885 89.2657 45.7891C89.0452 46.1897 89.33 46.5903 89.5138 46.7177C89.7619 46.8725 89.67 46.8088 90.3223 46.8998L91.1952 47.1183L91.5719 47.3368L91.1952 47.5553L90.3223 47.7374C89.67 47.8558 89.7619 47.8011 89.4862 47.9559C89.33 48.0834 89.0544 48.484 89.2657 48.8845C89.5138 49.2851 90.0099 49.2578 90.1937 49.1304C90.4785 49.0029 90.3499 49.0666 90.7541 48.5477L91.3789 47.9013L91.7832 47.6828V48.1198L91.4983 48.9847C91.287 49.6038 91.287 49.4763 91.287 49.7859C91.287 50.0044 91.4984 50.4323 91.9669 50.4323C92.4355 50.4323 92.656 50.0044 92.656 49.7859C92.656 49.4763 92.6284 49.5674 92.4355 48.9847L92.1507 48.1198V47.6828L92.5549 47.9013L93.143 48.5477C93.584 49.0757 93.4921 49.012 93.731 49.1668C93.9147 49.2578 94.4201 49.2942 94.6681 48.8937C94.8978 48.4931 94.6222 48.0925 94.4292 47.965Z" fill="white"/>
<path d="M57.8273 8.32865C58.3694 8.48342 58.8104 8.44701 59.1504 8.23761C59.4811 8.01911 59.7292 7.63673 59.8946 7.07226L61.2728 2.28343L60.2621 2.0012L58.8747 6.84466C58.8104 7.04495 58.7277 7.19972 58.5991 7.31808C58.4705 7.42733 58.3051 7.45464 58.103 7.40002C57.8917 7.34539 57.7722 7.23614 57.7263 7.08137C57.6803 6.9266 57.6803 6.76272 57.7263 6.59885L59.132 1.69166L58.1213 1.40942L56.7156 6.29841C56.5686 6.81735 56.5778 7.25435 56.7524 7.59121C56.9269 7.92807 57.2853 8.17388 57.8273 8.32865Z" fill="white"/>
<path d="M79.0316 21.583L79.7758 20.9457L78.4987 19.4891L79.978 18.2145L81.0897 19.4891L81.8431 18.8427L80.7313 17.5681L82.1187 16.3663L83.405 17.8321L84.1492 17.1948L82.183 14.946L77.0654 19.3343L79.0316 21.583Z" fill="white"/>
<path d="M38.3241 27.282H31.6721V29.6218H38.3241V27.282Z" fill="white"/>
<path d="M82.3192 26.0624L84.6713 24.5693L84.9378 24.979L83.0543 27.2095L83.6331 28.1017L85.636 25.6527C85.9392 25.8166 86.2516 25.8712 86.564 25.8074C86.8764 25.7528 87.2071 25.6072 87.5746 25.3796C88.1535 25.0063 88.4934 24.6057 88.5853 24.1869C88.6772 23.759 88.5761 23.322 88.2821 22.8668L87.446 21.574L81.7588 25.1884L82.3192 26.0624ZM87.1796 22.9669L87.4001 23.3038C87.5563 23.5496 87.6022 23.7681 87.5195 23.9684C87.446 24.1687 87.2714 24.3417 87.0142 24.5146C86.7202 24.7058 86.4721 24.7878 86.27 24.7605C86.0678 24.7331 85.8933 24.6148 85.7463 24.3872L85.5166 24.0321L87.1796 22.9669Z" fill="white"/>
<path d="M72.2247 15.2379C72.6014 15.5293 72.9965 15.6749 73.4007 15.6385C73.805 15.6112 74.1725 15.3927 74.5033 14.9739L75.8355 13.2896L74.5308 12.2699L73.9612 12.9801L74.4389 13.3533L73.6212 14.3912C73.5202 14.5187 73.3915 14.5915 73.2445 14.6006C73.0975 14.6097 72.9505 14.5551 72.8035 14.4368C72.6565 14.3184 72.583 14.2092 72.5922 14.0817C72.5922 13.9633 72.629 13.8541 72.6841 13.7448C72.7116 13.6811 72.7484 13.6265 72.7851 13.5719L74.9075 10.8952C74.9626 10.8315 75.0178 10.7677 75.0913 10.704C75.1556 10.6403 75.2383 10.5857 75.321 10.5492C75.4037 10.5128 75.4863 10.4946 75.5782 10.5037C75.6701 10.5128 75.762 10.5492 75.863 10.6221C76.0192 10.7495 76.0927 10.8952 76.0652 11.0773C76.0468 11.2503 75.9549 11.4415 75.7987 11.6326L76.7359 12.1061L76.7818 12.0423C77.0666 11.6873 77.1953 11.314 77.1677 10.9407C77.1401 10.5674 76.9013 10.2033 76.4694 9.86642C76.2306 9.68434 76.0009 9.56598 75.7804 9.52046C75.5599 9.46584 75.3393 9.46584 75.1372 9.52046C74.9259 9.56598 74.733 9.66613 74.5492 9.80269C74.3654 9.93926 74.2001 10.1122 74.0347 10.3034L71.9582 12.9255C71.6183 13.3534 71.4713 13.7539 71.4989 14.1363C71.5448 14.5278 71.7837 14.892 72.2247 15.2379Z" fill="white"/>
<path d="M17.0632 74.6118C16.8703 74.3933 16.6773 74.2385 16.4752 74.1383C16.273 74.0382 16.0617 73.9927 15.8596 73.9927C15.6575 74.0018 15.4553 74.0564 15.244 74.1474C15.0419 74.2476 14.8306 74.3842 14.6376 74.5571L12.0651 76.7604C11.6516 77.1154 11.4219 77.4796 11.376 77.862C11.33 78.2444 11.4862 78.6449 11.8629 79.0728C12.2304 79.5007 12.6163 79.7101 13.0206 79.7192C13.4248 79.7192 13.8475 79.5281 14.2885 79.1457L16.7876 76.9971C16.9989 76.815 17.1643 76.6329 17.3021 76.4508C17.4307 76.2687 17.5134 76.0776 17.5501 75.8864C17.5869 75.6952 17.5685 75.4858 17.4858 75.2764C17.4031 75.067 17.2653 74.8394 17.0632 74.6118ZM16.4568 75.7407C16.3925 75.8955 16.3006 76.0411 16.1536 76.1595L13.5535 78.39C13.3973 78.5266 13.2319 78.6085 13.0665 78.6358C12.8919 78.6632 12.7358 78.5994 12.5979 78.4355C12.4509 78.2717 12.4142 78.1169 12.4601 77.9621C12.5061 77.8074 12.5979 77.6708 12.7358 77.5524L15.2991 75.3492C15.3635 75.2946 15.437 75.24 15.5288 75.1853C15.6115 75.1307 15.7034 75.0943 15.7861 75.0761C15.878 75.0579 15.9699 75.0579 16.0525 75.0761C16.1444 75.0943 16.2363 75.158 16.3098 75.2491C16.466 75.422 16.5119 75.5859 16.4568 75.7407Z" fill="white"/>
<path d="M73.0235 64.07V34.2372L75.5225 34.2463V32.0432H68.2183V34.2463H70.7173V64.07H73.0235Z" fill="white"/>
<path d="M68.952 85.5451C68.9244 85.2355 68.8142 84.8896 68.6212 84.5072C68.2997 83.8972 67.9322 83.5239 67.5187 83.3965C67.1053 83.269 66.6459 83.3236 66.1589 83.5786L64.7808 84.2705L67.8587 90.2338L68.7958 89.7603L67.5187 87.2931L67.9597 87.0655L70.0086 89.1413L70.9549 88.6587L68.6856 86.4464C68.8969 86.1642 68.9796 85.8637 68.952 85.5451ZM67.877 85.7363C67.8311 85.9366 67.6933 86.0913 67.4452 86.2188L67.0685 86.41L66.1681 84.662L66.5356 84.4799C66.7929 84.3524 67.0226 84.3342 67.2155 84.4253C67.4085 84.5163 67.5738 84.6984 67.7117 84.9806C67.8587 85.2811 67.9138 85.536 67.877 85.7363Z" fill="white"/>
<path d="M66.188 8.31003L66.629 8.53763L66.1328 11.3964L67.0884 11.8789L67.5753 8.76524C67.9245 8.75614 68.2185 8.64688 68.4573 8.43749C68.6962 8.22809 68.9167 7.93675 69.1097 7.56348C69.4221 6.9535 69.5139 6.44366 69.3853 6.03397C69.2475 5.62428 68.9351 5.28742 68.439 5.0416L67.07 4.34058L63.9829 10.3039L64.9201 10.7773L66.188 8.31003ZM67.5386 5.68801L67.9061 5.87009C68.1633 5.99755 68.3103 6.17053 68.3471 6.37993C68.3747 6.58933 68.3287 6.82604 68.1817 7.10827C68.0255 7.41781 67.851 7.609 67.6672 7.69094C67.4743 7.77288 67.2629 7.75467 67.0241 7.62721L66.6474 7.43602L67.5386 5.68801Z" fill="white"/>
<path d="M60.6477 89.0776L59.049 89.5328L59.2971 90.3977L59.8851 90.2338L60.2434 91.5084C60.2894 91.6723 60.271 91.8089 60.1975 91.9363C60.1148 92.0547 59.9862 92.1457 59.8116 92.2003C59.6278 92.2459 59.4992 92.2368 59.3981 92.1639C59.2971 92.0911 59.2328 92.0091 59.1776 91.8999C59.1409 91.8453 59.1133 91.7815 59.0949 91.7087L58.1578 88.4312C58.1394 88.3492 58.121 88.2582 58.1119 88.1672C58.1027 88.0761 58.1027 87.976 58.121 87.894C58.1394 87.803 58.1762 87.7302 58.2405 87.6573C58.3048 87.5845 58.3875 87.539 58.5069 87.5026C58.7091 87.4479 58.8653 87.4843 58.9939 87.6027C59.1317 87.7302 59.2236 87.9031 59.2971 88.1398L60.2342 87.6664L60.2159 87.5936C60.0872 87.1566 59.8667 86.8379 59.536 86.6376C59.2144 86.4373 58.7826 86.4191 58.2497 86.5648C57.9648 86.6467 57.7352 86.756 57.5606 86.9108C57.386 87.0564 57.2574 87.2294 57.1839 87.4297C57.1012 87.6209 57.0645 87.8394 57.0645 88.067C57.0736 88.2946 57.1104 88.5313 57.1747 88.768L58.0935 91.9818C58.2405 92.5008 58.4794 92.8558 58.8193 93.0561C59.1501 93.2564 59.5819 93.2746 60.124 93.1199C60.5926 92.9833 60.9325 92.7557 61.1438 92.4097C61.3551 92.0729 61.3919 91.645 61.2541 91.1442L60.6477 89.0776Z" fill="white"/>
<path d="M41.107 5.3059C41.1254 4.97815 41.107 4.67771 41.0702 4.38637L40.1698 4.55025C40.1882 4.70502 40.2066 4.85069 40.2066 4.99636C40.2158 5.14203 40.2066 5.26949 40.1882 5.38784L38.7917 3.71266C38.6263 3.51237 38.4977 3.32118 38.3874 3.1482C38.2771 2.97522 38.2128 2.81134 38.1853 2.66567C38.1577 2.52911 38.1761 2.39254 38.2128 2.24688C38.2588 2.11031 38.369 2.01927 38.5436 1.99196C38.663 1.97375 38.7825 1.98285 38.8927 2.02837C39.0122 2.0739 39.104 2.17404 39.1867 2.3015L39.9585 1.72793C39.7564 1.42749 39.5175 1.23631 39.2419 1.14526C38.9754 1.05422 38.6538 1.03601 38.3047 1.09974C38.1026 1.13616 37.9188 1.20899 37.7626 1.30914C37.6064 1.41839 37.4778 1.54585 37.3859 1.70062C37.2941 1.85539 37.2297 2.02837 37.193 2.21956C37.1654 2.41075 37.1654 2.61105 37.2022 2.82044C37.2481 3.06626 37.3308 3.30297 37.4502 3.51237C37.5697 3.73087 37.6891 3.92206 37.8178 4.07683L38.0474 4.34996C37.8086 4.6686 37.634 4.99636 37.5329 5.31501C37.4227 5.63366 37.4043 5.98872 37.4686 6.362C37.5146 6.61691 37.5972 6.85363 37.7075 7.05392C37.8178 7.25421 37.9464 7.41809 38.1026 7.54555C38.2588 7.67301 38.4333 7.76405 38.6171 7.81868C38.81 7.8733 39.0122 7.8733 39.2143 7.83688C39.444 7.79136 39.6645 7.72763 39.8666 7.62749C40.0688 7.52734 40.2525 7.36346 40.4179 7.12675L40.7395 7.50913L41.8787 7.30884L40.9232 6.17991C41.0335 5.92499 41.0886 5.62455 41.107 5.3059ZM39.591 6.75348C39.4807 6.83542 39.3613 6.89004 39.2327 6.90825C39.0305 6.94467 38.856 6.89004 38.7182 6.73527C38.5803 6.5896 38.4793 6.38931 38.4425 6.1617C38.4058 5.97962 38.415 5.79753 38.4609 5.63366C38.5068 5.46067 38.5803 5.27859 38.6906 5.0965L39.8666 6.47125C39.7931 6.5805 39.7104 6.67154 39.591 6.75348Z" fill="white"/>
<path d="M47.9135 91.0718C48.0421 90.7805 48.1156 90.4254 48.1248 90.0066C48.1432 89.3238 47.9962 88.8231 47.693 88.5044C47.3898 88.1949 46.9671 88.031 46.4159 88.0128L44.8723 87.9673L44.6978 94.668L45.7452 94.6953L45.8187 91.9185L46.3148 91.9276L47.1233 94.7226L48.1891 94.75L47.2703 91.7364C47.5735 91.5817 47.794 91.3541 47.9135 91.0718ZM46.8753 90.7259C46.7466 90.8806 46.5445 90.9535 46.2689 90.9444L45.8462 90.9353L45.8922 88.9688L46.2964 88.9779C46.5904 88.987 46.7926 89.078 46.912 89.251C47.0315 89.424 47.0958 89.6607 47.0866 89.9702C47.0866 90.3253 47.0131 90.5711 46.8753 90.7259Z" fill="white"/>
<path d="M50.312 0.353148L48.842 0.243896L48.3367 6.92641L49.7332 7.03566C50.3488 7.08119 50.8266 6.95373 51.1481 6.65329C51.4789 6.35285 51.6626 5.85211 51.7178 5.15109C51.7453 4.80512 51.7086 4.49558 51.6259 4.22245C51.534 3.94932 51.3411 3.74903 51.0562 3.63068L51.0654 3.58515C51.3411 3.48501 51.534 3.33024 51.6626 3.11173C51.7821 2.89323 51.8648 2.6201 51.8831 2.31056C51.9291 1.71878 51.828 1.26357 51.5891 0.935819C51.3319 0.589858 50.9092 0.398669 50.312 0.353148ZM50.6704 5.42421C50.6428 5.56988 50.5969 5.67913 50.5325 5.77928C50.4682 5.87942 50.3855 5.95226 50.2845 6.00688C50.1834 6.06151 50.0456 6.07972 49.871 6.07061L49.4576 6.0433L49.6138 3.96753L50.0088 3.99485C50.2937 4.01305 50.4958 4.1132 50.5969 4.27708C50.6979 4.44095 50.7439 4.67766 50.7163 4.98721C50.7071 5.13288 50.6887 5.27854 50.6704 5.42421ZM50.6336 2.87502C50.4958 3.01159 50.2937 3.06621 50.018 3.048L49.6781 3.02069L49.8159 1.29089L50.1467 1.3182C50.4315 1.33641 50.6336 1.41834 50.7439 1.56401C50.8541 1.70968 50.9001 1.93729 50.8817 2.23773C50.8541 2.51996 50.7714 2.72936 50.6336 2.87502Z" fill="white"/>
<path d="M60.7028 46.2267H58.6723V32.0432H56.3662V64.07H58.6723V48.4207H60.7028V64.07H63.009V32.0432H60.7028V46.2267Z" fill="white"/>
<path d="M47.3639 31.679C45.3793 31.679 44.0379 33.0536 44.0379 35.2476V38.6342C44.0379 46.7729 48.3286 47.1461 48.3286 55.6034V59.1721C48.3286 61.7302 48.1908 62.24 47.3087 62.24C46.4267 62.24 46.2981 61.7302 46.2981 59.1721V53.6825H43.9919V60.8653C43.9919 63.0593 45.3793 64.434 47.3179 64.434C49.2565 64.434 50.5979 63.0593 50.6439 60.8653V55.4213C50.6439 47.137 46.3532 46.9094 46.3532 38.3155V36.9409C46.3532 34.3827 46.491 33.8729 47.373 33.8729C48.2551 33.8729 48.3929 34.3736 48.3929 36.9409V41.0557H50.699V35.2476C50.6898 33.0536 49.4035 31.679 47.3639 31.679Z" fill="white"/>
<path d="M38.3241 60.8745V35.2476C38.3241 33.0536 37.0286 31.679 34.9981 31.679C33.0135 31.679 31.6721 33.0536 31.6721 35.2476V60.8745C31.6721 63.0684 32.9676 64.4431 34.9981 64.4431C36.9826 64.4431 38.3241 63.0684 38.3241 60.8745ZM34.9981 62.24C33.8864 62.24 33.9782 61.275 33.9782 58.7169V37.3961C33.9782 34.8288 33.8864 33.8729 34.9981 33.8729C36.1098 33.8729 36.0087 34.8288 36.0087 37.3961V58.7169C36.0179 61.2841 36.1098 62.24 34.9981 62.24Z" fill="white"/>
<path d="M27.4906 5.66972L29.8794 10.8864L30.835 10.4586L28.4553 5.24182L29.4476 4.79571L29.0434 3.9126L26.1033 5.22361L26.5075 6.11583L27.4906 5.66972Z" fill="white"/>
<path d="M22.6775 31.679C20.693 31.679 19.3516 33.0536 19.3516 35.2476V60.8745C19.3516 63.0684 20.647 64.4431 22.6775 64.4431C24.6621 64.4431 26.0035 63.0684 26.0035 60.8745V46.2357H22.5857V48.4297H23.6882V59.1812C23.6882 61.7393 23.5504 62.2491 22.6683 62.2491C21.7863 62.2491 21.6577 61.7393 21.6577 59.1812V36.95C21.6577 34.3919 21.7955 33.882 22.6683 33.8911C23.5504 33.8911 23.679 34.3919 23.679 36.9591V42.4486H25.9943V35.2658C26.0035 33.0536 24.708 31.679 22.6775 31.679Z" fill="white"/>
<path d="M35.3735 93.2201L38.3044 93.8847L38.5158 92.9379L36.6231 92.5009L37.0549 90.6163L38.7179 90.9987L38.9384 90.0336L37.2846 89.6513L37.698 87.8668L39.5999 88.3038L39.8204 87.357L36.8895 86.6924L35.3735 93.2201Z" fill="white"/>
<path d="M82.1651 78.5263L77.8009 74.7754L77.1118 75.5584L82.2202 79.9466L84.1405 77.7616L83.3962 77.1243L82.1651 78.5263Z" fill="white"/>
<path d="M30.3854 84.3527L29.0256 83.7427L26.2417 89.8516L27.1972 90.2795L28.263 87.9397L28.6489 88.1127C28.9705 88.2493 29.2553 88.3312 29.5034 88.3312C29.7514 88.3312 29.9811 88.2766 30.1924 88.1673C30.4038 88.0581 30.5783 87.8942 30.7437 87.6848C30.9091 87.4754 31.0469 87.2296 31.1847 86.9383C31.4787 86.2919 31.5614 85.7638 31.4328 85.3541C31.3042 84.9353 30.955 84.6076 30.3854 84.3527ZM30.2568 86.5286C30.1097 86.8654 29.9352 87.093 29.7422 87.2023C29.5493 87.3206 29.3012 87.3115 29.0164 87.175L28.6765 87.0202L29.5769 85.0446L29.9352 85.1994C30.2292 85.3268 30.3946 85.5089 30.4221 85.7274C30.4497 85.9732 30.3946 86.2281 30.2568 86.5286Z" fill="white"/>
<path d="M23.21 80.1011C22.9712 79.9281 22.7415 79.8279 22.5118 79.7733C22.2821 79.7278 22.0708 79.7278 21.8594 79.7824C21.6573 79.837 21.4552 79.9372 21.2714 80.0829C21.0877 80.2285 20.9131 80.4106 20.7569 80.6291C20.6375 80.8021 20.5364 80.966 20.4537 81.1299C20.3802 81.2937 20.3343 81.4667 20.3251 81.6579C20.3159 81.8491 20.3526 82.0585 20.4353 82.2861C20.5088 82.5137 20.6467 82.7777 20.8304 83.0782C20.9223 83.2238 20.9866 83.3513 21.0325 83.4605C21.0785 83.5607 21.106 83.6608 21.106 83.761C21.106 83.852 21.0785 83.9522 21.0325 84.0523C20.9866 84.1525 20.9223 84.2708 20.8212 84.3983C20.7477 84.5075 20.6742 84.5986 20.6007 84.6896C20.5272 84.7807 20.4445 84.8444 20.3526 84.899C20.2608 84.9536 20.1689 84.9718 20.077 84.9718C19.976 84.9718 19.8657 84.9263 19.7554 84.8444C19.5625 84.6987 19.4706 84.5439 19.489 84.371C19.5166 84.198 19.5901 83.9977 19.7279 83.7883L18.754 83.3513C18.6253 83.5334 18.5243 83.7246 18.46 83.9157C18.3957 84.116 18.3681 84.3072 18.3957 84.5075C18.4232 84.7078 18.4967 84.899 18.6253 85.0902C18.7448 85.2814 18.9285 85.4544 19.1674 85.6273C19.4247 85.8094 19.6728 85.9278 19.9024 85.9733C20.1321 86.0279 20.3526 86.0188 20.5548 85.9551C20.7661 85.8914 20.959 85.7821 21.1428 85.6091C21.3266 85.4453 21.5103 85.2359 21.6849 84.9901C21.8319 84.7898 21.9513 84.5986 22.0432 84.4165C22.1351 84.2435 22.1902 84.0614 22.2086 83.8793C22.227 83.6972 22.1994 83.5061 22.1351 83.2967C22.0708 83.0873 21.9421 82.8506 21.7676 82.5865C21.6481 82.3953 21.5471 82.2315 21.4919 82.104C21.4368 81.9674 21.4092 81.8582 21.4001 81.758C21.3909 81.6579 21.4092 81.5669 21.4552 81.494C21.4919 81.4121 21.5471 81.3301 21.6206 81.2391C21.6757 81.1572 21.74 81.0843 21.8043 81.0115C21.8686 80.9387 21.9513 80.884 22.034 80.8385C22.1167 80.793 22.2086 80.7748 22.3005 80.7748C22.3923 80.7748 22.4842 80.8112 22.5945 80.884C22.7966 81.0297 22.8885 81.1845 22.8609 81.3575C22.8333 81.5304 22.7598 81.7125 22.6128 81.9128L23.6051 82.3225C23.7062 82.1768 23.7889 82.0221 23.8532 81.84C23.9175 81.6579 23.9451 81.4667 23.9359 81.2755C23.9267 81.0843 23.8624 80.884 23.7521 80.6837C23.6511 80.4834 23.4673 80.2923 23.21 80.1011Z" fill="white"/>
<path d="M73.0078 79.2061L72.1841 79.8472L76.3611 85.1166L77.1848 84.4755L73.0078 79.2061Z" fill="white"/>
<path fill-rule="evenodd" clip-rule="evenodd" d="M156.17 64.4013L162.577 71.147C163.953 72.6227 163.92 74.5378 162.442 75.914C160.967 77.2902 159.055 77.2571 157.679 75.7786L151.103 68.8311V73.5623C151.103 75.5768 149.76 76.9172 147.749 76.9172C145.737 76.9172 144.395 75.5741 144.395 73.5623V55.4033C144.395 53.3887 145.737 52.0457 147.749 52.0457C149.763 52.0457 151.103 53.3887 151.103 55.4033V59.9354L157.61 53.1897C159.052 51.7472 160.931 51.7472 162.373 53.1234C163.815 54.4996 163.848 56.4479 162.472 57.8905L156.17 64.4013Z" fill="#D72B22"/>
<path fill-rule="evenodd" clip-rule="evenodd" d="M172.045 73.5426C172.045 75.5545 170.7 76.8948 168.68 76.8948C166.663 76.8948 165.318 75.5545 165.318 73.5426V60.6675C165.318 58.6557 166.663 57.3154 168.68 57.3154C170.7 57.3154 172.045 58.6557 172.045 60.6675V73.5426ZM166.293 50.3403C167.638 48.9972 169.724 48.9972 171.037 50.3403C172.382 51.6474 172.382 53.7256 171.037 55.0687C169.724 56.3758 167.638 56.3758 166.293 55.0687C164.98 53.7284 164.98 51.6474 166.293 50.3403Z" fill="#F4D023"/>
<path fill-rule="evenodd" clip-rule="evenodd" d="M184.267 63.0302C183.294 63.0302 182.488 63.3977 181.816 64.1052C181.145 64.8099 180.808 65.65 180.808 66.6559C180.808 67.6618 181.142 68.5351 181.816 69.2398C182.488 69.9445 183.294 70.2789 184.267 70.2789C185.173 70.2789 185.98 69.9417 186.651 69.2729C187.356 68.6014 187.693 67.7945 187.726 66.8217V66.6531C187.726 64.6413 186.179 63.0302 184.267 63.0302ZM191.083 51.5479C193.097 51.5479 194.44 52.8909 194.44 54.9055V73.0672C194.44 75.0818 193.097 76.4249 191.083 76.4249C189.74 76.4249 188.765 75.9219 188.163 74.8801C186.585 76.2231 184.704 76.8947 182.521 76.8947C179.799 76.8947 177.686 75.8888 176.108 73.8742C174.53 71.8596 173.757 69.4415 173.757 66.6559C173.757 63.8703 174.528 61.4522 176.108 59.4376C177.686 57.4231 179.802 56.4171 182.521 56.4171C184.436 56.4171 186.149 57.0223 187.726 58.23V54.9055C187.726 52.8909 189.069 51.5479 191.083 51.5479Z" fill="#40A458"/>
<path fill-rule="evenodd" clip-rule="evenodd" d="M208.415 63.7709C207.575 63.7709 206.668 63.536 205.696 63.0662C204.723 62.5964 204.052 62.3615 203.682 62.3615C203.179 62.3615 202.911 62.5632 202.911 62.9999C202.911 63.5387 204.522 63.84 206.536 64.3429C209.423 64.879 213.217 66.3907 213.183 70.185C213.183 74.648 210.197 76.8975 204.22 76.8975C202.709 76.8975 201.032 76.6626 199.153 76.1237C197.308 75.5876 195.965 74.3772 195.965 72.802C195.965 71.8956 196.266 71.0886 196.838 70.3176C197.443 69.5466 198.214 69.1431 199.12 69.1431C199.891 69.1431 201.032 69.4443 202.51 70.0827C204.022 70.7211 204.994 71.0223 205.464 71.0223C206.102 71.0223 206.436 70.7874 206.436 70.3176C206.436 69.5134 203.919 69.4443 201.333 68.6733C198.816 67.9355 196.263 66.3575 196.263 62.8313C196.263 58.534 199.217 56.4531 204.32 56.4531C205.931 56.4531 207.611 56.6549 209.321 57.191C211.067 57.6939 212.241 58.7689 212.241 60.2115C212.241 62.1929 210.561 63.7709 208.415 63.7709Z" fill="#49B4D2"/>
<path d="M168.944 21.9714H160.669C159.456 21.9714 158.61 21.17 158.61 19.9099C158.61 18.6525 159.456 17.8511 160.669 17.8511H168.944C170.154 17.8511 171.002 18.6525 171.002 19.9099C170.999 21.17 170.154 21.9714 168.944 21.9714ZM222.611 31.7294H220.751V35.2611C220.751 36.4494 220.751 36.77 220.878 37.3807C221.005 37.9915 221.262 38.1517 221.776 38.1517C222.13 38.1517 222.931 38.0246 223.188 38.0246C225.017 38.0246 226.012 39.5335 226.012 41.2994C226.012 42.6176 225.211 43.7395 223.799 44.1568C223.125 44.3807 222.13 44.4774 220.881 44.4774C216.646 44.4774 214.339 42.8414 214.339 38.055V31.7294H214.211C212.286 31.7294 211.004 30.4443 211.004 28.5182C211.004 26.592 212.286 25.307 214.211 25.307H214.339V23.4776C214.339 21.5514 215.621 20.2664 217.546 20.2664C219.472 20.2664 220.754 21.5514 220.754 23.4776V25.307H222.614C224.539 25.307 225.821 26.592 225.821 28.5182C225.818 30.4443 224.536 31.7294 222.611 31.7294ZM207.63 44.0573C205.707 44.0573 204.422 42.7723 204.422 40.8462V34.3602C204.422 32.4672 203.331 31.2458 201.919 31.2458C200.156 31.2458 198.775 32.7878 198.775 34.7139V40.8462C198.775 42.7723 197.493 44.0573 195.567 44.0573C193.641 44.0573 192.359 42.7723 192.359 40.8462V23.4776C192.359 21.5514 193.641 20.2664 195.567 20.2664C197.493 20.2664 198.775 21.5514 198.775 23.4776V26.5589C200.154 25.4673 201.759 24.9201 203.585 24.9201C208.429 24.9201 210.835 27.971 210.835 34.07V40.8434C210.838 42.7723 209.553 44.0573 207.63 44.0573ZM186.682 31.92C185.88 31.92 185.013 31.6962 184.082 31.2458C183.151 30.7981 182.51 30.5715 182.159 30.5715C181.678 30.5715 181.421 30.7649 181.421 31.1822C181.421 31.6962 182.96 31.9836 184.886 32.4672C187.643 32.9812 191.268 34.4265 191.238 38.055C191.238 42.3246 188.384 44.4774 182.673 44.4774C181.23 44.4774 179.625 44.2536 177.829 43.7395C176.066 43.2255 174.782 42.0704 174.782 40.5615C174.782 39.6938 175.069 38.9228 175.616 38.1849C176.194 37.4471 176.931 37.0602 177.799 37.0602C178.536 37.0602 179.628 37.3503 181.04 37.9583C182.485 38.569 183.413 38.8564 183.863 38.8564C184.474 38.8564 184.795 38.6326 184.795 38.1821C184.795 37.4111 182.388 37.3476 179.918 36.6097C177.511 35.9023 175.075 34.3934 175.075 31.0219C175.075 26.9126 177.898 24.9201 182.772 24.9201C184.311 24.9201 185.916 25.1136 187.552 25.6276C189.221 26.1084 190.342 27.1364 190.342 28.5182C190.337 30.4112 188.734 31.92 186.682 31.92ZM167.145 32.2738C165.86 30.892 163.744 30.892 162.462 32.2738C161.821 32.9481 161.5 33.7523 161.5 34.7139C161.5 35.6784 161.821 36.513 162.462 37.1873C163.744 38.5027 165.86 38.5027 167.145 37.1873C167.786 36.513 168.106 35.6784 168.106 34.7139C168.109 33.7495 167.786 32.9481 167.145 32.2738ZM171.828 41.6172C169.935 43.5102 167.592 44.4415 164.802 44.4415C162.045 44.4415 159.702 43.5102 157.779 41.6172C155.886 39.7242 154.924 37.4111 154.924 34.7139C154.924 32.0168 155.886 29.7369 157.779 27.8439C159.704 25.9509 162.045 24.9864 164.802 24.9864C167.592 24.9864 169.935 25.9481 171.828 27.8439C173.721 29.7396 174.682 32.0195 174.682 34.7139C174.682 37.4084 173.721 39.7242 171.828 41.6172ZM153.062 28.5182C151.684 29.8336 149.791 29.8336 148.506 28.4215C147.255 27.0425 145.682 26.335 143.759 26.335C142.154 26.335 140.775 26.9126 139.621 28.0677C138.499 29.1897 137.921 30.5715 137.921 32.2102C137.921 33.8158 138.499 35.1948 139.621 36.3527C140.775 37.4774 142.154 38.055 143.759 38.055C145.075 38.055 146.23 37.7345 147.224 37.0906C147.351 36.9938 147.418 36.8971 147.418 36.7368C147.418 36.5766 147.321 36.4798 147.127 36.4798H145.268C143.569 36.4798 142.381 35.2915 142.381 33.5892C142.381 31.8869 143.569 30.6986 145.268 30.6986H150.816C152.742 30.6986 154.024 31.9836 154.024 33.9098V36.7341C154.024 38.3065 153.51 39.6882 152.452 40.9097C150.399 43.3167 147.127 44.4719 143.759 44.4719C140.391 44.4719 137.504 43.2836 135.098 40.8766C132.691 38.4695 131.506 35.5789 131.506 32.2075C131.506 28.836 132.694 25.9454 135.098 23.5384C137.504 21.1313 140.389 19.9099 143.759 19.9099C147.481 19.9099 150.913 21.5486 153.126 23.986C154.441 25.4037 154.441 27.2 153.062 28.5182Z" fill="white"/>
</svg>
