<svg width="72" height="48" viewBox="0 0 72 48" fill="none" xmlns="http://www.w3.org/2000/svg">
<path d="M0.5 4C0.5 2.067 2.067 0.5 4 0.5H68C69.933 0.5 71.5 2.067 71.5 4V44C71.5 45.933 69.933 47.5 68 47.5H4C2.06701 47.5 0.5 45.933 0.5 44V4Z" stroke="#CCCCCC" stroke-opacity="0.5"/>
<path d="M39.8298 15H32.1702C30.7996 15.002 29.4857 15.5474 28.5166 16.5166C27.5474 17.4857 27.002 18.7996 27 20.1702V27.8298C27.002 29.2004 27.5474 30.5143 28.5166 31.4834C29.4857 32.4526 30.7996 32.998 32.1702 33H39.8298C41.2004 32.998 42.5143 32.4526 43.4834 31.4834C44.4526 30.5143 44.998 29.2004 45 27.8298V20.1702C44.998 18.7996 44.4526 17.4857 43.4834 16.5166C42.5143 15.5474 41.2004 15.002 39.8298 15ZM36 28.2817C35.1532 28.2817 34.3253 28.0306 33.6212 27.5601C32.9171 27.0896 32.3683 26.4209 32.0442 25.6385C31.7202 24.8562 31.6354 23.9953 31.8006 23.1647C31.9658 22.3341 32.3736 21.5712 32.9724 20.9724C33.5712 20.3736 34.3341 19.9658 35.1647 19.8006C35.9953 19.6354 36.8562 19.7202 37.6385 20.0442C38.4209 20.3683 39.0896 20.9171 39.5601 21.6212C40.0306 22.3253 40.2817 23.1532 40.2817 24C40.2797 25.135 39.8279 26.2228 39.0254 27.0254C38.2228 27.8279 37.135 28.2797 36 28.2817ZM42.0817 19.0443C42.0582 19.1675 42.01 19.2848 41.94 19.3889C41.9037 19.44 41.864 19.4887 41.8213 19.5345C41.7755 19.5772 41.7268 19.6169 41.6757 19.6532C41.6238 19.6877 41.5686 19.7172 41.5111 19.7413C41.4528 19.7644 41.3925 19.7823 41.3311 19.7949C41.2048 19.8214 41.0744 19.8214 40.9481 19.7949C40.8248 19.7714 40.7076 19.7232 40.6034 19.6532C40.5516 19.6179 40.5029 19.5782 40.4579 19.5345C40.4151 19.4887 40.3754 19.44 40.3391 19.3889C40.2692 19.2848 40.221 19.1675 40.1974 19.0443C40.1709 18.918 40.1709 18.7876 40.1974 18.6613C40.221 18.538 40.2692 18.4208 40.3391 18.3166C40.3754 18.2655 40.4151 18.2169 40.4579 18.1711C40.5029 18.1274 40.5516 18.0877 40.6034 18.0523C40.7076 17.9823 40.8248 17.9341 40.9481 17.9106C41.0746 17.8867 41.2045 17.8867 41.3311 17.9106C41.3925 17.9232 41.4528 17.9411 41.5111 17.9643C41.5686 17.9883 41.6238 18.0178 41.6757 18.0523C41.7808 18.1217 41.8707 18.2115 41.94 18.3166C42.01 18.4208 42.0582 18.538 42.0817 18.6613C42.1083 18.7876 42.1083 18.918 42.0817 19.0443ZM39.1328 24C39.1328 24.6196 38.949 25.2253 38.6048 25.7405C38.2606 26.2557 37.7713 26.6572 37.1989 26.8943C36.6264 27.1314 35.9965 27.1934 35.3888 27.0726C34.7811 26.9517 34.2229 26.6533 33.7848 26.2152C33.3467 25.7771 33.0483 25.2189 32.9274 24.6112C32.8066 24.0035 32.8686 23.3736 33.1057 22.8011C33.3428 22.2287 33.7443 21.7394 34.2595 21.3952C34.7747 21.051 35.3804 20.8672 36 20.8672C36.8306 20.8682 37.6268 21.1986 38.2141 21.7859C38.8014 22.3732 39.1318 23.1694 39.1328 24Z" fill="white"/>
</svg>
