<svg width="375" height="209" viewBox="0 0 375 209" fill="none" xmlns="http://www.w3.org/2000/svg">
<path d="M188 34.6634C204.1 34.6634 217.586 23.255 221.105 7.93505C222.094 3.62893 225.582 0 230 0H363C369.627 0 375 5.47741 375 12.2341V196.766C375 203.523 369.627 209 363 209H12C5.37259 209 0 203.523 0 196.766V12.2341C0 5.47741 5.37258 0 12 0H146C150.418 0 153.906 3.62893 154.895 7.93505C158.414 23.255 171.9 34.6634 188 34.6634Z" fill="white"/>
<path d="M188 35.4134C204.466 35.4134 218.242 23.7467 221.836 8.10296C222.771 4.03466 226.027 0.75 230 0.75H363C369.2 0.75 374.25 5.8779 374.25 12.2341V196.766C374.25 203.122 369.2 208.25 363 208.25H12C5.8004 208.25 0.75 203.122 0.75 196.766V12.2341C0.75 5.8779 5.80039 0.75 12 0.75H146C149.973 0.75 153.229 4.03466 154.164 8.10297C157.758 23.7467 171.534 35.4134 188 35.4134Z" stroke="black" stroke-opacity="0.2" stroke-width="1.5"/>
</svg>
