<svg width="18" height="19" viewBox="0 0 18 19" fill="none" xmlns="http://www.w3.org/2000/svg">
<path d="M16.4313 11.4168C15.6804 10.9411 15.875 11.2209 13.9838 10.8571L11.3417 10.1856L10.1179 9.51399L11.3417 8.8424L13.9838 8.28277C15.9585 7.89101 15.6804 8.08689 16.5426 7.6112C17.0154 7.24743 17.8497 5.98821 17.21 4.75699C16.4591 3.52576 14.9294 3.6377 14.3732 4.00147C13.5388 4.36524 13.9004 4.36524 12.6766 5.79234L10.7854 7.77908L9.56167 8.5346V7.10751L10.4238 4.44918C11.0913 2.54638 11.0914 2.93814 11.0914 1.98674C11.0914 1.31517 10.4239 0 9.00543 0C7.58701 0 6.94731 1.34315 6.94731 1.98674C6.94731 2.93814 6.94732 2.54638 7.587 4.44918L8.44917 7.10751V8.5346L7.22545 7.77908L5.44545 5.79234C4.11046 4.19735 4.41641 4.36524 3.63767 3.88954C3.08142 3.60972 1.55174 3.4978 0.800804 4.72902C0.13331 5.96024 0.995502 7.19145 1.55175 7.58321C2.30268 8.05891 2.02455 7.86302 3.99922 8.14285L6.64137 8.81444L7.78169 9.48601L6.64137 10.1576L3.99922 10.7172C2.02455 11.081 2.30266 10.9131 1.46829 11.3888C0.995484 11.7806 0.161122 13.0118 0.800804 14.243C1.55174 15.4742 3.0536 15.3903 3.60985 14.9985C4.47203 14.6068 4.08266 14.8027 5.3064 13.2077L7.19763 11.2209L8.42136 10.5493V11.8925L7.55918 14.5508C6.9195 16.4536 6.91951 16.0619 6.91951 17.0133C6.91951 17.6848 7.55919 19 8.97761 19C10.396 19 11.0635 17.6848 11.0635 17.0133C11.0635 16.0619 10.9801 16.3417 10.396 14.5508L9.53385 11.8925V10.5493L10.7576 11.2209L12.5376 13.2077C13.8726 14.8306 13.5944 14.6348 14.3176 15.1105C14.8738 15.3903 16.4035 15.5022 17.1544 14.271C17.8497 13.0398 17.0154 11.8085 16.4313 11.4168Z" fill="#AA181A"/>
</svg>
