<svg width="72" height="48" viewBox="0 0 72 48" fill="none" xmlns="http://www.w3.org/2000/svg">
<path d="M0.5 4C0.5 2.067 2.067 0.5 4 0.5H68C69.933 0.5 71.5 2.067 71.5 4V44C71.5 45.933 69.933 47.5 68 47.5H4C2.06701 47.5 0.5 45.933 0.5 44V4Z" stroke="#CCCCCC" stroke-opacity="0.5"/>
<path d="M34.0633 26.2269L33.7656 30.1357C34.1916 30.1357 34.3761 29.9649 34.5974 29.7598L36.5947 27.9783L40.7335 30.807C41.4925 31.2018 42.0273 30.9939 42.2321 30.1553L44.9488 18.2749C45.1895 17.2277 44.5437 16.8175 43.8042 17.0744L27.8357 22.7801C26.7459 23.1749 26.7624 23.7419 27.6504 23.9988L31.7329 25.1839L41.2158 19.6462C41.6621 19.3704 42.0678 19.523 41.7341 19.7988L34.0633 26.2269Z" fill="white"/>
</svg>
